STARTFONT 2.1
COMMENT
COMMENT Converted from OpenType font "RuthlessSketch_Italic.ttf" by "otf2bdf 3.0".
COMMENT
FONT -FreeType-Ruthless Sketch-Medium-I-Normal--19-140-100-100-P-106-ISO10646-1
SIZE 14 100 100
FONTBOUNDINGBOX 26 22 -9 -4
STARTPROPERTIES 19
FOUNDRY "FreeType"
FAMILY_NAME "Ruthless Sketch"
WEIGHT_NAME "Medium"
SLANT "I"
SETWIDTH_NAME "Normal"
ADD_STYLE_NAME ""
PIXEL_SIZE 19
POINT_SIZE 140
RESOLUTION_X 100
RESOLUTION_Y 100
SPACING "P"
AVERAGE_WIDTH 106
CHARSET_REGISTRY "ISO10646"
CHARSET_ENCODING "1"
FONT_ASCENT 17
FONT_DESCENT 3
COPYRIGHT "© 2024 GGBotNet. All Rights Reserved."
_OTF_FONTFILE "RuthlessSketch_Italic.ttf"
_OTF_PSNAME "RuthlessSketch-Italic"
ENDPROPERTIES
CHARS 1105
STARTCHAR 0020
ENCODING 32
SWIDTH 308 0
DWIDTH 6 0
BBX 0 0 0 0
BITMAP
ENDCHAR
STARTCHAR 0021
ENCODING 33
SWIDTH 257 0
DWIDTH 5 0
BBX 6 14 2 0
BITMAP
7C
7C
78
78
78
70
70
70
E0
00
00
E0
E0
E0
ENDCHAR
STARTCHAR 0022
ENCODING 34
SWIDTH 360 0
DWIDTH 7 0
BBX 7 7 3 7
BITMAP
EE
EE
EE
CC
CC
8C
88
ENDCHAR
STARTCHAR 0023
ENCODING 35
SWIDTH 514 0
DWIDTH 10 0
BBX 11 13 1 1
BITMAP
0660
0660
0EC0
7FE0
7FE0
1980
3B00
FFC0
FFC0
6600
4E00
CC00
9C00
ENDCHAR
STARTCHAR 0024
ENCODING 36
SWIDTH 462 0
DWIDTH 9 0
BBX 11 18 1 -2
BITMAP
0300
0300
0700
0FC0
1FE0
3FE0
3E40
3E00
3F00
0F80
0F80
7F80
FF00
FF00
FE00
FC00
3800
3800
ENDCHAR
STARTCHAR 0025
ENCODING 37
SWIDTH 565 0
DWIDTH 11 0
BBX 11 13 1 1
BITMAP
1C60
3CE0
24C0
6D80
7B00
3700
06C0
0DC0
1B60
3240
73C0
6380
C000
ENDCHAR
STARTCHAR 0026
ENCODING 38
SWIDTH 462 0
DWIDTH 9 0
BBX 10 13 1 0
BITMAP
1F00
3F00
3300
3E00
1CC0
3EC0
7F80
6780
E380
E780
FF80
7E80
1880
ENDCHAR
STARTCHAR 0027
ENCODING 39
SWIDTH 205 0
DWIDTH 4 0
BBX 3 7 3 7
BITMAP
E0
E0
E0
E0
C0
C0
80
ENDCHAR
STARTCHAR 0028
ENCODING 40
SWIDTH 308 0
DWIDTH 6 0
BBX 9 19 1 -3
BITMAP
0200
0780
0F00
0C00
1800
3800
3000
7000
6000
6000
6000
E000
E000
6000
6000
7000
7000
3800
1000
ENDCHAR
STARTCHAR 0029
ENCODING 41
SWIDTH 308 0
DWIDTH 6 0
BBX 8 19 0 -3
BITMAP
04
1C
0E
06
07
03
03
03
03
07
07
06
06
0C
1C
18
70
E0
40
ENDCHAR
STARTCHAR 002A
ENCODING 42
SWIDTH 308 0
DWIDTH 6 0
BBX 5 6 3 8
BITMAP
30
F8
70
F0
A8
40
ENDCHAR
STARTCHAR 002B
ENCODING 43
SWIDTH 462 0
DWIDTH 9 0
BBX 9 8 2 2
BITMAP
0C00
1C00
1C00
FF80
FF00
F800
3800
3800
ENDCHAR
STARTCHAR 002C
ENCODING 44
SWIDTH 205 0
DWIDTH 4 0
BBX 5 6 -1 -3
BITMAP
38
38
38
30
E0
40
ENDCHAR
STARTCHAR 002D
ENCODING 45
SWIDTH 360 0
DWIDTH 7 0
BBX 7 3 2 5
BITMAP
FE
FE
7C
ENDCHAR
STARTCHAR 002E
ENCODING 46
SWIDTH 205 0
DWIDTH 4 0
BBX 3 3 1 0
BITMAP
E0
E0
E0
ENDCHAR
STARTCHAR 002F
ENCODING 47
SWIDTH 411 0
DWIDTH 8 0
BBX 11 16 0 -1
BITMAP
0040
0060
00E0
01C0
01C0
0380
0700
0700
0E00
1E00
1C00
3C00
3800
7800
7000
F000
ENDCHAR
STARTCHAR 0030
ENCODING 48
SWIDTH 360 0
DWIDTH 7 0
BBX 7 14 2 0
BITMAP
08
3C
7C
7E
7E
E6
E6
EE
EE
FC
FC
F8
F8
70
ENDCHAR
STARTCHAR 0031
ENCODING 49
SWIDTH 411 0
DWIDTH 8 0
BBX 6 13 3 0
BITMAP
1C
7C
FC
DC
7C
3C
3C
78
78
78
F8
F8
08
ENDCHAR
STARTCHAR 0032
ENCODING 50
SWIDTH 514 0
DWIDTH 10 0
BBX 10 13 1 1
BITMAP
1F00
3F80
3F80
3380
0300
0700
0E00
0CC0
1F80
3F80
7F80
FF00
3800
ENDCHAR
STARTCHAR 0033
ENCODING 51
SWIDTH 462 0
DWIDTH 9 0
BBX 9 13 1 0
BITMAP
1F00
3E00
0600
0C00
1E00
3F80
3F80
0380
0380
0380
DF00
FE00
3C00
ENDCHAR
STARTCHAR 0034
ENCODING 52
SWIDTH 411 0
DWIDTH 8 0
BBX 8 13 2 0
BITMAP
1C
38
38
30
70
7F
FF
FC
18
38
38
78
78
ENDCHAR
STARTCHAR 0035
ENCODING 53
SWIDTH 462 0
DWIDTH 9 0
BBX 10 13 1 0
BITMAP
0FC0
0F80
1C00
1E00
3F00
3F80
0780
0380
0380
8780
CF00
FE00
7C00
ENDCHAR
STARTCHAR 0036
ENCODING 54
SWIDTH 462 0
DWIDTH 9 0
BBX 10 13 1 0
BITMAP
03C0
0FC0
1C00
3800
3800
7F00
7F80
F380
E380
E380
E380
7F00
7E00
ENDCHAR
STARTCHAR 0037
ENCODING 55
SWIDTH 411 0
DWIDTH 8 0
BBX 10 12 1 0
BITMAP
3FC0
3F80
3F80
4380
0700
0F00
1E00
1E00
3C00
7C00
F800
F800
ENDCHAR
STARTCHAR 0038
ENCODING 56
SWIDTH 462 0
DWIDTH 9 0
BBX 9 14 1 0
BITMAP
0300
0F80
1F80
1980
1F00
1F00
3F80
7780
7380
F380
F380
FF80
7F00
3E00
ENDCHAR
STARTCHAR 0039
ENCODING 57
SWIDTH 462 0
DWIDTH 9 0
BBX 10 13 1 0
BITMAP
1F80
3FC0
33C0
71C0
7380
7F80
3F80
0380
0380
4700
7F00
FE00
3C00
ENDCHAR
STARTCHAR 003A
ENCODING 58
SWIDTH 205 0
DWIDTH 4 0
BBX 4 9 1 1
BITMAP
70
70
70
00
00
00
E0
E0
E0
ENDCHAR
STARTCHAR 003B
ENCODING 59
SWIDTH 205 0
DWIDTH 4 0
BBX 7 12 -1 -2
BITMAP
1E
1C
1C
00
00
00
38
38
38
30
E0
40
ENDCHAR
STARTCHAR 003C
ENCODING 60
SWIDTH 462 0
DWIDTH 9 0
BBX 9 11 2 1
BITMAP
0180
0780
1F80
7F80
F800
F000
FE00
3F00
1E00
0E00
0200
ENDCHAR
STARTCHAR 003D
ENCODING 61
SWIDTH 462 0
DWIDTH 9 0
BBX 10 7 1 3
BITMAP
7FC0
7FC0
2000
0000
FF80
FF80
F800
ENDCHAR
STARTCHAR 003E
ENCODING 62
SWIDTH 462 0
DWIDTH 9 0
BBX 9 11 1 1
BITMAP
3000
3C00
3E00
7F00
1F80
0780
7F80
FE00
F800
E000
8000
ENDCHAR
STARTCHAR 003F
ENCODING 63
SWIDTH 462 0
DWIDTH 9 0
BBX 8 14 3 0
BITMAP
3E
FF
FF
C7
07
0E
7E
78
70
E0
00
E0
E0
C0
ENDCHAR
STARTCHAR 0040
ENCODING 64
SWIDTH 617 0
DWIDTH 12 0
BBX 13 17 1 -3
BITMAP
03E0
0FF8
1FF8
3FF8
3C38
79F8
73F8
7738
F638
E670
E7F0
E3C0
F000
FFC0
FFE0
7F80
1E00
ENDCHAR
STARTCHAR 0041
ENCODING 65
SWIDTH 617 0
DWIDTH 12 0
BBX 11 13 1 0
BITMAP
0180
0180
0380
07C0
07C0
0FC0
0FC0
1BC0
33C0
3FC0
7BC0
E3E0
E3E0
ENDCHAR
STARTCHAR 0042
ENCODING 66
SWIDTH 514 0
DWIDTH 10 0
BBX 9 13 2 0
BITMAP
7F00
7F00
7F00
7300
7700
7E00
7F00
FF00
F380
F780
FF00
FE00
F000
ENDCHAR
STARTCHAR 0043
ENCODING 67
SWIDTH 462 0
DWIDTH 9 0
BBX 10 13 2 0
BITMAP
0F80
3FC0
7F80
7E80
F000
F000
F000
FF00
FF00
FF00
FF00
FE00
3800
ENDCHAR
STARTCHAR 0044
ENCODING 68
SWIDTH 462 0
DWIDTH 9 0
BBX 8 13 2 0
BITMAP
7C
7E
7F
F7
F3
F3
E7
EE
FC
FC
F8
F0
80
ENDCHAR
STARTCHAR 0045
ENCODING 69
SWIDTH 462 0
DWIDTH 9 0
BBX 8 14 2 0
BITMAP
0C
7F
7F
7E
7E
70
7C
7C
70
7F
7F
7F
FF
70
ENDCHAR
STARTCHAR 0046
ENCODING 70
SWIDTH 462 0
DWIDTH 9 0
BBX 11 14 1 0
BITMAP
01C0
3FE0
3FE0
3C00
7800
7A00
7E00
7C00
F000
F000
E000
E000
E000
F000
ENDCHAR
STARTCHAR 0047
ENCODING 71
SWIDTH 462 0
DWIDTH 9 0
BBX 11 13 1 0
BITMAP
07C0
0FE0
1FC0
3800
3000
71C0
73C0
73C0
F780
FF80
FF00
FE00
7000
ENDCHAR
STARTCHAR 0048
ENCODING 72
SWIDTH 514 0
DWIDTH 10 0
BBX 12 13 1 0
BITMAP
1E70
1E70
1EF0
1CE0
3CE0
3FE0
3FE0
7FE0
7FC0
7BC0
FBC0
F380
F600
ENDCHAR
STARTCHAR 0049
ENCODING 73
SWIDTH 308 0
DWIDTH 6 0
BBX 8 13 1 0
BITMAP
1F
1E
1E
1E
3C
3C
3C
7C
78
78
78
F0
E0
ENDCHAR
STARTCHAR 004A
ENCODING 74
SWIDTH 411 0
DWIDTH 8 0
BBX 10 13 1 0
BITMAP
03C0
07C0
07C0
0780
0F80
0F80
0F80
0F80
0F00
EF00
FE00
FE00
7800
ENDCHAR
STARTCHAR 004B
ENCODING 75
SWIDTH 514 0
DWIDTH 10 0
BBX 13 13 0 0
BITMAP
1F30
1F78
1FF0
1FE0
3FC0
3F80
3F00
3F80
7F80
7DC0
7DC0
7DE0
F880
ENDCHAR
STARTCHAR 004C
ENCODING 76
SWIDTH 514 0
DWIDTH 10 0
BBX 9 13 1 0
BITMAP
0F80
1F00
1F00
1F00
1E00
3E00
3C00
7C00
7C00
7F80
FF80
FF80
FE00
ENDCHAR
STARTCHAR 004D
ENCODING 77
SWIDTH 617 0
DWIDTH 12 0
BBX 13 13 0 0
BITMAP
0408
0E18
0E38
0E38
1F78
1FF8
1FF8
3FF8
3C78
38F8
78F8
70F8
F060
ENDCHAR
STARTCHAR 004E
ENCODING 78
SWIDTH 565 0
DWIDTH 11 0
BBX 13 13 0 0
BITMAP
0F38
0F78
0F78
1F70
1F70
3FF0
3FE0
3FE0
3BE0
7BE0
7BC0
7BC0
F380
ENDCHAR
STARTCHAR 004F
ENCODING 79
SWIDTH 514 0
DWIDTH 10 0
BBX 10 14 2 0
BITMAP
0800
1E00
3F00
3F80
7F80
FF80
F3C0
E380
F780
FF80
FF80
FF00
FE00
7C00
ENDCHAR
STARTCHAR 0050
ENCODING 80
SWIDTH 462 0
DWIDTH 9 0
BBX 11 13 0 0
BITMAP
0FC0
1FE0
1FE0
1C60
1CE0
3DE0
3FC0
3F80
7C00
7C00
7C00
7C00
F800
ENDCHAR
STARTCHAR 0051
ENCODING 81
SWIDTH 617 0
DWIDTH 12 0
BBX 11 14 1 0
BITMAP
0F80
1FC0
3FC0
39E0
79E0
78E0
71C0
7BC0
FFC0
FF80
7F80
7FC0
1BE0
0380
ENDCHAR
STARTCHAR 0052
ENCODING 82
SWIDTH 565 0
DWIDTH 11 0
BBX 11 13 1 0
BITMAP
1F80
3FC0
3CC0
7CE0
7CC0
7FC0
7F00
7F00
7B80
7B80
FBC0
F9C0
F9C0
ENDCHAR
STARTCHAR 0053
ENCODING 83
SWIDTH 462 0
DWIDTH 9 0
BBX 11 13 1 0
BITMAP
0FE0
1FC0
1FC0
3F80
3B00
3C00
3F00
0F80
0380
D780
FF00
FF00
7C00
ENDCHAR
STARTCHAR 0054
ENCODING 84
SWIDTH 565 0
DWIDTH 11 0
BBX 11 13 2 0
BITMAP
7FE0
7FE0
7FE0
FFA0
8E00
0E00
0E00
1C00
1C00
1C00
1C00
1800
3800
ENDCHAR
STARTCHAR 0055
ENCODING 85
SWIDTH 514 0
DWIDTH 10 0
BBX 11 13 2 0
BITMAP
38E0
38E0
70C0
71C0
F1C0
F3C0
F3C0
FF80
FF80
FF00
FE00
FC00
3800
ENDCHAR
STARTCHAR 0056
ENCODING 86
SWIDTH 565 0
DWIDTH 11 0
BBX 11 13 3 0
BITMAP
81E0
F9E0
FBC0
7BC0
7B80
7F80
7F00
3F00
3F00
3E00
1E00
1C00
0800
ENDCHAR
STARTCHAR 0057
ENCODING 87
SWIDTH 720 0
DWIDTH 14 0
BBX 14 13 3 1
BITMAP
F23C
F338
F370
F7F0
F7F0
FFE0
FFE0
7FC0
7BC0
7BC0
3380
3380
2000
ENDCHAR
STARTCHAR 0058
ENCODING 88
SWIDTH 565 0
DWIDTH 11 0
BBX 13 13 1 0
BITMAP
1C78
3CF0
3CE0
3DE0
3FC0
1F80
0F80
1F00
1F80
3B80
7B80
7380
F000
ENDCHAR
STARTCHAR 0059
ENCODING 89
SWIDTH 565 0
DWIDTH 11 0
BBX 11 13 3 0
BITMAP
20E0
F1C0
F1C0
F380
7700
7F00
7E00
3C00
3800
3800
3800
3800
3800
ENDCHAR
STARTCHAR 005A
ENCODING 90
SWIDTH 565 0
DWIDTH 11 0
BBX 9 13 3 0
BITMAP
7F80
FF00
FE00
0E00
1C00
1C00
3800
3800
7000
EF80
FF80
FF00
3E00
ENDCHAR
STARTCHAR 005B
ENCODING 91
SWIDTH 308 0
DWIDTH 6 0
BBX 10 19 0 -3
BITMAP
07C0
1FC0
1F80
1C00
1C00
1800
3800
3800
3800
3800
3000
7000
7000
7000
7000
E000
FC00
FC00
FC00
ENDCHAR
STARTCHAR 005C
ENCODING 92
SWIDTH 411 0
DWIDTH 8 0
BBX 5 16 3 -1
BITMAP
10
F0
F0
F0
F0
70
70
70
70
78
38
38
38
38
18
10
ENDCHAR
STARTCHAR 005D
ENCODING 93
SWIDTH 308 0
DWIDTH 6 0
BBX 10 19 0 -3
BITMAP
0FC0
1FC0
1F80
0380
0380
0380
0380
0700
0700
0700
0700
0600
0E00
0E00
0E00
0E00
FC00
FC00
FC00
ENDCHAR
STARTCHAR 005E
ENCODING 94
SWIDTH 462 0
DWIDTH 9 0
BBX 9 8 2 6
BITMAP
0600
0E00
1E00
3F00
7700
7700
E780
E780
ENDCHAR
STARTCHAR 005F
ENCODING 95
SWIDTH 360 0
DWIDTH 7 0
BBX 7 2 0 -2
BITMAP
FE
FE
ENDCHAR
STARTCHAR 0060
ENCODING 96
SWIDTH 205 0
DWIDTH 4 0
BBX 3 3 4 14
BITMAP
C0
E0
60
ENDCHAR
STARTCHAR 0061
ENCODING 97
SWIDTH 617 0
DWIDTH 12 0
BBX 11 13 1 0
BITMAP
0180
0180
0380
07C0
07C0
0FC0
0FC0
1BC0
33C0
3FC0
7BC0
E3E0
E3E0
ENDCHAR
STARTCHAR 0062
ENCODING 98
SWIDTH 514 0
DWIDTH 10 0
BBX 9 13 2 0
BITMAP
7F00
7F00
7F00
7300
7700
7E00
7F00
FF00
F380
F780
FF00
FE00
F000
ENDCHAR
STARTCHAR 0063
ENCODING 99
SWIDTH 462 0
DWIDTH 9 0
BBX 10 13 2 0
BITMAP
0F80
3FC0
7F80
7E80
F000
F000
F000
FF00
FF00
FF00
FF00
FE00
3800
ENDCHAR
STARTCHAR 0064
ENCODING 100
SWIDTH 462 0
DWIDTH 9 0
BBX 8 13 2 0
BITMAP
7C
7E
7F
F7
F3
F3
E7
EE
FC
FC
F8
F0
80
ENDCHAR
STARTCHAR 0065
ENCODING 101
SWIDTH 462 0
DWIDTH 9 0
BBX 8 14 2 0
BITMAP
0C
7F
7F
7E
7E
70
7C
7C
70
7F
7F
7F
FF
70
ENDCHAR
STARTCHAR 0066
ENCODING 102
SWIDTH 462 0
DWIDTH 9 0
BBX 11 14 1 0
BITMAP
01C0
3FE0
3FE0
3C00
7800
7A00
7E00
7C00
F000
F000
E000
E000
E000
F000
ENDCHAR
STARTCHAR 0067
ENCODING 103
SWIDTH 462 0
DWIDTH 9 0
BBX 11 13 1 0
BITMAP
07C0
0FE0
1FC0
3800
3000
71C0
73C0
73C0
F780
FF80
FF00
FE00
7000
ENDCHAR
STARTCHAR 0068
ENCODING 104
SWIDTH 514 0
DWIDTH 10 0
BBX 12 13 1 0
BITMAP
1E70
1E70
1EF0
1CE0
3CE0
3FE0
3FE0
7FE0
7FC0
7BC0
FBC0
F380
F600
ENDCHAR
STARTCHAR 0069
ENCODING 105
SWIDTH 308 0
DWIDTH 6 0
BBX 8 13 1 0
BITMAP
1F
1E
1E
1E
3C
3C
3C
7C
78
78
78
F0
E0
ENDCHAR
STARTCHAR 006A
ENCODING 106
SWIDTH 411 0
DWIDTH 8 0
BBX 10 13 1 0
BITMAP
03C0
07C0
07C0
0780
0F80
0F80
0F80
0F80
0F00
EF00
FE00
FE00
7800
ENDCHAR
STARTCHAR 006B
ENCODING 107
SWIDTH 514 0
DWIDTH 10 0
BBX 13 13 0 0
BITMAP
1F30
1F78
1FF0
1FE0
3FC0
3F80
3F00
3F80
7F80
7DC0
7DC0
7DE0
F880
ENDCHAR
STARTCHAR 006C
ENCODING 108
SWIDTH 514 0
DWIDTH 10 0
BBX 9 13 1 0
BITMAP
0F80
1F00
1F00
1F00
1E00
3E00
3C00
7C00
7C00
7F80
FF80
FF80
FE00
ENDCHAR
STARTCHAR 006D
ENCODING 109
SWIDTH 617 0
DWIDTH 12 0
BBX 13 13 0 0
BITMAP
0408
0E18
0E38
0E38
1F78
1FF8
1FF8
3FF8
3C78
38F8
78F8
70F8
F060
ENDCHAR
STARTCHAR 006E
ENCODING 110
SWIDTH 565 0
DWIDTH 11 0
BBX 13 13 0 0
BITMAP
0F38
0F78
0F78
1F70
1F70
3FF0
3FE0
3FE0
3BE0
7BE0
7BC0
7BC0
F380
ENDCHAR
STARTCHAR 006F
ENCODING 111
SWIDTH 514 0
DWIDTH 10 0
BBX 10 14 2 0
BITMAP
0800
1E00
3F00
3F80
7F80
FF80
F3C0
E380
F780
FF80
FF80
FF00
FE00
7C00
ENDCHAR
STARTCHAR 0070
ENCODING 112
SWIDTH 462 0
DWIDTH 9 0
BBX 11 13 0 0
BITMAP
0FC0
1FE0
1FE0
1C60
1CE0
3DE0
3FC0
3F80
7C00
7C00
7C00
7C00
F800
ENDCHAR
STARTCHAR 0071
ENCODING 113
SWIDTH 617 0
DWIDTH 12 0
BBX 11 14 1 0
BITMAP
0F80
1FC0
3FC0
39E0
79E0
78E0
71C0
7BC0
FFC0
FF80
7F80
7FC0
1BE0
0380
ENDCHAR
STARTCHAR 0072
ENCODING 114
SWIDTH 565 0
DWIDTH 11 0
BBX 11 13 1 0
BITMAP
1F80
3FC0
3CC0
7CE0
7CC0
7FC0
7F00
7F00
7B80
7B80
FBC0
F9C0
F9C0
ENDCHAR
STARTCHAR 0073
ENCODING 115
SWIDTH 462 0
DWIDTH 9 0
BBX 11 13 1 0
BITMAP
0FE0
1FC0
1FC0
3F80
3B00
3C00
3F00
0F80
0380
D780
FF00
FF00
7C00
ENDCHAR
STARTCHAR 0074
ENCODING 116
SWIDTH 565 0
DWIDTH 11 0
BBX 11 13 2 0
BITMAP
7FE0
7FE0
7FE0
FFA0
8E00
0E00
0E00
1C00
1C00
1C00
1C00
1800
3800
ENDCHAR
STARTCHAR 0075
ENCODING 117
SWIDTH 514 0
DWIDTH 10 0
BBX 11 13 2 0
BITMAP
38E0
38E0
70C0
71C0
F1C0
F3C0
F3C0
FF80
FF80
FF00
FE00
FC00
3800
ENDCHAR
STARTCHAR 0076
ENCODING 118
SWIDTH 565 0
DWIDTH 11 0
BBX 11 13 3 0
BITMAP
81E0
F9E0
FBC0
7BC0
7B80
7F80
7F00
3F00
3F00
3E00
1E00
1C00
0800
ENDCHAR
STARTCHAR 0077
ENCODING 119
SWIDTH 720 0
DWIDTH 14 0
BBX 14 13 3 1
BITMAP
F23C
F338
F370
F7F0
F7F0
FFE0
FFE0
7FC0
7BC0
7BC0
3380
3380
2000
ENDCHAR
STARTCHAR 0078
ENCODING 120
SWIDTH 565 0
DWIDTH 11 0
BBX 13 13 1 0
BITMAP
1C78
3CF0
3CE0
3DE0
3FC0
1F80
0F80
1F00
1F80
3B80
7B80
7380
F000
ENDCHAR
STARTCHAR 0079
ENCODING 121
SWIDTH 565 0
DWIDTH 11 0
BBX 11 13 3 0
BITMAP
20E0
F1C0
F1C0
F380
7700
7F00
7E00
3C00
3800
3800
3800
3800
3800
ENDCHAR
STARTCHAR 007A
ENCODING 122
SWIDTH 565 0
DWIDTH 11 0
BBX 9 13 3 0
BITMAP
7F80
FF00
FE00
0E00
1C00
1C00
3800
3800
7000
EF80
FF80
FF00
3E00
ENDCHAR
STARTCHAR 007B
ENCODING 123
SWIDTH 308 0
DWIDTH 6 0
BBX 8 18 2 -2
BITMAP
06
07
0E
1C
18
38
30
70
E0
F0
70
70
70
60
60
60
70
30
ENDCHAR
STARTCHAR 007C
ENCODING 124
SWIDTH 154 0
DWIDTH 3 0
BBX 7 19 0 -2
BITMAP
0E
0C
1C
1C
1C
1C
38
38
38
38
38
70
70
70
70
60
E0
E0
E0
ENDCHAR
STARTCHAR 007D
ENCODING 125
SWIDTH 308 0
DWIDTH 6 0
BBX 8 18 0 -2
BITMAP
0C
0E
0E
06
06
0E
0E
0E
0F
0F
0C
1C
18
18
38
70
E0
40
ENDCHAR
STARTCHAR 007E
ENCODING 126
SWIDTH 462 0
DWIDTH 9 0
BBX 10 4 1 5
BITMAP
39C0
7FC0
7F80
EF00
ENDCHAR
STARTCHAR 00A0
ENCODING 160
SWIDTH 308 0
DWIDTH 6 0
BBX 0 0 0 0
BITMAP
ENDCHAR
STARTCHAR 00A1
ENCODING 161
SWIDTH 257 0
DWIDTH 5 0
BBX 7 15 0 -4
BITMAP
0C
1E
1C
0C
00
18
38
38
78
78
78
F8
F8
F8
F8
ENDCHAR
STARTCHAR 00A2
ENCODING 162
SWIDTH 462 0
DWIDTH 9 0
BBX 11 17 1 -2
BITMAP
00E0
00C0
07C0
1FC0
1FC0
3FC0
7FC0
7700
7600
FE00
FC00
FF80
7F80
7F80
3E00
3000
3000
ENDCHAR
STARTCHAR 00A3
ENCODING 163
SWIDTH 514 0
DWIDTH 10 0
BBX 11 13 1 0
BITMAP
03C0
07E0
0EE0
0EE0
1E00
7F80
7F80
7F80
3C00
3C00
FFC0
FF80
7F80
ENDCHAR
STARTCHAR 00A4
ENCODING 164
SWIDTH 411 0
DWIDTH 8 0
BBX 9 8 1 3
BITMAP
1100
3F80
3F80
3300
3200
7700
FF00
6600
ENDCHAR
STARTCHAR 00A5
ENCODING 165
SWIDTH 565 0
DWIDTH 11 0
BBX 12 13 2 0
BITMAP
1070
78E0
78E0
79C0
3B80
3F80
7F80
FF80
1C00
FF80
FF80
1C00
1C00
ENDCHAR
STARTCHAR 00A6
ENCODING 166
SWIDTH 154 0
DWIDTH 3 0
BBX 7 20 0 -3
BITMAP
0C
0E
1C
1C
1C
1C
1C
18
38
00
00
00
70
70
70
70
E0
E0
E0
E0
ENDCHAR
STARTCHAR 00A7
ENCODING 167
SWIDTH 462 0
DWIDTH 9 0
BBX 9 16 2 -1
BITMAP
0F00
1F80
3F80
3900
3800
7E00
7F00
F780
E380
FF00
7F00
1E00
1E00
FE00
FC00
F800
ENDCHAR
STARTCHAR 00A8
ENCODING 168
SWIDTH 308 0
DWIDTH 6 0
BBX 6 2 3 14
BITMAP
4C
CC
ENDCHAR
STARTCHAR 00A9
ENCODING 169
SWIDTH 668 0
DWIDTH 13 0
BBX 12 12 2 1
BITMAP
07C0
3FF0
3870
6730
CF30
CC30
C830
DC30
CF60
C4C0
FF80
7F00
ENDCHAR
STARTCHAR 00AA
ENCODING 170
SWIDTH 308 0
DWIDTH 6 0
BBX 5 7 2 6
BITMAP
18
18
38
38
78
D8
90
ENDCHAR
STARTCHAR 00AB
ENCODING 171
SWIDTH 462 0
DWIDTH 9 0
BBX 10 9 1 0
BITMAP
0840
18C0
3B80
7780
C600
F700
7300
3300
1100
ENDCHAR
STARTCHAR 00AC
ENCODING 172
SWIDTH 462 0
DWIDTH 9 0
BBX 9 5 2 3
BITMAP
FF80
FF00
FF00
0700
0700
ENDCHAR
STARTCHAR 00AD
ENCODING 173
SWIDTH 360 0
DWIDTH 7 0
BBX 7 3 2 5
BITMAP
FE
FE
F8
ENDCHAR
STARTCHAR 00AE
ENCODING 174
SWIDTH 411 0
DWIDTH 8 0
BBX 9 8 2 6
BITMAP
1E00
3F00
7D00
5D80
D980
D500
C300
7E00
ENDCHAR
STARTCHAR 00AF
ENCODING 175
SWIDTH 308 0
DWIDTH 6 0
BBX 6 2 3 14
BITMAP
7C
FC
ENDCHAR
STARTCHAR 00B0
ENCODING 176
SWIDTH 308 0
DWIDTH 6 0
BBX 5 6 3 7
BITMAP
30
F8
D8
98
D8
F0
ENDCHAR
STARTCHAR 00B1
ENCODING 177
SWIDTH 462 0
DWIDTH 9 0
BBX 10 11 1 0
BITMAP
0E00
0E00
0E00
7FC0
7F80
1F80
1C00
1C00
0000
FF00
FF00
ENDCHAR
STARTCHAR 00B2
ENCODING 178
SWIDTH 257 0
DWIDTH 5 0
BBX 5 6 2 8
BITMAP
78
50
10
28
78
F0
ENDCHAR
STARTCHAR 00B3
ENCODING 179
SWIDTH 205 0
DWIDTH 4 0
BBX 4 6 2 7
BITMAP
70
20
70
10
10
F0
ENDCHAR
STARTCHAR 00B4
ENCODING 180
SWIDTH 205 0
DWIDTH 4 0
BBX 4 3 4 14
BITMAP
70
E0
C0
ENDCHAR
STARTCHAR 00B5
ENCODING 181
SWIDTH 514 0
DWIDTH 10 0
BBX 12 13 0 -2
BITMAP
3CF0
38F0
38F0
38F0
39E0
7FE0
7FE0
7FC0
7F80
6E00
E000
E000
E000
ENDCHAR
STARTCHAR 00B6
ENCODING 182
SWIDTH 360 0
DWIDTH 7 0
BBX 8 15 2 -2
BITMAP
1F
3F
7F
7B
F6
F6
F6
F6
34
6C
6C
6C
6C
78
D8
ENDCHAR
STARTCHAR 00B7
ENCODING 183
SWIDTH 205 0
DWIDTH 4 0
BBX 3 4 2 5
BITMAP
60
E0
E0
C0
ENDCHAR
STARTCHAR 00B8
ENCODING 184
SWIDTH 257 0
DWIDTH 5 0
BBX 5 4 0 -3
BITMAP
30
30
18
F8
ENDCHAR
STARTCHAR 00B9
ENCODING 185
SWIDTH 205 0
DWIDTH 4 0
BBX 3 6 3 7
BITMAP
60
E0
60
60
E0
E0
ENDCHAR
STARTCHAR 00BA
ENCODING 186
SWIDTH 257 0
DWIDTH 5 0
BBX 5 6 2 8
BITMAP
38
78
48
D8
F8
70
ENDCHAR
STARTCHAR 00BB
ENCODING 187
SWIDTH 462 0
DWIDTH 9 0
BBX 9 9 1 0
BITMAP
4000
6600
7700
7780
1180
F700
EE00
8C00
0800
ENDCHAR
STARTCHAR 00BC
ENCODING 188
SWIDTH 565 0
DWIDTH 11 0
BBX 11 13 1 1
BITMAP
1860
38E0
18C0
1980
3B00
3F00
0600
0C80
1980
31C0
7280
6080
C180
ENDCHAR
STARTCHAR 00BD
ENCODING 189
SWIDTH 565 0
DWIDTH 11 0
BBX 11 13 1 1
BITMAP
1860
38E0
18C0
1980
3B00
3F00
0780
0FC0
18C0
3080
71C0
63C0
C300
ENDCHAR
STARTCHAR 00BE
ENCODING 190
SWIDTH 565 0
DWIDTH 11 0
BBX 11 13 1 1
BITMAP
3860
10E0
38C0
0980
0B00
7F00
0600
0C80
1980
31C0
7280
6080
C180
ENDCHAR
STARTCHAR 00BF
ENCODING 191
SWIDTH 462 0
DWIDTH 9 0
BBX 9 14 0 -4
BITMAP
0380
0780
0700
0000
0700
0F00
1E00
7E00
7000
F000
F380
FF00
FF00
3C00
ENDCHAR
STARTCHAR 00C0
ENCODING 192
SWIDTH 617 0
DWIDTH 12 0
BBX 11 17 1 0
BITMAP
0300
0380
0180
0000
0180
0180
0380
07C0
07C0
0FC0
0FC0
1BC0
33C0
3FC0
7BC0
E3E0
E3E0
ENDCHAR
STARTCHAR 00C1
ENCODING 193
SWIDTH 617 0
DWIDTH 12 0
BBX 12 17 1 0
BITMAP
0030
0060
00C0
0000
0180
0180
0380
07C0
07C0
0FC0
0FC0
1BC0
33C0
3FC0
7BC0
E3E0
E3E0
ENDCHAR
STARTCHAR 00C2
ENCODING 194
SWIDTH 617 0
DWIDTH 12 0
BBX 11 17 1 0
BITMAP
00C0
01E0
0360
0000
0180
0180
0380
07C0
07C0
0FC0
0FC0
1BC0
33C0
3FC0
7BC0
E3E0
E3E0
ENDCHAR
STARTCHAR 00C3
ENCODING 195
SWIDTH 617 0
DWIDTH 12 0
BBX 12 17 1 0
BITMAP
0130
03F0
03E0
0000
0180
0180
0380
07C0
07C0
0FC0
0FC0
1BC0
33C0
3FC0
7BC0
E3E0
E3E0
ENDCHAR
STARTCHAR 00C4
ENCODING 196
SWIDTH 617 0
DWIDTH 12 0
BBX 11 16 1 0
BITMAP
0120
0360
0000
0180
0180
0380
07C0
07C0
0FC0
0FC0
1BC0
33C0
3FC0
7BC0
E3E0
E3E0
ENDCHAR
STARTCHAR 00C5
ENCODING 197
SWIDTH 617 0
DWIDTH 12 0
BBX 11 17 1 0
BITMAP
00C0
03E0
0260
0360
03C0
0180
0380
07C0
07C0
0FC0
0FC0
1BC0
33C0
3FC0
7BC0
E3E0
E3E0
ENDCHAR
STARTCHAR 00C6
ENCODING 198
SWIDTH 720 0
DWIDTH 14 0
BBX 14 13 1 0
BITMAP
01FC
01F8
03F8
07F0
07C0
0FF0
0FF0
1BC0
33F8
3FF8
73F8
E3F8
E3C0
ENDCHAR
STARTCHAR 00C7
ENCODING 199
SWIDTH 462 0
DWIDTH 9 0
BBX 11 16 1 -3
BITMAP
07C0
1FE0
3FC0
3F40
7800
7800
7800
7F80
7F80
7F80
7F80
7F00
3C00
3800
1C00
F800
ENDCHAR
STARTCHAR 00C8
ENCODING 200
SWIDTH 462 0
DWIDTH 9 0
BBX 8 17 2 0
BITMAP
38
38
18
0C
7F
7F
7E
7E
70
7C
7C
70
7F
7F
7F
FF
70
ENDCHAR
STARTCHAR 00C9
ENCODING 201
SWIDTH 462 0
DWIDTH 9 0
BBX 8 17 2 0
BITMAP
06
0C
0C
0C
7F
7F
7E
7E
70
7C
7C
70
7F
7F
7F
FF
70
ENDCHAR
STARTCHAR 00CA
ENCODING 202
SWIDTH 462 0
DWIDTH 9 0
BBX 8 17 2 0
BITMAP
0C
3E
76
0C
7F
7F
7E
7E
70
7C
7C
70
7F
7F
7F
FF
70
ENDCHAR
STARTCHAR 00CB
ENCODING 203
SWIDTH 462 0
DWIDTH 9 0
BBX 8 16 2 0
BITMAP
36
36
0C
7F
7F
7E
7E
70
7C
7C
70
7F
7F
7F
FF
70
ENDCHAR
STARTCHAR 00CC
ENCODING 204
SWIDTH 308 0
DWIDTH 6 0
BBX 8 17 1 0
BITMAP
0C
0E
06
00
1F
1E
1E
1E
3C
3C
3C
7C
78
78
78
F0
E0
ENDCHAR
STARTCHAR 00CD
ENCODING 205
SWIDTH 308 0
DWIDTH 6 0
BBX 10 17 1 0
BITMAP
01C0
0380
0700
0000
1F00
1E00
1E00
1E00
3C00
3C00
3C00
7C00
7800
7800
7800
F000
E000
ENDCHAR
STARTCHAR 00CE
ENCODING 206
SWIDTH 308 0
DWIDTH 6 0
BBX 9 17 1 0
BITMAP
0200
0F00
1D80
0000
1F00
1E00
1E00
1E00
3C00
3C00
3C00
7C00
7800
7800
7800
F000
E000
ENDCHAR
STARTCHAR 00CF
ENCODING 207
SWIDTH 308 0
DWIDTH 6 0
BBX 9 16 1 0
BITMAP
0980
0D80
0000
1F00
1E00
1E00
1E00
3C00
3C00
3C00
7C00
7800
7800
7800
F000
E000
ENDCHAR
STARTCHAR 00D0
ENCODING 208
SWIDTH 462 0
DWIDTH 9 0
BBX 9 13 2 0
BITMAP
3E00
7F00
7F00
7B80
7D80
FF80
FB00
7700
7E00
7C00
7800
7000
4000
ENDCHAR
STARTCHAR 00D1
ENCODING 209
SWIDTH 565 0
DWIDTH 11 0
BBX 13 17 0 0
BITMAP
0098
01F0
0170
0000
0F38
0F78
0F78
1F70
1F70
3FF0
3FE0
3FE0
3BE0
7BE0
7BC0
7BC0
F380
ENDCHAR
STARTCHAR 00D2
ENCODING 210
SWIDTH 514 0
DWIDTH 10 0
BBX 10 17 2 0
BITMAP
3800
3800
1800
0800
1E00
3F00
3F80
7F80
FF80
F3C0
E380
F780
FF80
FF80
FF00
FE00
7C00
ENDCHAR
STARTCHAR 00D3
ENCODING 211
SWIDTH 514 0
DWIDTH 10 0
BBX 10 17 2 0
BITMAP
0300
0700
0C00
0800
1E00
3F00
3F80
7F80
FF80
F3C0
E380
F780
FF80
FF80
FF00
FE00
7C00
ENDCHAR
STARTCHAR 00D4
ENCODING 212
SWIDTH 514 0
DWIDTH 10 0
BBX 10 17 2 0
BITMAP
0C00
1E00
3700
0800
1E00
3F00
3F80
7F80
FF80
F3C0
E380
F780
FF80
FF80
FF00
FE00
7C00
ENDCHAR
STARTCHAR 00D5
ENCODING 213
SWIDTH 514 0
DWIDTH 10 0
BBX 10 17 2 0
BITMAP
0300
3F00
3E00
0800
1E00
3F00
3F80
7F80
FF80
F3C0
E380
F780
FF80
FF80
FF00
FE00
7C00
ENDCHAR
STARTCHAR 00D6
ENCODING 214
SWIDTH 514 0
DWIDTH 10 0
BBX 10 16 2 0
BITMAP
1200
3600
0800
1E00
3F00
3F80
7F80
FF80
F3C0
E380
F780
FF80
FF80
FF00
FE00
7C00
ENDCHAR
STARTCHAR 00D7
ENCODING 215
SWIDTH 411 0
DWIDTH 8 0
BBX 9 8 1 3
BITMAP
1100
3B80
7F80
3E00
3E00
7F00
F700
6600
ENDCHAR
STARTCHAR 00D8
ENCODING 216
SWIDTH 514 0
DWIDTH 10 0
BBX 13 14 0 0
BITMAP
0238
07B8
0FF0
0FE0
1FE0
3FE0
3BF0
37E0
3EE0
3FE0
3FE0
3FC0
7F80
FF00
ENDCHAR
STARTCHAR 00D9
ENCODING 217
SWIDTH 514 0
DWIDTH 10 0
BBX 11 17 2 0
BITMAP
0E00
0600
0700
0000
38E0
38E0
70C0
71C0
F1C0
F3C0
F3C0
FF80
FF80
FF00
FE00
FC00
3800
ENDCHAR
STARTCHAR 00DA
ENCODING 218
SWIDTH 514 0
DWIDTH 10 0
BBX 11 17 2 0
BITMAP
00E0
01C0
0380
0000
38E0
38E0
70C0
71C0
F1C0
F3C0
F3C0
FF80
FF80
FF00
FE00
FC00
3800
ENDCHAR
STARTCHAR 00DB
ENCODING 219
SWIDTH 514 0
DWIDTH 10 0
BBX 11 17 2 0
BITMAP
0100
0780
0EC0
0000
38E0
38E0
70C0
71C0
F1C0
F3C0
F3C0
FF80
FF80
FF00
FE00
FC00
3800
ENDCHAR
STARTCHAR 00DC
ENCODING 220
SWIDTH 514 0
DWIDTH 10 0
BBX 11 16 2 0
BITMAP
06C0
06C0
0000
38E0
38E0
70C0
71C0
F1C0
F3C0
F3C0
FF80
FF80
FF00
FE00
FC00
3800
ENDCHAR
STARTCHAR 00DD
ENCODING 221
SWIDTH 565 0
DWIDTH 11 0
BBX 11 17 3 0
BITMAP
01C0
0380
0300
0000
20E0
F1C0
F1C0
F380
7700
7F00
7E00
3C00
3800
3800
3800
3800
3800
ENDCHAR
STARTCHAR 00DE
ENCODING 222
SWIDTH 462 0
DWIDTH 9 0
BBX 10 13 1 0
BITMAP
3800
3C00
3F80
7F80
79C0
79C0
71C0
7380
7F80
7F00
F000
F000
F000
ENDCHAR
STARTCHAR 00DF
ENCODING 223
SWIDTH 514 0
DWIDTH 10 0
BBX 11 15 1 -1
BITMAP
0400
1F80
3F80
3B80
7180
7380
7700
77C0
77C0
71E0
61C0
E3C0
E780
EF00
E000
ENDCHAR
STARTCHAR 00E0
ENCODING 224
SWIDTH 617 0
DWIDTH 12 0
BBX 11 17 1 0
BITMAP
0300
0380
0180
0000
0180
0180
0380
07C0
07C0
0FC0
0FC0
1BC0
33C0
3FC0
7BC0
E3E0
E3E0
ENDCHAR
STARTCHAR 00E1
ENCODING 225
SWIDTH 617 0
DWIDTH 12 0
BBX 12 17 1 0
BITMAP
0030
0060
00C0
0000
0180
0180
0380
07C0
07C0
0FC0
0FC0
1BC0
33C0
3FC0
7BC0
E3E0
E3E0
ENDCHAR
STARTCHAR 00E2
ENCODING 226
SWIDTH 617 0
DWIDTH 12 0
BBX 11 17 1 0
BITMAP
00C0
01E0
0360
0000
0180
0180
0380
07C0
07C0
0FC0
0FC0
1BC0
33C0
3FC0
7BC0
E3E0
E3E0
ENDCHAR
STARTCHAR 00E3
ENCODING 227
SWIDTH 617 0
DWIDTH 12 0
BBX 12 17 1 0
BITMAP
0130
03F0
03E0
0000
0180
0180
0380
07C0
07C0
0FC0
0FC0
1BC0
33C0
3FC0
7BC0
E3E0
E3E0
ENDCHAR
STARTCHAR 00E4
ENCODING 228
SWIDTH 617 0
DWIDTH 12 0
BBX 11 16 1 0
BITMAP
0120
0360
0000
0180
0180
0380
07C0
07C0
0FC0
0FC0
1BC0
33C0
3FC0
7BC0
E3E0
E3E0
ENDCHAR
STARTCHAR 00E5
ENCODING 229
SWIDTH 617 0
DWIDTH 12 0
BBX 11 17 1 0
BITMAP
00C0
03E0
0260
0360
03C0
0180
0380
07C0
07C0
0FC0
0FC0
1BC0
33C0
3FC0
7BC0
E3E0
E3E0
ENDCHAR
STARTCHAR 00E6
ENCODING 230
SWIDTH 720 0
DWIDTH 14 0
BBX 14 13 1 0
BITMAP
01FC
01F8
03F8
07F0
07C0
0FF0
0FF0
1BC0
33F8
3FF8
73F8
E3F8
E3C0
ENDCHAR
STARTCHAR 00E7
ENCODING 231
SWIDTH 462 0
DWIDTH 9 0
BBX 11 16 1 -3
BITMAP
07C0
1FE0
3FC0
3F40
7800
7800
7800
7F80
7F80
7F80
7F80
7F00
3C00
3800
1C00
F800
ENDCHAR
STARTCHAR 00E8
ENCODING 232
SWIDTH 462 0
DWIDTH 9 0
BBX 8 17 2 0
BITMAP
38
38
18
0C
7F
7F
7E
7E
70
7C
7C
70
7F
7F
7F
FF
70
ENDCHAR
STARTCHAR 00E9
ENCODING 233
SWIDTH 462 0
DWIDTH 9 0
BBX 8 17 2 0
BITMAP
06
0C
0C
0C
7F
7F
7E
7E
70
7C
7C
70
7F
7F
7F
FF
70
ENDCHAR
STARTCHAR 00EA
ENCODING 234
SWIDTH 462 0
DWIDTH 9 0
BBX 8 17 2 0
BITMAP
0C
3E
76
0C
7F
7F
7E
7E
70
7C
7C
70
7F
7F
7F
FF
70
ENDCHAR
STARTCHAR 00EB
ENCODING 235
SWIDTH 462 0
DWIDTH 9 0
BBX 8 16 2 0
BITMAP
36
36
0C
7F
7F
7E
7E
70
7C
7C
70
7F
7F
7F
FF
70
ENDCHAR
STARTCHAR 00EC
ENCODING 236
SWIDTH 308 0
DWIDTH 6 0
BBX 8 17 1 0
BITMAP
0C
0E
06
00
1F
1E
1E
1E
3C
3C
3C
7C
78
78
78
F0
E0
ENDCHAR
STARTCHAR 00ED
ENCODING 237
SWIDTH 308 0
DWIDTH 6 0
BBX 10 17 1 0
BITMAP
01C0
0380
0700
0000
1F00
1E00
1E00
1E00
3C00
3C00
3C00
7C00
7800
7800
7800
F000
E000
ENDCHAR
STARTCHAR 00EE
ENCODING 238
SWIDTH 308 0
DWIDTH 6 0
BBX 9 17 1 0
BITMAP
0200
0F00
1D80
0000
1F00
1E00
1E00
1E00
3C00
3C00
3C00
7C00
7800
7800
7800
F000
E000
ENDCHAR
STARTCHAR 00EF
ENCODING 239
SWIDTH 308 0
DWIDTH 6 0
BBX 9 16 1 0
BITMAP
0980
0D80
0000
1F00
1E00
1E00
1E00
3C00
3C00
3C00
7C00
7800
7800
7800
F000
E000
ENDCHAR
STARTCHAR 00F0
ENCODING 240
SWIDTH 462 0
DWIDTH 9 0
BBX 9 13 2 0
BITMAP
3E00
7F00
7F00
7B80
7D80
FF80
FB00
7700
7E00
7C00
7800
7000
4000
ENDCHAR
STARTCHAR 00F1
ENCODING 241
SWIDTH 565 0
DWIDTH 11 0
BBX 13 17 0 0
BITMAP
0098
01F0
0170
0000
0F38
0F78
0F78
1F70
1F70
3FF0
3FE0
3FE0
3BE0
7BE0
7BC0
7BC0
F380
ENDCHAR
STARTCHAR 00F2
ENCODING 242
SWIDTH 514 0
DWIDTH 10 0
BBX 10 17 2 0
BITMAP
3800
3800
1800
0800
1E00
3F00
3F80
7F80
FF80
F3C0
E380
F780
FF80
FF80
FF00
FE00
7C00
ENDCHAR
STARTCHAR 00F3
ENCODING 243
SWIDTH 514 0
DWIDTH 10 0
BBX 10 17 2 0
BITMAP
0300
0700
0C00
0800
1E00
3F00
3F80
7F80
FF80
F3C0
E380
F780
FF80
FF80
FF00
FE00
7C00
ENDCHAR
STARTCHAR 00F4
ENCODING 244
SWIDTH 514 0
DWIDTH 10 0
BBX 10 17 2 0
BITMAP
0C00
1E00
3700
0800
1E00
3F00
3F80
7F80
FF80
F3C0
E380
F780
FF80
FF80
FF00
FE00
7C00
ENDCHAR
STARTCHAR 00F5
ENCODING 245
SWIDTH 514 0
DWIDTH 10 0
BBX 10 17 2 0
BITMAP
0300
3F00
3E00
0800
1E00
3F00
3F80
7F80
FF80
F3C0
E380
F780
FF80
FF80
FF00
FE00
7C00
ENDCHAR
STARTCHAR 00F6
ENCODING 246
SWIDTH 514 0
DWIDTH 10 0
BBX 10 16 2 0
BITMAP
1200
3600
0800
1E00
3F00
3F80
7F80
FF80
F3C0
E380
F780
FF80
FF80
FF00
FE00
7C00
ENDCHAR
STARTCHAR 00F7
ENCODING 247
SWIDTH 462 0
DWIDTH 9 0
BBX 9 10 2 2
BITMAP
0C00
1C00
1C00
0000
FF80
FF00
8000
1800
3800
3000
ENDCHAR
STARTCHAR 00F8
ENCODING 248
SWIDTH 514 0
DWIDTH 10 0
BBX 13 14 0 0
BITMAP
0238
07B8
0FF0
0FE0
1FE0
3FE0
3BF0
37E0
3EE0
3FE0
3FE0
3FC0
7F80
FF00
ENDCHAR
STARTCHAR 00F9
ENCODING 249
SWIDTH 514 0
DWIDTH 10 0
BBX 11 17 2 0
BITMAP
0E00
0600
0700
0000
38E0
38E0
70C0
71C0
F1C0
F3C0
F3C0
FF80
FF80
FF00
FE00
FC00
3800
ENDCHAR
STARTCHAR 00FA
ENCODING 250
SWIDTH 514 0
DWIDTH 10 0
BBX 11 17 2 0
BITMAP
00E0
01C0
0380
0000
38E0
38E0
70C0
71C0
F1C0
F3C0
F3C0
FF80
FF80
FF00
FE00
FC00
3800
ENDCHAR
STARTCHAR 00FB
ENCODING 251
SWIDTH 514 0
DWIDTH 10 0
BBX 11 17 2 0
BITMAP
0100
0780
0EC0
0000
38E0
38E0
70C0
71C0
F1C0
F3C0
F3C0
FF80
FF80
FF00
FE00
FC00
3800
ENDCHAR
STARTCHAR 00FC
ENCODING 252
SWIDTH 514 0
DWIDTH 10 0
BBX 11 16 2 0
BITMAP
06C0
06C0
0000
38E0
38E0
70C0
71C0
F1C0
F3C0
F3C0
FF80
FF80
FF00
FE00
FC00
3800
ENDCHAR
STARTCHAR 00FD
ENCODING 253
SWIDTH 565 0
DWIDTH 11 0
BBX 11 17 3 0
BITMAP
01C0
0380
0300
0000
20E0
F1C0
F1C0
F380
7700
7F00
7E00
3C00
3800
3800
3800
3800
3800
ENDCHAR
STARTCHAR 00FE
ENCODING 254
SWIDTH 462 0
DWIDTH 9 0
BBX 10 13 1 0
BITMAP
3800
3C00
3F80
7F80
79C0
79C0
71C0
7380
7F80
7F00
F000
F000
F000
ENDCHAR
STARTCHAR 00FF
ENCODING 255
SWIDTH 565 0
DWIDTH 11 0
BBX 11 16 3 0
BITMAP
0980
1D80
0000
20E0
F1C0
F1C0
F380
7700
7F00
7E00
3C00
3800
3800
3800
3800
3800
ENDCHAR
STARTCHAR 0100
ENCODING 256
SWIDTH 617 0
DWIDTH 12 0
BBX 12 16 1 0
BITMAP
03F0
03F0
0000
0180
0180
0380
07C0
07C0
0FC0
0FC0
1BC0
33C0
3FC0
7BC0
E3E0
E3E0
ENDCHAR
STARTCHAR 0101
ENCODING 257
SWIDTH 617 0
DWIDTH 12 0
BBX 12 16 1 0
BITMAP
03F0
03F0
0000
0180
0180
0380
07C0
07C0
0FC0
0FC0
1BC0
33C0
3FC0
7BC0
E3E0
E3E0
ENDCHAR
STARTCHAR 0102
ENCODING 258
SWIDTH 617 0
DWIDTH 12 0
BBX 12 17 1 0
BITMAP
0330
03E0
01C0
0000
0180
0180
0380
07C0
07C0
0FC0
0FC0
1BC0
33C0
3FC0
7BC0
E3E0
E3E0
ENDCHAR
STARTCHAR 0103
ENCODING 259
SWIDTH 617 0
DWIDTH 12 0
BBX 12 17 1 0
BITMAP
0330
03E0
01C0
0000
0180
0180
0380
07C0
07C0
0FC0
0FC0
1BC0
33C0
3FC0
7BC0
E3E0
E3E0
ENDCHAR
STARTCHAR 0104
ENCODING 260
SWIDTH 617 0
DWIDTH 12 0
BBX 11 16 1 -3
BITMAP
0180
0180
0380
07C0
07C0
0FC0
0FC0
1BC0
33C0
3FC0
7BC0
E3E0
E3E0
0600
0640
07C0
ENDCHAR
STARTCHAR 0105
ENCODING 261
SWIDTH 617 0
DWIDTH 12 0
BBX 11 16 1 -3
BITMAP
0180
0180
0380
07C0
07C0
0FC0
0FC0
1BC0
33C0
3FC0
7BC0
E3E0
E3E0
0600
0640
07C0
ENDCHAR
STARTCHAR 0106
ENCODING 262
SWIDTH 462 0
DWIDTH 9 0
BBX 10 17 2 0
BITMAP
00C0
01C0
0300
0000
0F80
3FC0
7F80
7E80
F000
F000
F000
FF00
FF00
FF00
FF00
FE00
3800
ENDCHAR
STARTCHAR 0107
ENCODING 263
SWIDTH 462 0
DWIDTH 9 0
BBX 10 17 2 0
BITMAP
00C0
01C0
0300
0000
0F80
3FC0
7F80
7E80
F000
F000
F000
FF00
FF00
FF00
FF00
FE00
3800
ENDCHAR
STARTCHAR 0108
ENCODING 264
SWIDTH 462 0
DWIDTH 9 0
BBX 10 17 2 0
BITMAP
0100
0780
0FC0
0000
0F80
3FC0
7F80
7E80
F000
F000
F000
FF00
FF00
FF00
FF00
FE00
3800
ENDCHAR
STARTCHAR 0109
ENCODING 265
SWIDTH 462 0
DWIDTH 9 0
BBX 10 17 2 0
BITMAP
0100
0780
0FC0
0000
0F80
3FC0
7F80
7E80
F000
F000
F000
FF00
FF00
FF00
FF00
FE00
3800
ENDCHAR
STARTCHAR 010A
ENCODING 266
SWIDTH 462 0
DWIDTH 9 0
BBX 10 16 2 0
BITMAP
0300
0300
0000
0F80
3FC0
7F80
7E80
F000
F000
F000
FF00
FF00
FF00
FF00
FE00
3800
ENDCHAR
STARTCHAR 010B
ENCODING 267
SWIDTH 462 0
DWIDTH 9 0
BBX 10 16 2 0
BITMAP
0300
0300
0000
0F80
3FC0
7F80
7E80
F000
F000
F000
FF00
FF00
FF00
FF00
FE00
3800
ENDCHAR
STARTCHAR 010C
ENCODING 268
SWIDTH 462 0
DWIDTH 9 0
BBX 10 17 2 0
BITMAP
04C0
07C0
0700
0000
0F80
3FC0
7F80
7E80
F000
F000
F000
FF00
FF00
FF00
FF00
FE00
3800
ENDCHAR
STARTCHAR 010D
ENCODING 269
SWIDTH 462 0
DWIDTH 9 0
BBX 10 17 2 0
BITMAP
04C0
07C0
0700
0000
0F80
3FC0
7F80
7E80
F000
F000
F000
FF00
FF00
FF00
FF00
FE00
3800
ENDCHAR
STARTCHAR 010E
ENCODING 270
SWIDTH 462 0
DWIDTH 9 0
BBX 8 17 2 0
BITMAP
37
3E
1C
00
7C
7E
7F
F7
F3
F3
E7
EE
FC
FC
F8
F0
80
ENDCHAR
STARTCHAR 010F
ENCODING 271
SWIDTH 462 0
DWIDTH 9 0
BBX 8 17 2 0
BITMAP
37
3E
1C
00
7C
7E
7F
F7
F3
F3
E7
EE
FC
FC
F8
F0
80
ENDCHAR
STARTCHAR 0110
ENCODING 272
SWIDTH 462 0
DWIDTH 9 0
BBX 9 13 2 0
BITMAP
3E00
7F00
7F00
7B80
7D80
FF80
FB00
7700
7E00
7C00
7800
7000
4000
ENDCHAR
STARTCHAR 0111
ENCODING 273
SWIDTH 462 0
DWIDTH 9 0
BBX 9 13 2 0
BITMAP
3E00
7F00
7F00
7B80
7D80
FF80
FB00
7700
7E00
7C00
7800
7000
4000
ENDCHAR
STARTCHAR 0112
ENCODING 274
SWIDTH 462 0
DWIDTH 9 0
BBX 8 16 2 0
BITMAP
1E
7E
0C
7F
7F
7E
7E
70
7C
7C
70
7F
7F
7F
FF
70
ENDCHAR
STARTCHAR 0113
ENCODING 275
SWIDTH 462 0
DWIDTH 9 0
BBX 8 16 2 0
BITMAP
1E
7E
0C
7F
7F
7E
7E
70
7C
7C
70
7F
7F
7F
FF
70
ENDCHAR
STARTCHAR 0114
ENCODING 276
SWIDTH 462 0
DWIDTH 9 0
BBX 8 17 2 0
BITMAP
23
3E
3C
0C
7F
7F
7E
7E
70
7C
7C
70
7F
7F
7F
FF
70
ENDCHAR
STARTCHAR 0115
ENCODING 277
SWIDTH 462 0
DWIDTH 9 0
BBX 8 17 2 0
BITMAP
23
3E
3C
0C
7F
7F
7E
7E
70
7C
7C
70
7F
7F
7F
FF
70
ENDCHAR
STARTCHAR 0116
ENCODING 278
SWIDTH 462 0
DWIDTH 9 0
BBX 8 16 2 0
BITMAP
08
18
0C
7F
7F
7E
7E
70
7C
7C
70
7F
7F
7F
FF
70
ENDCHAR
STARTCHAR 0117
ENCODING 279
SWIDTH 462 0
DWIDTH 9 0
BBX 8 16 2 0
BITMAP
08
18
0C
7F
7F
7E
7E
70
7C
7C
70
7F
7F
7F
FF
70
ENDCHAR
STARTCHAR 0118
ENCODING 280
SWIDTH 462 0
DWIDTH 9 0
BBX 8 17 2 -3
BITMAP
0C
7F
7F
7E
7E
70
7C
7C
70
7F
7F
7F
FF
70
30
3E
3C
ENDCHAR
STARTCHAR 0119
ENCODING 281
SWIDTH 462 0
DWIDTH 9 0
BBX 8 17 2 -3
BITMAP
0C
7F
7F
7E
7E
70
7C
7C
70
7F
7F
7F
FF
70
30
3E
3C
ENDCHAR
STARTCHAR 011A
ENCODING 282
SWIDTH 462 0
DWIDTH 9 0
BBX 8 17 2 0
BITMAP
37
3E
1C
0C
7F
7F
7E
7E
70
7C
7C
70
7F
7F
7F
FF
70
ENDCHAR
STARTCHAR 011B
ENCODING 283
SWIDTH 462 0
DWIDTH 9 0
BBX 8 17 2 0
BITMAP
37
3E
1C
0C
7F
7F
7E
7E
70
7C
7C
70
7F
7F
7F
FF
70
ENDCHAR
STARTCHAR 011C
ENCODING 284
SWIDTH 462 0
DWIDTH 9 0
BBX 11 17 1 0
BITMAP
0180
03C0
0EC0
0000
07C0
0FE0
1FC0
3800
3000
71C0
73C0
73C0
F780
FF80
FF00
FE00
7000
ENDCHAR
STARTCHAR 011D
ENCODING 285
SWIDTH 462 0
DWIDTH 9 0
BBX 11 17 1 0
BITMAP
0180
03C0
0EC0
0000
07C0
0FE0
1FC0
3800
3000
71C0
73C0
73C0
F780
FF80
FF00
FE00
7000
ENDCHAR
STARTCHAR 011E
ENCODING 286
SWIDTH 462 0
DWIDTH 9 0
BBX 11 17 1 0
BITMAP
0460
07C0
0780
0000
07C0
0FE0
1FC0
3800
3000
71C0
73C0
73C0
F780
FF80
FF00
FE00
7000
ENDCHAR
STARTCHAR 011F
ENCODING 287
SWIDTH 462 0
DWIDTH 9 0
BBX 11 17 1 0
BITMAP
0460
07C0
0780
0000
07C0
0FE0
1FC0
3800
3000
71C0
73C0
73C0
F780
FF80
FF00
FE00
7000
ENDCHAR
STARTCHAR 0120
ENCODING 288
SWIDTH 462 0
DWIDTH 9 0
BBX 11 16 1 0
BITMAP
0100
0300
0000
07C0
0FE0
1FC0
3800
3000
71C0
73C0
73C0
F780
FF80
FF00
FE00
7000
ENDCHAR
STARTCHAR 0121
ENCODING 289
SWIDTH 462 0
DWIDTH 9 0
BBX 11 16 1 0
BITMAP
0100
0300
0000
07C0
0FE0
1FC0
3800
3000
71C0
73C0
73C0
F780
FF80
FF00
FE00
7000
ENDCHAR
STARTCHAR 0122
ENCODING 290
SWIDTH 462 0
DWIDTH 9 0
BBX 11 16 1 -3
BITMAP
07C0
0FE0
1FC0
3800
3000
71C0
73C0
73C0
F780
FF80
FF00
FE00
7000
7000
7000
6000
ENDCHAR
STARTCHAR 0123
ENCODING 291
SWIDTH 462 0
DWIDTH 9 0
BBX 11 16 1 -3
BITMAP
07C0
0FE0
1FC0
3800
3000
71C0
73C0
73C0
F780
FF80
FF00
FE00
7000
7000
7000
6000
ENDCHAR
STARTCHAR 0124
ENCODING 292
SWIDTH 514 0
DWIDTH 10 0
BBX 12 17 1 0
BITMAP
0040
01E0
03B0
0000
1E70
1E70
1EF0
1CE0
3CE0
3FE0
3FE0
7FE0
7FC0
7BC0
FBC0
F380
F600
ENDCHAR
STARTCHAR 0125
ENCODING 293
SWIDTH 514 0
DWIDTH 10 0
BBX 12 17 1 0
BITMAP
0040
01E0
03B0
0000
1E70
1E70
1EF0
1CE0
3CE0
3FE0
3FE0
7FE0
7FC0
7BC0
FBC0
F380
F600
ENDCHAR
STARTCHAR 0126
ENCODING 294
SWIDTH 565 0
DWIDTH 11 0
BBX 13 13 1 0
BITMAP
1E70
3FF8
3FF0
7FF0
3CE0
3FE0
3FE0
7FE0
7FC0
7BC0
FBC0
F380
F600
ENDCHAR
STARTCHAR 0127
ENCODING 295
SWIDTH 565 0
DWIDTH 11 0
BBX 13 13 1 0
BITMAP
1E70
3FF8
3FF0
7FF0
3CE0
3FE0
3FE0
7FE0
7FC0
7BC0
FBC0
F380
F600
ENDCHAR
STARTCHAR 0128
ENCODING 296
SWIDTH 308 0
DWIDTH 6 0
BBX 10 17 1 0
BITMAP
04C0
0F80
1F80
0000
1F00
1E00
1E00
1E00
3C00
3C00
3C00
7C00
7800
7800
7800
F000
E000
ENDCHAR
STARTCHAR 0129
ENCODING 297
SWIDTH 308 0
DWIDTH 6 0
BBX 10 17 1 0
BITMAP
04C0
0F80
1F80
0000
1F00
1E00
1E00
1E00
3C00
3C00
3C00
7C00
7800
7800
7800
F000
E000
ENDCHAR
STARTCHAR 012A
ENCODING 298
SWIDTH 308 0
DWIDTH 6 0
BBX 9 16 1 0
BITMAP
0F80
1F80
0000
1F00
1E00
1E00
1E00
3C00
3C00
3C00
7C00
7800
7800
7800
F000
E000
ENDCHAR
STARTCHAR 012B
ENCODING 299
SWIDTH 308 0
DWIDTH 6 0
BBX 9 16 1 0
BITMAP
0F80
1F80
0000
1F00
1E00
1E00
1E00
3C00
3C00
3C00
7C00
7800
7800
7800
F000
E000
ENDCHAR
STARTCHAR 012C
ENCODING 300
SWIDTH 308 0
DWIDTH 6 0
BBX 10 17 1 0
BITMAP
08C0
0F80
0F00
0000
1F00
1E00
1E00
1E00
3C00
3C00
3C00
7C00
7800
7800
7800
F000
E000
ENDCHAR
STARTCHAR 012D
ENCODING 301
SWIDTH 308 0
DWIDTH 6 0
BBX 10 17 1 0
BITMAP
08C0
0F80
0F00
0000
1F00
1E00
1E00
1E00
3C00
3C00
3C00
7C00
7800
7800
7800
F000
E000
ENDCHAR
STARTCHAR 012E
ENCODING 302
SWIDTH 308 0
DWIDTH 6 0
BBX 8 16 1 -3
BITMAP
1F
1E
1E
1E
3C
3C
3C
7C
78
78
78
F0
E0
C0
C8
F8
ENDCHAR
STARTCHAR 012F
ENCODING 303
SWIDTH 308 0
DWIDTH 6 0
BBX 8 16 1 -3
BITMAP
1F
1E
1E
1E
3C
3C
3C
7C
78
78
78
F0
E0
C0
C8
F8
ENDCHAR
STARTCHAR 0130
ENCODING 304
SWIDTH 308 0
DWIDTH 6 0
BBX 8 16 1 0
BITMAP
02
06
00
1F
1E
1E
1E
3C
3C
3C
7C
78
78
78
F0
E0
ENDCHAR
STARTCHAR 0131
ENCODING 305
SWIDTH 308 0
DWIDTH 6 0
BBX 8 16 1 0
BITMAP
02
06
00
1F
1E
1E
1E
3C
3C
3C
7C
78
78
78
F0
E0
ENDCHAR
STARTCHAR 0132
ENCODING 306
SWIDTH 565 0
DWIDTH 11 0
BBX 13 13 1 0
BITMAP
1E38
1C78
1C78
3CF0
38F0
38F0
78F0
78F0
70E0
76E0
FFC0
E7C0
E780
ENDCHAR
STARTCHAR 0133
ENCODING 307
SWIDTH 565 0
DWIDTH 11 0
BBX 13 13 1 0
BITMAP
1E38
1C78
1C78
3CF0
38F0
38F0
78F0
78F0
70E0
76E0
FFC0
E7C0
E780
ENDCHAR
STARTCHAR 0134
ENCODING 308
SWIDTH 411 0
DWIDTH 8 0
BBX 11 17 1 0
BITMAP
0080
03E0
0760
0000
03C0
07C0
07C0
0780
0F80
0F80
0F80
0F80
0F00
EF00
FE00
FE00
7800
ENDCHAR
STARTCHAR 0135
ENCODING 309
SWIDTH 411 0
DWIDTH 8 0
BBX 11 17 1 0
BITMAP
0080
03E0
0760
0000
03C0
07C0
07C0
0780
0F80
0F80
0F80
0F80
0F00
EF00
FE00
FE00
7800
ENDCHAR
STARTCHAR 0136
ENCODING 310
SWIDTH 514 0
DWIDTH 10 0
BBX 13 16 0 -3
BITMAP
1F30
1F78
1FF0
1FE0
3FC0
3F80
3F00
3F80
7F80
7DC0
7DC0
7DE0
F880
0E00
0E00
0C00
ENDCHAR
STARTCHAR 0137
ENCODING 311
SWIDTH 514 0
DWIDTH 10 0
BBX 13 16 0 -3
BITMAP
1F30
1F78
1FF0
1FE0
3FC0
3F80
3F00
3F80
7F80
7DC0
7DC0
7DE0
F880
0E00
0E00
0C00
ENDCHAR
STARTCHAR 0138
ENCODING 312
SWIDTH 514 0
DWIDTH 10 0
BBX 11 11 1 0
BITMAP
0040
3CC0
7DE0
7F80
7F00
7E00
FE00
FF00
FF00
F380
F300
ENDCHAR
STARTCHAR 0139
ENCODING 313
SWIDTH 514 0
DWIDTH 10 0
BBX 10 17 1 0
BITMAP
00C0
01C0
0300
0000
0F80
1F00
1F00
1F00
1E00
3E00
3C00
7C00
7C00
7F80
FF80
FF80
FE00
ENDCHAR
STARTCHAR 013A
ENCODING 314
SWIDTH 514 0
DWIDTH 10 0
BBX 10 17 1 0
BITMAP
00C0
01C0
0300
0000
0F80
1F00
1F00
1F00
1E00
3E00
3C00
7C00
7C00
7F80
FF80
FF80
FE00
ENDCHAR
STARTCHAR 013B
ENCODING 315
SWIDTH 514 0
DWIDTH 10 0
BBX 9 16 1 -3
BITMAP
0F80
1F00
1F00
1F00
1E00
3E00
3C00
7C00
7C00
7F80
FF80
FF80
FE00
3800
3800
3000
ENDCHAR
STARTCHAR 013C
ENCODING 316
SWIDTH 514 0
DWIDTH 10 0
BBX 9 16 1 -3
BITMAP
0F80
1F00
1F00
1F00
1E00
3E00
3C00
7C00
7C00
7F80
FF80
FF80
FE00
3800
3800
3000
ENDCHAR
STARTCHAR 013D
ENCODING 317
SWIDTH 514 0
DWIDTH 10 0
BBX 11 14 1 0
BITMAP
0020
0FE0
1F60
1F40
1F40
1E00
3E00
3C00
7C00
7C00
7F80
FF80
FF80
FE00
ENDCHAR
STARTCHAR 013E
ENCODING 318
SWIDTH 514 0
DWIDTH 10 0
BBX 11 14 1 0
BITMAP
0020
0FE0
1F60
1F40
1F40
1E00
3E00
3C00
7C00
7C00
7F80
FF80
FF80
FE00
ENDCHAR
STARTCHAR 013F
ENCODING 319
SWIDTH 514 0
DWIDTH 10 0
BBX 9 13 1 0
BITMAP
0F80
1F00
1F00
1F00
1E00
3E80
3D80
7C00
7C00
7F80
FF80
FF80
FE00
ENDCHAR
STARTCHAR 0140
ENCODING 320
SWIDTH 514 0
DWIDTH 10 0
BBX 9 13 1 0
BITMAP
0F80
1F00
1F00
1F00
1E00
3E80
3D80
7C00
7C00
7F80
FF80
FF80
FE00
ENDCHAR
STARTCHAR 0141
ENCODING 321
SWIDTH 514 0
DWIDTH 10 0
BBX 11 13 1 0
BITMAP
0F80
0F80
0FE0
1FE0
1FC0
1F80
3E00
7E00
FC00
FFC0
FFC0
7F80
FF00
ENDCHAR
STARTCHAR 0142
ENCODING 322
SWIDTH 514 0
DWIDTH 10 0
BBX 11 13 1 0
BITMAP
0F80
0F80
0FE0
1FE0
1FC0
1F80
3E00
7E00
FC00
FFC0
FFC0
7F80
FF00
ENDCHAR
STARTCHAR 0143
ENCODING 323
SWIDTH 565 0
DWIDTH 11 0
BBX 13 17 0 0
BITMAP
0038
0030
0060
0000
0F38
0F78
0F78
1F70
1F70
3FF0
3FE0
3FE0
3BE0
7BE0
7BC0
7BC0
F380
ENDCHAR
STARTCHAR 0144
ENCODING 324
SWIDTH 565 0
DWIDTH 11 0
BBX 13 17 0 0
BITMAP
0038
0030
0060
0000
0F38
0F78
0F78
1F70
1F70
3FF0
3FE0
3FE0
3BE0
7BE0
7BC0
7BC0
F380
ENDCHAR
STARTCHAR 0145
ENCODING 325
SWIDTH 565 0
DWIDTH 11 0
BBX 13 16 0 -3
BITMAP
0F38
0F78
0F78
1F70
1F70
3FF0
3FE0
3FE0
3BE0
7BE0
7BC0
7BC0
F380
1C00
1C00
1800
ENDCHAR
STARTCHAR 0146
ENCODING 326
SWIDTH 565 0
DWIDTH 11 0
BBX 13 16 0 -3
BITMAP
0F38
0F78
0F78
1F70
1F70
3FF0
3FE0
3FE0
3BE0
7BE0
7BC0
7BC0
F380
1C00
1C00
1800
ENDCHAR
STARTCHAR 0147
ENCODING 327
SWIDTH 565 0
DWIDTH 11 0
BBX 13 17 0 0
BITMAP
0080
01F0
00E0
0000
0F38
0F78
0F78
1F70
1F70
3FF0
3FE0
3FE0
3BE0
7BE0
7BC0
7BC0
F380
ENDCHAR
STARTCHAR 0148
ENCODING 328
SWIDTH 565 0
DWIDTH 11 0
BBX 13 17 0 0
BITMAP
0080
01F0
00E0
0000
0F38
0F78
0F78
1F70
1F70
3FF0
3FE0
3FE0
3BE0
7BE0
7BC0
7BC0
F380
ENDCHAR
STARTCHAR 0149
ENCODING 329
SWIDTH 617 0
DWIDTH 12 0
BBX 13 14 2 0
BITMAP
3000
7738
7F70
6F70
FF70
DFF0
5FE0
1FE0
3FE0
3BC0
3BC0
7BC0
7BC0
7380
ENDCHAR
STARTCHAR 014A
ENCODING 330
SWIDTH 514 0
DWIDTH 10 0
BBX 11 16 1 -2
BITMAP
1800
3FC0
3FC0
3FE0
7FE0
79E0
71E0
71E0
71C0
E1C0
E1C0
E180
E380
C780
1F00
1E00
ENDCHAR
STARTCHAR 014B
ENCODING 331
SWIDTH 514 0
DWIDTH 10 0
BBX 11 16 1 -2
BITMAP
1800
3FC0
3FC0
3FE0
7FE0
79E0
71E0
71E0
71C0
E1C0
E1C0
E180
E380
C780
1F00
1E00
ENDCHAR
STARTCHAR 014C
ENCODING 332
SWIDTH 514 0
DWIDTH 10 0
BBX 10 16 2 0
BITMAP
3F00
3F00
0800
1E00
3F00
3F80
7F80
FF80
F3C0
E380
F780
FF80
FF80
FF00
FE00
7C00
ENDCHAR
STARTCHAR 014D
ENCODING 333
SWIDTH 514 0
DWIDTH 10 0
BBX 10 16 2 0
BITMAP
3F00
3F00
0800
1E00
3F00
3F80
7F80
FF80
F3C0
E380
F780
FF80
FF80
FF00
FE00
7C00
ENDCHAR
STARTCHAR 014E
ENCODING 334
SWIDTH 514 0
DWIDTH 10 0
BBX 10 17 2 0
BITMAP
3300
3F00
1E00
0800
1E00
3F00
3F80
7F80
FF80
F3C0
E380
F780
FF80
FF80
FF00
FE00
7C00
ENDCHAR
STARTCHAR 014F
ENCODING 335
SWIDTH 514 0
DWIDTH 10 0
BBX 10 17 2 0
BITMAP
3300
3F00
1E00
0800
1E00
3F00
3F80
7F80
FF80
F3C0
E380
F780
FF80
FF80
FF00
FE00
7C00
ENDCHAR
STARTCHAR 0150
ENCODING 336
SWIDTH 514 0
DWIDTH 10 0
BBX 10 17 2 0
BITMAP
0FC0
1D80
3B00
0800
1E00
3F00
3F80
7F80
FF80
F3C0
E380
F780
FF80
FF80
FF00
FE00
7C00
ENDCHAR
STARTCHAR 0151
ENCODING 337
SWIDTH 514 0
DWIDTH 10 0
BBX 10 17 2 0
BITMAP
0FC0
1D80
3B00
0800
1E00
3F00
3F80
7F80
FF80
F3C0
E380
F780
FF80
FF80
FF00
FE00
7C00
ENDCHAR
STARTCHAR 0152
ENCODING 338
SWIDTH 720 0
DWIDTH 14 0
BBX 14 13 1 0
BITMAP
03FC
0FF8
1FF8
3FF0
3FC0
79F0
71F0
F3C0
FFF8
FFF8
FFF8
7FF8
7FC0
ENDCHAR
STARTCHAR 0153
ENCODING 339
SWIDTH 720 0
DWIDTH 14 0
BBX 14 13 1 0
BITMAP
03FC
0FF8
1FF8
3FF0
3FC0
79F0
71F0
F3C0
FFF8
FFF8
FFF8
7FF8
7FC0
ENDCHAR
STARTCHAR 0154
ENCODING 340
SWIDTH 565 0
DWIDTH 11 0
BBX 11 17 1 0
BITMAP
0380
0700
0E00
0000
1F80
3FC0
3CC0
7CE0
7CC0
7FC0
7F00
7F00
7B80
7B80
FBC0
F9C0
F9C0
ENDCHAR
STARTCHAR 0155
ENCODING 341
SWIDTH 565 0
DWIDTH 11 0
BBX 11 17 1 0
BITMAP
0380
0700
0E00
0000
1F80
3FC0
3CC0
7CE0
7CC0
7FC0
7F00
7F00
7B80
7B80
FBC0
F9C0
F9C0
ENDCHAR
STARTCHAR 0156
ENCODING 342
SWIDTH 565 0
DWIDTH 11 0
BBX 11 16 1 -3
BITMAP
1F80
3FC0
3CC0
7CE0
7CC0
7FC0
7F00
7F00
7B80
7B80
FBC0
F9C0
F9C0
0E00
0C00
1C00
ENDCHAR
STARTCHAR 0157
ENCODING 343
SWIDTH 565 0
DWIDTH 11 0
BBX 11 16 1 -3
BITMAP
1F80
3FC0
3CC0
7CE0
7CC0
7FC0
7F00
7F00
7B80
7B80
FBC0
F9C0
F9C0
0E00
0C00
1C00
ENDCHAR
STARTCHAR 0158
ENCODING 344
SWIDTH 565 0
DWIDTH 11 0
BBX 11 17 1 0
BITMAP
0180
1F00
0E00
0000
1F80
3FC0
3CC0
7CE0
7CC0
7FC0
7F00
7F00
7B80
7B80
FBC0
F9C0
F9C0
ENDCHAR
STARTCHAR 0159
ENCODING 345
SWIDTH 565 0
DWIDTH 11 0
BBX 11 17 1 0
BITMAP
0180
1F00
0E00
0000
1F80
3FC0
3CC0
7CE0
7CC0
7FC0
7F00
7F00
7B80
7B80
FBC0
F9C0
F9C0
ENDCHAR
STARTCHAR 015A
ENCODING 346
SWIDTH 462 0
DWIDTH 9 0
BBX 11 17 1 0
BITMAP
00E0
01C0
0180
0000
0FE0
1FC0
1FC0
3F80
3B00
3C00
3F00
0F80
0380
D780
FF00
FF00
7C00
ENDCHAR
STARTCHAR 015B
ENCODING 347
SWIDTH 462 0
DWIDTH 9 0
BBX 11 17 1 0
BITMAP
00E0
01C0
0180
0000
0FE0
1FC0
1FC0
3F80
3B00
3C00
3F00
0F80
0380
D780
FF00
FF00
7C00
ENDCHAR
STARTCHAR 015C
ENCODING 348
SWIDTH 462 0
DWIDTH 9 0
BBX 11 17 1 0
BITMAP
0180
03C0
06E0
0000
0FE0
1FC0
1FC0
3F80
3B00
3C00
3F00
0F80
0380
D780
FF00
FF00
7C00
ENDCHAR
STARTCHAR 015D
ENCODING 349
SWIDTH 462 0
DWIDTH 9 0
BBX 11 17 1 0
BITMAP
0180
03C0
06E0
0000
0FE0
1FC0
1FC0
3F80
3B00
3C00
3F00
0F80
0380
D780
FF00
FF00
7C00
ENDCHAR
STARTCHAR 015E
ENCODING 350
SWIDTH 462 0
DWIDTH 9 0
BBX 11 16 1 -3
BITMAP
0FE0
1FC0
1FC0
3F80
3B00
3C00
3F00
0F80
0380
D780
FF00
FF00
7C00
3800
1C00
F800
ENDCHAR
STARTCHAR 015F
ENCODING 351
SWIDTH 462 0
DWIDTH 9 0
BBX 11 16 1 -3
BITMAP
0FE0
1FC0
1FC0
3F80
3B00
3C00
3F00
0F80
0380
D780
FF00
FF00
7C00
3800
1C00
F800
ENDCHAR
STARTCHAR 0160
ENCODING 352
SWIDTH 462 0
DWIDTH 9 0
BBX 11 17 1 0
BITMAP
0660
07C0
0380
0000
0FE0
1FC0
1FC0
3F80
3B00
3C00
3F00
0F80
0380
D780
FF00
FF00
7C00
ENDCHAR
STARTCHAR 0161
ENCODING 353
SWIDTH 462 0
DWIDTH 9 0
BBX 11 17 1 0
BITMAP
0660
07C0
0380
0000
0FE0
1FC0
1FC0
3F80
3B00
3C00
3F00
0F80
0380
D780
FF00
FF00
7C00
ENDCHAR
STARTCHAR 0162
ENCODING 354
SWIDTH 565 0
DWIDTH 11 0
BBX 11 16 2 -3
BITMAP
7FE0
7FE0
7FE0
FFA0
8E00
0E00
0E00
1C00
1C00
1C00
1C00
1800
3800
1800
0C00
7C00
ENDCHAR
STARTCHAR 0163
ENCODING 355
SWIDTH 565 0
DWIDTH 11 0
BBX 11 16 2 -3
BITMAP
7FE0
7FE0
7FE0
FFA0
8E00
0E00
0E00
1C00
1C00
1C00
1C00
1800
3800
1800
0C00
7C00
ENDCHAR
STARTCHAR 0164
ENCODING 356
SWIDTH 565 0
DWIDTH 11 0
BBX 11 17 2 0
BITMAP
04C0
0FC0
0700
0000
7FE0
7FE0
7FE0
FFA0
8E00
0E00
0E00
1C00
1C00
1C00
1C00
1800
3800
ENDCHAR
STARTCHAR 0165
ENCODING 357
SWIDTH 565 0
DWIDTH 11 0
BBX 11 17 2 0
BITMAP
04C0
0FC0
0700
0000
7FE0
7FE0
7FE0
FFA0
8E00
0E00
0E00
1C00
1C00
1C00
1C00
1800
3800
ENDCHAR
STARTCHAR 0166
ENCODING 358
SWIDTH 565 0
DWIDTH 11 0
BBX 11 13 2 0
BITMAP
7FE0
7FE0
7FE0
FFA0
8E00
0E00
7F80
7F80
1C00
1C00
1C00
1800
3800
ENDCHAR
STARTCHAR 0167
ENCODING 359
SWIDTH 565 0
DWIDTH 11 0
BBX 11 13 2 0
BITMAP
7FE0
7FE0
7FE0
FFA0
8E00
0E00
7F80
7F80
1C00
1C00
1C00
1800
3800
ENDCHAR
STARTCHAR 0168
ENCODING 360
SWIDTH 514 0
DWIDTH 10 0
BBX 11 17 2 0
BITMAP
0260
07C0
07C0
0000
38E0
38E0
70C0
71C0
F1C0
F3C0
F3C0
FF80
FF80
FF00
FE00
FC00
3800
ENDCHAR
STARTCHAR 0169
ENCODING 361
SWIDTH 514 0
DWIDTH 10 0
BBX 11 17 2 0
BITMAP
0260
07C0
07C0
0000
38E0
38E0
70C0
71C0
F1C0
F3C0
F3C0
FF80
FF80
FF00
FE00
FC00
3800
ENDCHAR
STARTCHAR 016A
ENCODING 362
SWIDTH 514 0
DWIDTH 10 0
BBX 11 16 2 0
BITMAP
07C0
0FC0
0000
38E0
38E0
70C0
71C0
F1C0
F3C0
F3C0
FF80
FF80
FF00
FE00
FC00
3800
ENDCHAR
STARTCHAR 016B
ENCODING 363
SWIDTH 514 0
DWIDTH 10 0
BBX 11 16 2 0
BITMAP
07C0
0FC0
0000
38E0
38E0
70C0
71C0
F1C0
F3C0
F3C0
FF80
FF80
FF00
FE00
FC00
3800
ENDCHAR
STARTCHAR 016C
ENCODING 364
SWIDTH 514 0
DWIDTH 10 0
BBX 11 17 2 0
BITMAP
0660
07C0
0380
0000
38E0
38E0
70C0
71C0
F1C0
F3C0
F3C0
FF80
FF80
FF00
FE00
FC00
3800
ENDCHAR
STARTCHAR 016D
ENCODING 365
SWIDTH 514 0
DWIDTH 10 0
BBX 11 17 2 0
BITMAP
0660
07C0
0380
0000
38E0
38E0
70C0
71C0
F1C0
F3C0
F3C0
FF80
FF80
FF00
FE00
FC00
3800
ENDCHAR
STARTCHAR 016E
ENCODING 366
SWIDTH 514 0
DWIDTH 10 0
BBX 11 18 2 0
BITMAP
0180
07C0
0CC0
0CC0
0700
38E0
38E0
70C0
71C0
F1C0
F3C0
F3C0
FF80
FF80
FF00
FE00
FC00
3800
ENDCHAR
STARTCHAR 016F
ENCODING 367
SWIDTH 514 0
DWIDTH 10 0
BBX 11 18 2 0
BITMAP
0180
07C0
0CC0
0CC0
0700
38E0
38E0
70C0
71C0
F1C0
F3C0
F3C0
FF80
FF80
FF00
FE00
FC00
3800
ENDCHAR
STARTCHAR 0170
ENCODING 368
SWIDTH 514 0
DWIDTH 10 0
BBX 12 17 2 0
BITMAP
03B0
0760
06C0
0000
38E0
38E0
70C0
71C0
F1C0
F3C0
F3C0
FF80
FF80
FF00
FE00
FC00
3800
ENDCHAR
STARTCHAR 0171
ENCODING 369
SWIDTH 514 0
DWIDTH 10 0
BBX 12 17 2 0
BITMAP
03B0
0760
06C0
0000
38E0
38E0
70C0
71C0
F1C0
F3C0
F3C0
FF80
FF80
FF00
FE00
FC00
3800
ENDCHAR
STARTCHAR 0172
ENCODING 370
SWIDTH 514 0
DWIDTH 10 0
BBX 11 16 2 -3
BITMAP
38E0
38E0
70C0
71C0
F1C0
F3C0
F3C0
FF80
FF80
FF00
FE00
FC00
3800
6000
6400
7C00
ENDCHAR
STARTCHAR 0173
ENCODING 371
SWIDTH 514 0
DWIDTH 10 0
BBX 11 16 2 -3
BITMAP
38E0
38E0
70C0
71C0
F1C0
F3C0
F3C0
FF80
FF80
FF00
FE00
FC00
3800
6000
6400
7C00
ENDCHAR
STARTCHAR 0174
ENCODING 372
SWIDTH 720 0
DWIDTH 14 0
BBX 14 17 3 0
BITMAP
0300
07C0
0EC0
0000
F23C
F338
F370
F7F0
F7F0
FFE0
FFE0
7FC0
7BC0
7BC0
3380
3380
2000
ENDCHAR
STARTCHAR 0175
ENCODING 373
SWIDTH 720 0
DWIDTH 14 0
BBX 14 17 3 0
BITMAP
0300
07C0
0EC0
0000
F23C
F338
F370
F7F0
F7F0
FFE0
FFE0
7FC0
7BC0
7BC0
3380
3380
2000
ENDCHAR
STARTCHAR 0176
ENCODING 374
SWIDTH 565 0
DWIDTH 11 0
BBX 11 17 3 0
BITMAP
0600
0F80
1980
0000
20E0
F1C0
F1C0
F380
7700
7F00
7E00
3C00
3800
3800
3800
3800
3800
ENDCHAR
STARTCHAR 0177
ENCODING 375
SWIDTH 565 0
DWIDTH 11 0
BBX 11 17 3 0
BITMAP
0600
0F80
1980
0000
20E0
F1C0
F1C0
F380
7700
7F00
7E00
3C00
3800
3800
3800
3800
3800
ENDCHAR
STARTCHAR 0178
ENCODING 376
SWIDTH 565 0
DWIDTH 11 0
BBX 11 16 3 0
BITMAP
0980
1D80
0000
20E0
F1C0
F1C0
F380
7700
7F00
7E00
3C00
3800
3800
3800
3800
3800
ENDCHAR
STARTCHAR 0179
ENCODING 377
SWIDTH 565 0
DWIDTH 11 0
BBX 9 17 3 0
BITMAP
0380
0700
0E00
0000
7F80
FF00
FE00
0E00
1C00
1C00
3800
3800
7000
EF80
FF80
FF00
3E00
ENDCHAR
STARTCHAR 017A
ENCODING 378
SWIDTH 565 0
DWIDTH 11 0
BBX 9 17 3 0
BITMAP
0380
0700
0E00
0000
7F80
FF00
FE00
0E00
1C00
1C00
3800
3800
7000
EF80
FF80
FF00
3E00
ENDCHAR
STARTCHAR 017B
ENCODING 379
SWIDTH 565 0
DWIDTH 11 0
BBX 9 16 3 0
BITMAP
0400
0C00
0000
7F80
FF00
FE00
0E00
1C00
1C00
3800
3800
7000
EF80
FF80
FF00
3E00
ENDCHAR
STARTCHAR 017C
ENCODING 380
SWIDTH 565 0
DWIDTH 11 0
BBX 9 16 3 0
BITMAP
0400
0C00
0000
7F80
FF00
FE00
0E00
1C00
1C00
3800
3800
7000
EF80
FF80
FF00
3E00
ENDCHAR
STARTCHAR 017D
ENCODING 381
SWIDTH 565 0
DWIDTH 11 0
BBX 9 17 3 0
BITMAP
1900
1F00
0E00
0000
7F80
FF00
FE00
0E00
1C00
1C00
3800
3800
7000
EF80
FF80
FF00
3E00
ENDCHAR
STARTCHAR 017E
ENCODING 382
SWIDTH 565 0
DWIDTH 11 0
BBX 9 17 3 0
BITMAP
1900
1F00
0E00
0000
7F80
FF00
FE00
0E00
1C00
1C00
3800
3800
7000
EF80
FF80
FF00
3E00
ENDCHAR
STARTCHAR 017F
ENCODING 383
SWIDTH 411 0
DWIDTH 8 0
BBX 10 16 1 -2
BITMAP
0F80
3FC0
3980
7800
7000
7000
7000
7000
7000
7000
E000
E000
E000
E000
E000
E000
ENDCHAR
STARTCHAR 0180
ENCODING 384
SWIDTH 514 0
DWIDTH 10 0
BBX 10 13 1 0
BITMAP
3F80
3F80
3F80
3980
3B80
3F00
3F80
7F80
7DC0
FFC0
7F80
7F00
7800
ENDCHAR
STARTCHAR 0181
ENCODING 385
SWIDTH 668 0
DWIDTH 13 0
BBX 12 13 2 0
BITMAP
1FE0
7FE0
7FE0
EE60
CEE0
EFC0
EFE0
7FE0
1E70
1EF0
1FE0
1FC0
1E00
ENDCHAR
STARTCHAR 0186
ENCODING 390
SWIDTH 462 0
DWIDTH 9 0
BBX 10 13 1 0
BITMAP
1F00
3F80
3FC0
0FC0
03C0
03C0
03C0
7F80
FF80
FF00
FF00
7E00
3800
ENDCHAR
STARTCHAR 0187
ENCODING 391
SWIDTH 462 0
DWIDTH 9 0
BBX 11 17 2 0
BITMAP
00E0
03E0
03C0
0780
0F80
3FC0
7F80
7E80
F000
F000
F000
FF00
FF00
FF00
FF00
FE00
3800
ENDCHAR
STARTCHAR 0188
ENCODING 392
SWIDTH 462 0
DWIDTH 9 0
BBX 11 17 2 0
BITMAP
00E0
03E0
03C0
0780
0F80
3FC0
7F80
7E80
F000
F000
F000
FF00
FF00
FF00
FF00
FE00
3800
ENDCHAR
STARTCHAR 0189
ENCODING 393
SWIDTH 462 0
DWIDTH 9 0
BBX 9 13 2 0
BITMAP
3E00
7F00
7F00
7B80
7D80
FF80
FB00
7700
7E00
7C00
7800
7000
4000
ENDCHAR
STARTCHAR 018A
ENCODING 394
SWIDTH 617 0
DWIDTH 12 0
BBX 12 13 2 0
BITMAP
1FC0
7FE0
7FE0
EFF0
CE70
EE70
FEE0
7FE0
1FC0
1F80
1F00
1E00
0800
ENDCHAR
STARTCHAR 018F
ENCODING 399
SWIDTH 462 0
DWIDTH 9 0
BBX 9 13 1 0
BITMAP
1F00
3F80
3F80
0180
0180
7F80
7F80
7380
7780
FF80
FF80
7F00
1C00
ENDCHAR
STARTCHAR 0190
ENCODING 400
SWIDTH 462 0
DWIDTH 9 0
BBX 9 14 2 0
BITMAP
0C00
3F00
7F80
7800
F000
F000
7E00
7E00
7000
E000
E100
FF00
FE00
7C00
ENDCHAR
STARTCHAR 0191
ENCODING 401
SWIDTH 462 0
DWIDTH 9 0
BBX 14 17 -2 -3
BITMAP
0038
07FC
07FC
0780
0F00
0F40
0FC0
0F80
1E00
1E00
1E00
1C00
1C00
3C00
7800
F000
C000
ENDCHAR
STARTCHAR 0192
ENCODING 402
SWIDTH 462 0
DWIDTH 9 0
BBX 14 17 -2 -3
BITMAP
0038
07FC
07FC
0780
0F00
0F40
0FC0
0F80
1E00
1E00
1E00
1C00
1C00
3C00
7800
F000
C000
ENDCHAR
STARTCHAR 0193
ENCODING 403
SWIDTH 462 0
DWIDTH 9 0
BBX 12 17 1 0
BITMAP
0070
00F0
01F0
03C0
07C0
0FE0
1FC0
3800
3000
71C0
73C0
73C0
F780
FF80
FF00
FE00
7000
ENDCHAR
STARTCHAR 0194
ENCODING 404
SWIDTH 565 0
DWIDTH 11 0
BBX 11 15 3 -2
BITMAP
E080
E1E0
E1C0
E3C0
7380
7700
7F00
7E00
3C00
7C00
7C00
CC00
CC00
F800
F000
ENDCHAR
STARTCHAR 0197
ENCODING 407
SWIDTH 360 0
DWIDTH 7 0
BBX 8 13 1 0
BITMAP
0F
0F
1E
1E
1E
7E
7E
7E
7C
7C
78
78
F0
ENDCHAR
STARTCHAR 0198
ENCODING 408
SWIDTH 565 0
DWIDTH 11 0
BBX 14 13 0 0
BITMAP
1F38
1F7C
1FFC
1FDC
3F98
3FB0
3F30
3F80
7F80
7DC0
7DC0
7DE0
F880
ENDCHAR
STARTCHAR 0199
ENCODING 409
SWIDTH 565 0
DWIDTH 11 0
BBX 14 13 0 0
BITMAP
1F38
1F7C
1FFC
1FDC
3F98
3FB0
3F30
3F80
7F80
7DC0
7DC0
7DE0
F880
ENDCHAR
STARTCHAR 019D
ENCODING 413
SWIDTH 565 0
DWIDTH 11 0
BBX 15 16 -2 -3
BITMAP
03CE
03DE
03DE
07DC
07DC
0FFC
0FF8
0FF8
0EF8
1EF8
1EF0
1CF0
3CE0
7800
F000
C000
ENDCHAR
STARTCHAR 01A0
ENCODING 416
SWIDTH 514 0
DWIDTH 10 0
BBX 11 14 2 0
BITMAP
0860
1E60
3F60
3FE0
7FC0
FF80
F3C0
E380
F780
FF80
FF80
FF00
FE00
7C00
ENDCHAR
STARTCHAR 01A1
ENCODING 417
SWIDTH 514 0
DWIDTH 10 0
BBX 11 14 2 0
BITMAP
0860
1E60
3F60
3FE0
7FC0
FF80
F3C0
E380
F780
FF80
FF80
FF00
FE00
7C00
ENDCHAR
STARTCHAR 01AF
ENCODING 431
SWIDTH 565 0
DWIDTH 11 0
BBX 12 14 2 0
BITMAP
0030
73B0
71B0
63B0
E3E0
E3C0
E380
E780
EF80
FF00
FF00
FE00
7E00
7800
ENDCHAR
STARTCHAR 01B0
ENCODING 432
SWIDTH 565 0
DWIDTH 11 0
BBX 12 14 2 0
BITMAP
0030
73B0
71B0
63B0
E3E0
E3C0
E380
E780
EF80
FF00
FF00
FE00
7E00
7800
ENDCHAR
STARTCHAR 01B1
ENCODING 433
SWIDTH 565 0
DWIDTH 11 0
BBX 13 14 1 0
BITMAP
0068
3E78
3EF8
1CE0
3870
3870
7070
7070
70F0
F0E0
7FE0
7FC0
7F80
3E00
ENDCHAR
STARTCHAR 01B2
ENCODING 434
SWIDTH 514 0
DWIDTH 10 0
BBX 10 14 2 0
BITMAP
0100
7780
73C0
73C0
F1C0
F1C0
F1C0
F3C0
F7C0
FF80
FF80
7F00
7E00
3800
ENDCHAR
STARTCHAR 01B3
ENCODING 435
SWIDTH 668 0
DWIDTH 13 0
BBX 12 13 3 0
BITMAP
20E0
F1F0
F3F0
F3F0
7770
7F60
7EE0
3CC0
3800
3800
3800
3800
3800
ENDCHAR
STARTCHAR 01B4
ENCODING 436
SWIDTH 668 0
DWIDTH 13 0
BBX 12 13 3 0
BITMAP
20E0
F1F0
F3F0
F3F0
7770
7F60
7EE0
3CC0
3800
3800
3800
3800
3800
ENDCHAR
STARTCHAR 01B5
ENCODING 437
SWIDTH 565 0
DWIDTH 11 0
BBX 10 13 2 0
BITMAP
3FC0
7F80
7F00
0700
0E00
7F80
7F80
FC00
3800
77C0
7FC0
7F80
1F00
ENDCHAR
STARTCHAR 01B6
ENCODING 438
SWIDTH 565 0
DWIDTH 11 0
BBX 10 13 2 0
BITMAP
3FC0
7F80
7F00
0700
0E00
7F80
7F80
FC00
3800
77C0
7FC0
7F80
1F00
ENDCHAR
STARTCHAR 01B7
ENCODING 439
SWIDTH 462 0
DWIDTH 9 0
BBX 10 13 1 0
BITMAP
1FC0
1FC0
0180
0700
0F00
3F80
1F80
0180
0180
E380
FF80
FF00
7E00
ENDCHAR
STARTCHAR 01BB
ENCODING 443
SWIDTH 514 0
DWIDTH 10 0
BBX 10 13 1 1
BITMAP
1F00
3F80
3F80
3380
0300
3FC0
3FC0
0CC0
1F80
3F80
7F80
FF00
3800
ENDCHAR
STARTCHAR 01C0
ENCODING 448
SWIDTH 154 0
DWIDTH 3 0
BBX 5 13 1 0
BITMAP
38
38
30
70
70
70
70
60
E0
E0
E0
E0
C0
ENDCHAR
STARTCHAR 01C1
ENCODING 449
SWIDTH 308 0
DWIDTH 6 0
BBX 7 13 1 0
BITMAP
36
36
36
7E
6E
6C
6C
6C
FC
D8
D8
D8
D8
ENDCHAR
STARTCHAR 01C2
ENCODING 450
SWIDTH 308 0
DWIDTH 6 0
BBX 7 13 1 0
BITMAP
0C
1C
1C
7E
7E
78
38
38
FC
FC
F0
70
70
ENDCHAR
STARTCHAR 01C3
ENCODING 451
SWIDTH 205 0
DWIDTH 4 0
BBX 5 14 1 0
BITMAP
18
38
38
38
78
78
70
70
70
00
00
E0
E0
C0
ENDCHAR
STARTCHAR 01CA
ENCODING 458
SWIDTH 720 0
DWIDTH 14 0
BBX 16 13 0 0
BITMAP
0EC7
0EC7
1DC7
1DCF
1D8F
3D8F
3F8E
3F0E
370E
776E
777C
7678
E630
ENDCHAR
STARTCHAR 01CB
ENCODING 459
SWIDTH 720 0
DWIDTH 14 0
BBX 16 13 0 0
BITMAP
0EC7
0EC7
1DC7
1DCF
1D8F
3D8F
3F8E
3F0E
370E
776E
777C
7678
E630
ENDCHAR
STARTCHAR 01CC
ENCODING 460
SWIDTH 720 0
DWIDTH 14 0
BBX 16 13 0 0
BITMAP
0EC7
0EC7
1DC7
1DCF
1D8F
3D8F
3F8E
3F0E
370E
776E
777C
7678
E630
ENDCHAR
STARTCHAR 01CD
ENCODING 461
SWIDTH 617 0
DWIDTH 12 0
BBX 12 17 1 0
BITMAP
0330
03E0
01C0
0000
0180
0180
0380
07C0
07C0
0FC0
0FC0
1BC0
33C0
3FC0
7BC0
E3E0
E3E0
ENDCHAR
STARTCHAR 01CE
ENCODING 462
SWIDTH 617 0
DWIDTH 12 0
BBX 12 17 1 0
BITMAP
0330
03E0
01C0
0000
0180
0180
0380
07C0
07C0
0FC0
0FC0
1BC0
33C0
3FC0
7BC0
E3E0
E3E0
ENDCHAR
STARTCHAR 01CF
ENCODING 463
SWIDTH 308 0
DWIDTH 6 0
BBX 9 17 1 0
BITMAP
0C80
0F80
0700
0000
1F00
1E00
1E00
1E00
3C00
3C00
3C00
7C00
7800
7800
7800
F000
E000
ENDCHAR
STARTCHAR 01D0
ENCODING 464
SWIDTH 308 0
DWIDTH 6 0
BBX 9 17 1 0
BITMAP
0C80
0F80
0700
0000
1F00
1E00
1E00
1E00
3C00
3C00
3C00
7C00
7800
7800
7800
F000
E000
ENDCHAR
STARTCHAR 01D1
ENCODING 465
SWIDTH 514 0
DWIDTH 10 0
BBX 10 17 2 0
BITMAP
3300
3E00
1C00
0800
1E00
3F00
3F80
7F80
FF80
F3C0
E380
F780
FF80
FF80
FF00
FE00
7C00
ENDCHAR
STARTCHAR 01D2
ENCODING 466
SWIDTH 514 0
DWIDTH 10 0
BBX 10 17 2 0
BITMAP
3300
3E00
1C00
0800
1E00
3F00
3F80
7F80
FF80
F3C0
E380
F780
FF80
FF80
FF00
FE00
7C00
ENDCHAR
STARTCHAR 01D3
ENCODING 467
SWIDTH 514 0
DWIDTH 10 0
BBX 11 17 2 0
BITMAP
0660
07C0
0380
0000
38E0
38E0
70C0
71C0
F1C0
F3C0
F3C0
FF80
FF80
FF00
FE00
FC00
3800
ENDCHAR
STARTCHAR 01D4
ENCODING 468
SWIDTH 514 0
DWIDTH 10 0
BBX 11 17 2 0
BITMAP
0660
07C0
0380
0000
38E0
38E0
70C0
71C0
F1C0
F3C0
F3C0
FF80
FF80
FF00
FE00
FC00
3800
ENDCHAR
STARTCHAR 01D5
ENCODING 469
SWIDTH 514 0
DWIDTH 10 0
BBX 11 18 2 0
BITMAP
0700
07C0
0000
0CC0
0000
38E0
38E0
70C0
71C0
F1C0
F3C0
F3C0
FF80
FF80
FF00
FE00
FC00
3800
ENDCHAR
STARTCHAR 01D6
ENCODING 470
SWIDTH 514 0
DWIDTH 10 0
BBX 11 18 2 0
BITMAP
0700
07C0
0000
0CC0
0000
38E0
38E0
70C0
71C0
F1C0
F3C0
F3C0
FF80
FF80
FF00
FE00
FC00
3800
ENDCHAR
STARTCHAR 01D7
ENCODING 471
SWIDTH 514 0
DWIDTH 10 0
BBX 11 18 2 0
BITMAP
0060
01C0
0000
0CC0
0000
38E0
38E0
70C0
71C0
F1C0
F3C0
F3C0
FF80
FF80
FF00
FE00
FC00
3800
ENDCHAR
STARTCHAR 01D8
ENCODING 472
SWIDTH 514 0
DWIDTH 10 0
BBX 11 18 2 0
BITMAP
0060
01C0
0000
0CC0
0000
38E0
38E0
70C0
71C0
F1C0
F3C0
F3C0
FF80
FF80
FF00
FE00
FC00
3800
ENDCHAR
STARTCHAR 01D9
ENCODING 473
SWIDTH 514 0
DWIDTH 10 0
BBX 11 18 2 0
BITMAP
0640
07C0
0100
0CC0
0000
38E0
38E0
70C0
71C0
F1C0
F3C0
F3C0
FF80
FF80
FF00
FE00
FC00
3800
ENDCHAR
STARTCHAR 01DA
ENCODING 474
SWIDTH 514 0
DWIDTH 10 0
BBX 11 18 2 0
BITMAP
0640
07C0
0100
0CC0
0000
38E0
38E0
70C0
71C0
F1C0
F3C0
F3C0
FF80
FF80
FF00
FE00
FC00
3800
ENDCHAR
STARTCHAR 01DB
ENCODING 475
SWIDTH 514 0
DWIDTH 10 0
BBX 11 18 2 0
BITMAP
0600
0300
0000
0CC0
0000
38E0
38E0
70C0
71C0
F1C0
F3C0
F3C0
FF80
FF80
FF00
FE00
FC00
3800
ENDCHAR
STARTCHAR 01DC
ENCODING 476
SWIDTH 514 0
DWIDTH 10 0
BBX 11 18 2 0
BITMAP
0600
0300
0000
0CC0
0000
38E0
38E0
70C0
71C0
F1C0
F3C0
F3C0
FF80
FF80
FF00
FE00
FC00
3800
ENDCHAR
STARTCHAR 01DE
ENCODING 478
SWIDTH 617 0
DWIDTH 12 0
BBX 12 18 1 0
BITMAP
01F0
03F0
0020
0360
0000
0180
0180
0380
07C0
07C0
0FC0
0FC0
1BC0
33C0
3FC0
7BC0
E3E0
E3E0
ENDCHAR
STARTCHAR 01DF
ENCODING 479
SWIDTH 617 0
DWIDTH 12 0
BBX 12 18 1 0
BITMAP
01F0
03F0
0020
0360
0000
0180
0180
0380
07C0
07C0
0FC0
0FC0
1BC0
33C0
3FC0
7BC0
E3E0
E3E0
ENDCHAR
STARTCHAR 01E0
ENCODING 480
SWIDTH 617 0
DWIDTH 12 0
BBX 12 18 1 0
BITMAP
01F0
03F0
0000
00C0
0000
0180
0180
0380
07C0
07C0
0FC0
0FC0
1BC0
33C0
3FC0
7BC0
E3E0
E3E0
ENDCHAR
STARTCHAR 01E1
ENCODING 481
SWIDTH 617 0
DWIDTH 12 0
BBX 12 18 1 0
BITMAP
01F0
03F0
0000
00C0
0000
0180
0180
0380
07C0
07C0
0FC0
0FC0
1BC0
33C0
3FC0
7BC0
E3E0
E3E0
ENDCHAR
STARTCHAR 01E2
ENCODING 482
SWIDTH 720 0
DWIDTH 14 0
BBX 14 16 1 0
BITMAP
00FC
00FC
0000
01FC
01F8
03F8
07F0
07C0
0FF0
0FF0
1BC0
33F8
3FF8
73F8
E3F8
E3C0
ENDCHAR
STARTCHAR 01E3
ENCODING 483
SWIDTH 720 0
DWIDTH 14 0
BBX 14 16 1 0
BITMAP
00FC
00FC
0000
01FC
01F8
03F8
07F0
07C0
0FF0
0FF0
1BC0
33F8
3FF8
73F8
E3F8
E3C0
ENDCHAR
STARTCHAR 01E4
ENCODING 484
SWIDTH 514 0
DWIDTH 10 0
BBX 10 13 2 0
BITMAP
07C0
0FC0
1FC0
3800
FC00
F9C0
73C0
6380
F780
FF80
FF00
FE00
7000
ENDCHAR
STARTCHAR 01E5
ENCODING 485
SWIDTH 514 0
DWIDTH 10 0
BBX 10 13 2 0
BITMAP
07C0
0FC0
1FC0
3800
FC00
F9C0
73C0
6380
F780
FF80
FF00
FE00
7000
ENDCHAR
STARTCHAR 01E6
ENCODING 486
SWIDTH 462 0
DWIDTH 9 0
BBX 11 17 1 0
BITMAP
0660
07C0
0380
0000
07C0
0FE0
1FC0
3800
3000
71C0
73C0
73C0
F780
FF80
FF00
FE00
7000
ENDCHAR
STARTCHAR 01E7
ENCODING 487
SWIDTH 462 0
DWIDTH 9 0
BBX 11 17 1 0
BITMAP
0660
07C0
0380
0000
07C0
0FE0
1FC0
3800
3000
71C0
73C0
73C0
F780
FF80
FF00
FE00
7000
ENDCHAR
STARTCHAR 01E8
ENCODING 488
SWIDTH 514 0
DWIDTH 10 0
BBX 13 17 0 0
BITMAP
0198
01F0
00E0
0000
1F30
1F78
1FF0
1FE0
3FC0
3F80
3F00
3F80
7F80
7DC0
7DC0
7DE0
F880
ENDCHAR
STARTCHAR 01E9
ENCODING 489
SWIDTH 514 0
DWIDTH 10 0
BBX 13 17 0 0
BITMAP
0198
01F0
00E0
0000
1F30
1F78
1FF0
1FE0
3FC0
3F80
3F00
3F80
7F80
7DC0
7DC0
7DE0
F880
ENDCHAR
STARTCHAR 01EA
ENCODING 490
SWIDTH 514 0
DWIDTH 10 0
BBX 10 17 2 -3
BITMAP
0800
1E00
3F00
3F80
7F80
FF80
F3C0
E380
F780
FF80
FF80
FF00
FE00
7C00
3000
3200
3E00
ENDCHAR
STARTCHAR 01EB
ENCODING 491
SWIDTH 514 0
DWIDTH 10 0
BBX 10 17 2 -3
BITMAP
0800
1E00
3F00
3F80
7F80
FF80
F3C0
E380
F780
FF80
FF80
FF00
FE00
7C00
3000
3200
3E00
ENDCHAR
STARTCHAR 01EC
ENCODING 492
SWIDTH 514 0
DWIDTH 10 0
BBX 10 19 2 -3
BITMAP
3F00
3F00
0800
1E00
3F00
3F80
7F80
FF80
F3C0
E380
F780
FF80
FF80
FF00
FE00
7C00
3000
3200
3E00
ENDCHAR
STARTCHAR 01ED
ENCODING 493
SWIDTH 514 0
DWIDTH 10 0
BBX 10 19 2 -3
BITMAP
3F00
3F00
0800
1E00
3F00
3F80
7F80
FF80
F3C0
E380
F780
FF80
FF80
FF00
FE00
7C00
3000
3200
3E00
ENDCHAR
STARTCHAR 01EE
ENCODING 494
SWIDTH 462 0
DWIDTH 9 0
BBX 10 17 1 0
BITMAP
0CC0
0F80
0700
0000
1FC0
1FC0
0180
0700
0F00
3F80
1F80
0180
0180
E380
FF80
FF00
7E00
ENDCHAR
STARTCHAR 01EF
ENCODING 495
SWIDTH 462 0
DWIDTH 9 0
BBX 10 17 1 0
BITMAP
0CC0
0F80
0700
0000
1FC0
1FC0
0180
0700
0F00
3F80
1F80
0180
0180
E380
FF80
FF00
7E00
ENDCHAR
STARTCHAR 01F0
ENCODING 496
SWIDTH 411 0
DWIDTH 8 0
BBX 11 17 1 0
BITMAP
0320
03E0
01C0
0000
03C0
07C0
07C0
0780
0F80
0F80
0F80
0F80
0F00
EF00
FE00
FE00
7800
ENDCHAR
STARTCHAR 01F4
ENCODING 500
SWIDTH 462 0
DWIDTH 9 0
BBX 11 17 1 0
BITMAP
00E0
01C0
0180
0000
07C0
0FE0
1FC0
3800
3000
71C0
73C0
73C0
F780
FF80
FF00
FE00
7000
ENDCHAR
STARTCHAR 01F5
ENCODING 501
SWIDTH 462 0
DWIDTH 9 0
BBX 11 17 1 0
BITMAP
00E0
01C0
0180
0000
07C0
0FE0
1FC0
3800
3000
71C0
73C0
73C0
F780
FF80
FF00
FE00
7000
ENDCHAR
STARTCHAR 01F8
ENCODING 504
SWIDTH 565 0
DWIDTH 11 0
BBX 13 17 0 0
BITMAP
0180
01C0
00C0
0000
0F38
0F78
0F78
1F70
1F70
3FF0
3FE0
3FE0
3BE0
7BE0
7BC0
7BC0
F380
ENDCHAR
STARTCHAR 01F9
ENCODING 505
SWIDTH 565 0
DWIDTH 11 0
BBX 13 17 0 0
BITMAP
0180
01C0
00C0
0000
0F38
0F78
0F78
1F70
1F70
3FF0
3FE0
3FE0
3BE0
7BE0
7BC0
7BC0
F380
ENDCHAR
STARTCHAR 01FE
ENCODING 510
SWIDTH 514 0
DWIDTH 10 0
BBX 13 17 0 0
BITMAP
00C0
01C0
0300
0238
07B8
0FF0
0FE0
1FE0
3FE0
3BF0
37E0
3EE0
3FE0
3FE0
3FC0
7F80
FF00
ENDCHAR
STARTCHAR 01FF
ENCODING 511
SWIDTH 514 0
DWIDTH 10 0
BBX 13 17 0 0
BITMAP
00C0
01C0
0300
0238
07B8
0FF0
0FE0
1FE0
3FE0
3BF0
37E0
3EE0
3FE0
3FE0
3FC0
7F80
FF00
ENDCHAR
STARTCHAR 0218
ENCODING 536
SWIDTH 462 0
DWIDTH 9 0
BBX 11 16 1 -3
BITMAP
0FE0
1FC0
1FC0
3F80
3B00
3C00
3F00
0F80
0380
D780
FF00
FF00
7C00
3000
3000
6000
ENDCHAR
STARTCHAR 0219
ENCODING 537
SWIDTH 462 0
DWIDTH 9 0
BBX 11 16 1 -3
BITMAP
0FE0
1FC0
1FC0
3F80
3B00
3C00
3F00
0F80
0380
D780
FF00
FF00
7C00
3000
3000
6000
ENDCHAR
STARTCHAR 021A
ENCODING 538
SWIDTH 565 0
DWIDTH 11 0
BBX 11 16 2 -3
BITMAP
7FE0
7FE0
7FE0
FFA0
8E00
0E00
0E00
1C00
1C00
1C00
1C00
1800
3800
3800
3000
7000
ENDCHAR
STARTCHAR 021B
ENCODING 539
SWIDTH 565 0
DWIDTH 11 0
BBX 11 16 2 -3
BITMAP
7FE0
7FE0
7FE0
FFA0
8E00
0E00
0E00
1C00
1C00
1C00
1C00
1800
3800
3800
3000
7000
ENDCHAR
STARTCHAR 021E
ENCODING 542
SWIDTH 514 0
DWIDTH 10 0
BBX 12 17 1 0
BITMAP
0130
01F0
00C0
0000
1E70
1E70
1EF0
1CE0
3CE0
3FE0
3FE0
7FE0
7FC0
7BC0
FBC0
F380
F600
ENDCHAR
STARTCHAR 021F
ENCODING 543
SWIDTH 514 0
DWIDTH 10 0
BBX 12 17 1 0
BITMAP
0130
01F0
00C0
0000
1E70
1E70
1EF0
1CE0
3CE0
3FE0
3FE0
7FE0
7FC0
7BC0
FBC0
F380
F600
ENDCHAR
STARTCHAR 0224
ENCODING 548
SWIDTH 565 0
DWIDTH 11 0
BBX 9 16 3 -3
BITMAP
7F80
FF00
FE00
0E00
1C00
1C00
3800
3800
7000
E780
FF80
FF80
0700
1F00
1E00
1000
ENDCHAR
STARTCHAR 0225
ENCODING 549
SWIDTH 565 0
DWIDTH 11 0
BBX 9 16 3 -3
BITMAP
7F80
FF00
FE00
0E00
1C00
1C00
3800
3800
7000
E780
FF80
FF80
0700
1F00
1E00
1000
ENDCHAR
STARTCHAR 0226
ENCODING 550
SWIDTH 617 0
DWIDTH 12 0
BBX 11 16 1 0
BITMAP
00C0
00C0
0000
0180
0180
0380
07C0
07C0
0FC0
0FC0
1BC0
33C0
3FC0
7BC0
E3E0
E3E0
ENDCHAR
STARTCHAR 0227
ENCODING 551
SWIDTH 617 0
DWIDTH 12 0
BBX 11 16 1 0
BITMAP
00C0
00C0
0000
0180
0180
0380
07C0
07C0
0FC0
0FC0
1BC0
33C0
3FC0
7BC0
E3E0
E3E0
ENDCHAR
STARTCHAR 0228
ENCODING 552
SWIDTH 462 0
DWIDTH 9 0
BBX 8 17 2 -3
BITMAP
0C
7F
7F
7E
7E
70
7C
7C
70
7F
7F
7F
FF
78
18
0C
7C
ENDCHAR
STARTCHAR 0229
ENCODING 553
SWIDTH 462 0
DWIDTH 9 0
BBX 8 17 2 -3
BITMAP
0C
7F
7F
7E
7E
70
7C
7C
70
7F
7F
7F
FF
78
18
0C
7C
ENDCHAR
STARTCHAR 022A
ENCODING 554
SWIDTH 514 0
DWIDTH 10 0
BBX 10 18 2 0
BITMAP
1C00
1F00
0000
3700
0800
1E00
3F00
3F80
7F80
FF80
F3C0
E380
F780
FF80
FF80
FF00
FE00
7C00
ENDCHAR
STARTCHAR 022B
ENCODING 555
SWIDTH 514 0
DWIDTH 10 0
BBX 10 18 2 0
BITMAP
1C00
1F00
0000
3700
0800
1E00
3F00
3F80
7F80
FF80
F3C0
E380
F780
FF80
FF80
FF00
FE00
7C00
ENDCHAR
STARTCHAR 022C
ENCODING 556
SWIDTH 514 0
DWIDTH 10 0
BBX 10 18 2 0
BITMAP
1F00
3F00
1B00
3F00
0800
1E00
3F00
3F80
7F80
FF80
F3C0
E380
F780
FF80
FF80
FF00
FE00
7C00
ENDCHAR
STARTCHAR 022D
ENCODING 557
SWIDTH 514 0
DWIDTH 10 0
BBX 10 18 2 0
BITMAP
1F00
3F00
1B00
3F00
0800
1E00
3F00
3F80
7F80
FF80
F3C0
E380
F780
FF80
FF80
FF00
FE00
7C00
ENDCHAR
STARTCHAR 022E
ENCODING 558
SWIDTH 514 0
DWIDTH 10 0
BBX 10 16 2 0
BITMAP
0C00
0C00
0800
1E00
3F00
3F80
7F80
FF80
F3C0
E380
F780
FF80
FF80
FF00
FE00
7C00
ENDCHAR
STARTCHAR 022F
ENCODING 559
SWIDTH 514 0
DWIDTH 10 0
BBX 10 16 2 0
BITMAP
0C00
0C00
0800
1E00
3F00
3F80
7F80
FF80
F3C0
E380
F780
FF80
FF80
FF00
FE00
7C00
ENDCHAR
STARTCHAR 0230
ENCODING 560
SWIDTH 514 0
DWIDTH 10 0
BBX 10 18 2 0
BITMAP
1F00
3F00
0C00
0C00
0800
1E00
3F00
3F80
7F80
FF80
F3C0
E380
F780
FF80
FF80
FF00
FE00
7C00
ENDCHAR
STARTCHAR 0231
ENCODING 561
SWIDTH 514 0
DWIDTH 10 0
BBX 10 18 2 0
BITMAP
1F00
3F00
0C00
0C00
0800
1E00
3F00
3F80
7F80
FF80
F3C0
E380
F780
FF80
FF80
FF00
FE00
7C00
ENDCHAR
STARTCHAR 0232
ENCODING 562
SWIDTH 565 0
DWIDTH 11 0
BBX 11 16 3 0
BITMAP
0F80
1F80
0000
20E0
F1C0
F1C0
F380
7700
7F00
7E00
3C00
3800
3800
3800
3800
3800
ENDCHAR
STARTCHAR 0233
ENCODING 563
SWIDTH 565 0
DWIDTH 11 0
BBX 11 16 3 0
BITMAP
0F80
1F80
0000
20E0
F1C0
F1C0
F380
7700
7F00
7E00
3C00
3800
3800
3800
3800
3800
ENDCHAR
STARTCHAR 0241
ENCODING 577
SWIDTH 462 0
DWIDTH 9 0
BBX 8 14 3 0
BITMAP
38
7F
FF
EF
07
0E
0E
3C
78
F0
E0
E0
E0
C0
ENDCHAR
STARTCHAR 0242
ENCODING 578
SWIDTH 462 0
DWIDTH 9 0
BBX 8 14 3 0
BITMAP
38
7F
FF
EF
07
0E
0E
3C
78
F0
E0
E0
E0
C0
ENDCHAR
STARTCHAR 0243
ENCODING 579
SWIDTH 514 0
DWIDTH 10 0
BBX 10 13 1 0
BITMAP
3F80
3F80
3F80
3980
3B80
3F00
3F80
7F80
7DC0
FFC0
7F80
7F00
7800
ENDCHAR
STARTCHAR 0244
ENCODING 580
SWIDTH 565 0
DWIDTH 11 0
BBX 11 13 2 0
BITMAP
38E0
38E0
78E0
FFE0
FFE0
F1C0
F3C0
FFC0
FF80
FF00
FF00
7E00
3800
ENDCHAR
STARTCHAR 0253
ENCODING 595
SWIDTH 668 0
DWIDTH 13 0
BBX 12 13 2 0
BITMAP
1FE0
7FE0
7FE0
EE60
CEE0
EFC0
EFE0
7FE0
1E70
1EF0
1FE0
1FC0
1E00
ENDCHAR
STARTCHAR 0254
ENCODING 596
SWIDTH 462 0
DWIDTH 9 0
BBX 10 13 1 0
BITMAP
1F00
3F80
3FC0
0FC0
03C0
03C0
03C0
7F80
FF80
FF00
FF00
7E00
3800
ENDCHAR
STARTCHAR 0256
ENCODING 598
SWIDTH 462 0
DWIDTH 9 0
BBX 9 13 2 0
BITMAP
3E00
7F00
7F00
7B80
7D80
FF80
FB00
7700
7E00
7C00
7800
7000
4000
ENDCHAR
STARTCHAR 0257
ENCODING 599
SWIDTH 617 0
DWIDTH 12 0
BBX 12 13 2 0
BITMAP
1FC0
7FE0
7FE0
EFF0
CE70
EE70
FEE0
7FE0
1FC0
1F80
1F00
1E00
0800
ENDCHAR
STARTCHAR 0259
ENCODING 601
SWIDTH 462 0
DWIDTH 9 0
BBX 9 13 1 0
BITMAP
1F00
3F80
3F80
0180
0180
7F80
7F80
7380
7780
FF80
FF80
7F00
1C00
ENDCHAR
STARTCHAR 025B
ENCODING 603
SWIDTH 462 0
DWIDTH 9 0
BBX 9 14 2 0
BITMAP
0C00
3F00
7F80
7800
F000
F000
7E00
7E00
7000
E000
E100
FF00
FE00
7C00
ENDCHAR
STARTCHAR 0260
ENCODING 608
SWIDTH 462 0
DWIDTH 9 0
BBX 12 17 1 0
BITMAP
0070
00F0
01F0
03C0
07C0
0FE0
1FC0
3800
3000
71C0
73C0
73C0
F780
FF80
FF00
FE00
7000
ENDCHAR
STARTCHAR 0263
ENCODING 611
SWIDTH 565 0
DWIDTH 11 0
BBX 11 15 3 -2
BITMAP
E080
E1E0
E1C0
E3C0
7380
7700
7F00
7E00
3C00
7C00
7C00
CC00
CC00
F800
F000
ENDCHAR
STARTCHAR 0268
ENCODING 616
SWIDTH 360 0
DWIDTH 7 0
BBX 8 13 1 0
BITMAP
0F
0F
1E
1E
1E
7E
7E
7E
7C
7C
78
78
F0
ENDCHAR
STARTCHAR 0272
ENCODING 626
SWIDTH 565 0
DWIDTH 11 0
BBX 15 16 -2 -3
BITMAP
03CE
03DE
03DE
07DC
07DC
0FFC
0FF8
0FF8
0EF8
1EF8
1EF0
1CF0
3CE0
7800
F000
C000
ENDCHAR
STARTCHAR 0278
ENCODING 632
SWIDTH 617 0
DWIDTH 12 0
BBX 13 15 1 -1
BITMAP
01C0
0FD0
1FF8
3FF8
3FF8
7BB8
77B8
7778
7770
FFF0
FFE0
FFC0
6F80
1C00
1C00
ENDCHAR
STARTCHAR 0289
ENCODING 649
SWIDTH 565 0
DWIDTH 11 0
BBX 11 13 2 0
BITMAP
38E0
38E0
78E0
FFE0
FFE0
F1C0
F3C0
FFC0
FF80
FF00
FF00
7E00
3800
ENDCHAR
STARTCHAR 028B
ENCODING 651
SWIDTH 514 0
DWIDTH 10 0
BBX 10 14 2 0
BITMAP
0100
7780
73C0
73C0
F1C0
F1C0
F1C0
F3C0
F7C0
FF80
FF80
7F00
7E00
3800
ENDCHAR
STARTCHAR 0292
ENCODING 658
SWIDTH 462 0
DWIDTH 9 0
BBX 10 13 1 0
BITMAP
1FC0
1FC0
0180
0700
0F00
3F80
1F80
0180
0180
E380
FF80
FF00
7E00
ENDCHAR
STARTCHAR 0294
ENCODING 660
SWIDTH 462 0
DWIDTH 9 0
BBX 8 14 3 0
BITMAP
38
7F
FF
EF
07
0E
0E
3C
78
F0
E0
E0
E0
C0
ENDCHAR
STARTCHAR 0295
ENCODING 661
SWIDTH 462 0
DWIDTH 9 0
BBX 9 14 2 0
BITMAP
0700
7F80
7F80
7380
F000
E000
F000
F800
3C00
3C00
3800
3800
3800
3800
ENDCHAR
STARTCHAR 0296
ENCODING 662
SWIDTH 462 0
DWIDTH 9 0
BBX 9 14 1 0
BITMAP
0E00
0E00
0E00
0E00
1E00
1E00
0F00
0780
0380
0380
C700
FF00
FF00
7C00
ENDCHAR
STARTCHAR 02B9
ENCODING 697
SWIDTH 205 0
DWIDTH 4 0
BBX 5 7 2 7
BITMAP
38
30
70
60
60
C0
C0
ENDCHAR
STARTCHAR 02BA
ENCODING 698
SWIDTH 360 0
DWIDTH 7 0
BBX 8 7 2 7
BITMAP
3B
37
76
66
6C
CC
C8
ENDCHAR
STARTCHAR 02BB
ENCODING 699
SWIDTH 205 0
DWIDTH 4 0
BBX 4 7 2 7
BITMAP
30
30
70
70
E0
E0
E0
ENDCHAR
STARTCHAR 02BC
ENCODING 700
SWIDTH 205 0
DWIDTH 4 0
BBX 5 7 2 7
BITMAP
38
70
70
70
E0
E0
40
ENDCHAR
STARTCHAR 02BD
ENCODING 701
SWIDTH 205 0
DWIDTH 4 0
BBX 3 7 3 7
BITMAP
E0
E0
E0
E0
E0
E0
C0
ENDCHAR
STARTCHAR 02C6
ENCODING 710
SWIDTH 308 0
DWIDTH 6 0
BBX 6 3 3 14
BITMAP
18
7C
EC
ENDCHAR
STARTCHAR 02C7
ENCODING 711
SWIDTH 308 0
DWIDTH 6 0
BBX 5 3 4 14
BITMAP
C8
F8
70
ENDCHAR
STARTCHAR 02C8
ENCODING 712
SWIDTH 102 0
DWIDTH 2 0
BBX 3 3 3 14
BITMAP
60
40
C0
ENDCHAR
STARTCHAR 02C9
ENCODING 713
SWIDTH 308 0
DWIDTH 6 0
BBX 6 2 3 14
BITMAP
7C
FC
ENDCHAR
STARTCHAR 02CA
ENCODING 714
SWIDTH 205 0
DWIDTH 4 0
BBX 4 3 4 14
BITMAP
70
E0
C0
ENDCHAR
STARTCHAR 02CB
ENCODING 715
SWIDTH 205 0
DWIDTH 4 0
BBX 3 3 4 14
BITMAP
C0
E0
60
ENDCHAR
STARTCHAR 02CC
ENCODING 716
SWIDTH 102 0
DWIDTH 2 0
BBX 2 3 0 -3
BITMAP
C0
C0
C0
ENDCHAR
STARTCHAR 02CD
ENCODING 717
SWIDTH 308 0
DWIDTH 6 0
BBX 6 1 0 -3
BITMAP
FC
ENDCHAR
STARTCHAR 02D0
ENCODING 720
SWIDTH 205 0
DWIDTH 4 0
BBX 6 10 0 0
BITMAP
1C
3C
38
10
00
00
20
30
70
F0
ENDCHAR
STARTCHAR 02D1
ENCODING 721
SWIDTH 205 0
DWIDTH 4 0
BBX 4 4 2 6
BITMAP
70
F0
E0
40
ENDCHAR
STARTCHAR 02D8
ENCODING 728
SWIDTH 308 0
DWIDTH 6 0
BBX 6 3 4 14
BITMAP
8C
F8
F0
ENDCHAR
STARTCHAR 02D9
ENCODING 729
SWIDTH 102 0
DWIDTH 2 0
BBX 2 2 3 14
BITMAP
40
C0
ENDCHAR
STARTCHAR 02DA
ENCODING 730
SWIDTH 308 0
DWIDTH 6 0
BBX 6 5 3 12
BITMAP
38
7C
CC
CC
78
ENDCHAR
STARTCHAR 02DB
ENCODING 731
SWIDTH 257 0
DWIDTH 5 0
BBX 5 4 0 -3
BITMAP
20
40
C8
F8
ENDCHAR
STARTCHAR 02DC
ENCODING 732
SWIDTH 308 0
DWIDTH 6 0
BBX 6 3 3 14
BITMAP
24
7C
FC
ENDCHAR
STARTCHAR 02DD
ENCODING 733
SWIDTH 411 0
DWIDTH 8 0
BBX 7 3 4 14
BITMAP
76
EC
D8
ENDCHAR
STARTCHAR 0300
ENCODING 768
SWIDTH 0 0
DWIDTH 0 0
BBX 3 3 -4 14
BITMAP
C0
E0
60
ENDCHAR
STARTCHAR 0301
ENCODING 769
SWIDTH 0 0
DWIDTH 0 0
BBX 4 3 -2 14
BITMAP
70
E0
C0
ENDCHAR
STARTCHAR 0302
ENCODING 770
SWIDTH 0 0
DWIDTH 0 0
BBX 6 3 -5 14
BITMAP
30
78
DC
ENDCHAR
STARTCHAR 0303
ENCODING 771
SWIDTH 0 0
DWIDTH 0 0
BBX 6 3 -5 14
BITMAP
4C
FC
F8
ENDCHAR
STARTCHAR 0304
ENCODING 772
SWIDTH 0 0
DWIDTH 0 0
BBX 6 2 -5 14
BITMAP
FC
FC
ENDCHAR
STARTCHAR 0305
ENCODING 773
SWIDTH 0 0
DWIDTH 0 0
BBX 7 2 -6 14
BITMAP
7E
FE
ENDCHAR
STARTCHAR 0306
ENCODING 774
SWIDTH 0 0
DWIDTH 0 0
BBX 6 3 -5 14
BITMAP
C4
FC
78
ENDCHAR
STARTCHAR 0307
ENCODING 775
SWIDTH 0 0
DWIDTH 0 0
BBX 2 2 -3 14
BITMAP
C0
C0
ENDCHAR
STARTCHAR 0308
ENCODING 776
SWIDTH 0 0
DWIDTH 0 0
BBX 5 2 -5 14
BITMAP
48
D8
ENDCHAR
STARTCHAR 030A
ENCODING 778
SWIDTH 0 0
DWIDTH 0 0
BBX 6 5 -5 13
BITMAP
38
7C
CC
D8
70
ENDCHAR
STARTCHAR 030B
ENCODING 779
SWIDTH 0 0
DWIDTH 0 0
BBX 7 3 -4 14
BITMAP
76
EC
D8
ENDCHAR
STARTCHAR 030C
ENCODING 780
SWIDTH 0 0
DWIDTH 0 0
BBX 6 3 -5 14
BITMAP
CC
F8
70
ENDCHAR
STARTCHAR 030D
ENCODING 781
SWIDTH 0 0
DWIDTH 0 0
BBX 2 3 -3 14
BITMAP
C0
C0
80
ENDCHAR
STARTCHAR 0311
ENCODING 785
SWIDTH 0 0
DWIDTH 0 0
BBX 6 3 -5 14
BITMAP
30
78
DC
ENDCHAR
STARTCHAR 0323
ENCODING 803
SWIDTH 0 0
DWIDTH 0 0
BBX 2 2 -7 -3
BITMAP
C0
C0
ENDCHAR
STARTCHAR 0326
ENCODING 806
SWIDTH 0 0
DWIDTH 0 0
BBX 4 3 -8 -3
BITMAP
70
60
C0
ENDCHAR
STARTCHAR 0327
ENCODING 807
SWIDTH 0 0
DWIDTH 0 0
BBX 6 4 -9 -3
BITMAP
30
38
1C
F8
ENDCHAR
STARTCHAR 0328
ENCODING 808
SWIDTH 0 0
DWIDTH 0 0
BBX 5 4 -8 -2
BITMAP
20
40
C8
F8
ENDCHAR
STARTCHAR 0329
ENCODING 809
SWIDTH 0 0
DWIDTH 0 0
BBX 2 3 -7 -3
BITMAP
40
C0
C0
ENDCHAR
STARTCHAR 0331
ENCODING 817
SWIDTH 0 0
DWIDTH 0 0
BBX 6 1 -9 -3
BITMAP
FC
ENDCHAR
STARTCHAR 0342
ENCODING 834
SWIDTH 0 0
DWIDTH 0 0
BBX 6 3 -5 14
BITMAP
4C
FC
F8
ENDCHAR
STARTCHAR 0344
ENCODING 836
SWIDTH 0 0
DWIDTH 0 0
BBX 5 3 -5 14
BITMAP
18
38
D8
ENDCHAR
STARTCHAR 0345
ENCODING 837
SWIDTH 0 0
DWIDTH 0 0
BBX 4 3 -7 -3
BITMAP
40
C0
70
ENDCHAR
STARTCHAR 0374
ENCODING 884
SWIDTH 205 0
DWIDTH 4 0
BBX 4 3 3 11
BITMAP
70
E0
C0
ENDCHAR
STARTCHAR 0375
ENCODING 885
SWIDTH 205 0
DWIDTH 4 0
BBX 4 3 0 -3
BITMAP
30
60
C0
ENDCHAR
STARTCHAR 037A
ENCODING 890
SWIDTH 205 0
DWIDTH 4 0
BBX 3 3 0 -3
BITMAP
C0
C0
E0
ENDCHAR
STARTCHAR 037B
ENCODING 891
SWIDTH 462 0
DWIDTH 9 0
BBX 10 13 1 0
BITMAP
1F00
3F80
3FC0
0FC0
03C0
03C0
03C0
7F80
FF80
FF00
FF00
7E00
3800
ENDCHAR
STARTCHAR 037E
ENCODING 894
SWIDTH 205 0
DWIDTH 4 0
BBX 6 12 0 -2
BITMAP
3C
38
38
00
00
00
70
70
70
E0
E0
C0
ENDCHAR
STARTCHAR 037F
ENCODING 895
SWIDTH 411 0
DWIDTH 8 0
BBX 10 13 1 0
BITMAP
03C0
07C0
07C0
0780
0F80
0F80
0F80
0F80
0F00
EF00
FE00
FE00
7800
ENDCHAR
STARTCHAR 0384
ENCODING 900
SWIDTH 154 0
DWIDTH 3 0
BBX 3 3 3 11
BITMAP
60
C0
80
ENDCHAR
STARTCHAR 0385
ENCODING 901
SWIDTH 308 0
DWIDTH 6 0
BBX 6 3 3 14
BITMAP
18
18
CC
ENDCHAR
STARTCHAR 0386
ENCODING 902
SWIDTH 617 0
DWIDTH 12 0
BBX 11 14 1 0
BITMAP
0600
0D80
0980
0380
07C0
07C0
0FC0
0FC0
1BC0
33C0
3FC0
7BC0
E3E0
E3E0
ENDCHAR
STARTCHAR 0387
ENCODING 903
SWIDTH 205 0
DWIDTH 4 0
BBX 4 3 2 7
BITMAP
F0
E0
E0
ENDCHAR
STARTCHAR 0388
ENCODING 904
SWIDTH 565 0
DWIDTH 11 0
BBX 9 14 3 0
BITMAP
6E00
FF80
BF00
3F00
3E00
3800
3E00
3E00
3800
3F00
3F80
7F80
7F00
7800
ENDCHAR
STARTCHAR 0389
ENCODING 905
SWIDTH 565 0
DWIDTH 11 0
BBX 13 14 1 0
BITMAP
1800
3F38
2F38
0F78
1E70
1E70
1FF0
3FE0
3FF0
3FE0
3DE0
79E0
79C0
FB00
ENDCHAR
STARTCHAR 038A
ENCODING 906
SWIDTH 360 0
DWIDTH 7 0
BBX 8 14 2 0
BITMAP
30
7F
5E
1E
3E
3C
3C
3C
7C
78
78
78
F0
E0
ENDCHAR
STARTCHAR 038C
ENCODING 908
SWIDTH 514 0
DWIDTH 10 0
BBX 10 14 2 0
BITMAP
3400
7E00
5F80
3F80
7F80
7FC0
F3C0
F3C0
F3C0
FF80
FF80
FF00
FF00
3C00
ENDCHAR
STARTCHAR 038E
ENCODING 910
SWIDTH 668 0
DWIDTH 13 0
BBX 13 14 3 0
BITMAP
6000
D878
F870
38E0
3DE0
3DC0
3F80
1F00
1F00
1E00
0E00
0E00
1E00
1C00
ENDCHAR
STARTCHAR 038F
ENCODING 911
SWIDTH 617 0
DWIDTH 12 0
BBX 13 14 1 0
BITMAP
1AC0
3FE0
3FF0
1FF8
3C78
3878
3838
3830
3070
3860
38E0
F9F0
F9F0
F9E0
ENDCHAR
STARTCHAR 0390
ENCODING 912
SWIDTH 308 0
DWIDTH 6 0
BBX 9 17 1 0
BITMAP
0300
0200
0D80
0000
1F00
1E00
1E00
1E00
3C00
3C00
3C00
7C00
7800
7800
7800
F000
E000
ENDCHAR
STARTCHAR 0391
ENCODING 913
SWIDTH 617 0
DWIDTH 12 0
BBX 11 13 1 0
BITMAP
0180
0180
0380
07C0
07C0
0FC0
0FC0
1BC0
33C0
3FC0
7BC0
E3E0
E3E0
ENDCHAR
STARTCHAR 0392
ENCODING 914
SWIDTH 514 0
DWIDTH 10 0
BBX 9 13 2 0
BITMAP
7F00
7F00
7F00
7300
7700
7E00
7F00
FF00
F380
F780
FF00
FE00
F000
ENDCHAR
STARTCHAR 0393
ENCODING 915
SWIDTH 462 0
DWIDTH 9 0
BBX 11 14 1 0
BITMAP
01C0
3FE0
3FE0
3C00
7800
7800
7000
7000
F000
F000
E000
E000
E000
F000
ENDCHAR
STARTCHAR 0394
ENCODING 916
SWIDTH 565 0
DWIDTH 11 0
BBX 12 13 0 0
BITMAP
00E0
01E0
03E0
07E0
07E0
0FE0
1EE0
1CE0
3CE0
39E0
7FF0
7FE0
FFE0
ENDCHAR
STARTCHAR 0395
ENCODING 917
SWIDTH 462 0
DWIDTH 9 0
BBX 8 14 2 0
BITMAP
0C
7F
7F
7E
7E
70
7C
7C
70
7F
7F
7F
FF
70
ENDCHAR
STARTCHAR 0396
ENCODING 918
SWIDTH 565 0
DWIDTH 11 0
BBX 9 13 3 0
BITMAP
7F80
FF00
FE00
0E00
1C00
1C00
3800
3800
7000
EF80
FF80
FF00
3E00
ENDCHAR
STARTCHAR 0397
ENCODING 919
SWIDTH 514 0
DWIDTH 10 0
BBX 12 13 1 0
BITMAP
1E70
1E70
1EF0
1CE0
3CE0
3FE0
3FE0
7FE0
7FC0
7BC0
FBC0
F380
F600
ENDCHAR
STARTCHAR 0398
ENCODING 920
SWIDTH 514 0
DWIDTH 10 0
BBX 10 14 2 0
BITMAP
0400
1F80
3F80
7FC0
7FC0
F7C0
E7C0
FFC0
E380
FF80
FF00
FF00
7E00
3C00
ENDCHAR
STARTCHAR 0399
ENCODING 921
SWIDTH 308 0
DWIDTH 6 0
BBX 8 13 1 0
BITMAP
1F
1E
1E
1E
3C
3C
3C
7C
78
78
78
F0
E0
ENDCHAR
STARTCHAR 039A
ENCODING 922
SWIDTH 514 0
DWIDTH 10 0
BBX 13 13 0 0
BITMAP
1F30
1F78
1FF0
1FE0
3FC0
3F80
3F00
3F80
7F80
7DC0
7DC0
7DE0
F880
ENDCHAR
STARTCHAR 039B
ENCODING 923
SWIDTH 565 0
DWIDTH 11 0
BBX 10 13 1 0
BITMAP
0E00
0E00
0F00
1F00
1F80
3F80
3B80
7BC0
7BC0
F3C0
F3C0
F7C0
E000
ENDCHAR
STARTCHAR 039C
ENCODING 924
SWIDTH 617 0
DWIDTH 12 0
BBX 13 13 0 0
BITMAP
0408
0E18
0E38
0E38
1F78
1FF8
1FF8
3FF8
3C78
38F8
78F8
70F8
F060
ENDCHAR
STARTCHAR 039D
ENCODING 925
SWIDTH 565 0
DWIDTH 11 0
BBX 13 13 0 0
BITMAP
0F38
0F78
0F78
1F70
1F70
3FF0
3FE0
3FE0
3BE0
7BE0
7BC0
7BC0
F380
ENDCHAR
STARTCHAR 039E
ENCODING 926
SWIDTH 462 0
DWIDTH 9 0
BBX 11 13 1 0
BITMAP
3FE0
3FC0
3FC0
0000
0000
3F80
3F00
3000
0000
4000
FF80
FF00
FF00
ENDCHAR
STARTCHAR 039F
ENCODING 927
SWIDTH 514 0
DWIDTH 10 0
BBX 10 14 2 0
BITMAP
0800
1E00
3F00
3F80
7F80
FF80
F3C0
E380
F780
FF80
FF80
FF00
FE00
7C00
ENDCHAR
STARTCHAR 03A0
ENCODING 928
SWIDTH 514 0
DWIDTH 10 0
BBX 12 13 1 0
BITMAP
3FF0
3FF0
3FF0
78E0
78E0
71E0
71E0
71C0
71C0
F1C0
F3C0
F3C0
E3C0
ENDCHAR
STARTCHAR 03A1
ENCODING 929
SWIDTH 462 0
DWIDTH 9 0
BBX 11 13 0 0
BITMAP
0FC0
1FE0
1FE0
1C60
1CE0
3DE0
3FC0
3F80
7C00
7C00
7C00
7C00
F800
ENDCHAR
STARTCHAR 03A3
ENCODING 931
SWIDTH 462 0
DWIDTH 9 0
BBX 11 13 1 0
BITMAP
3FE0
3FC0
3FC0
3C00
1E00
0F00
0700
0E00
3C00
7800
FF80
FF00
FF00
ENDCHAR
STARTCHAR 03A4
ENCODING 932
SWIDTH 565 0
DWIDTH 11 0
BBX 11 13 2 0
BITMAP
7FE0
7FE0
7FE0
FFA0
8E00
0E00
0E00
1C00
1C00
1C00
1C00
1800
3800
ENDCHAR
STARTCHAR 03A5
ENCODING 933
SWIDTH 565 0
DWIDTH 11 0
BBX 11 13 3 0
BITMAP
20E0
F1C0
F1C0
F380
7700
7F00
7E00
3C00
3800
3800
3800
3800
3800
ENDCHAR
STARTCHAR 03A6
ENCODING 934
SWIDTH 617 0
DWIDTH 12 0
BBX 13 15 1 -1
BITMAP
01C0
0FD0
1FF8
3FF8
3FF8
7BB8
77B8
7778
7770
FFF0
FFE0
FFC0
6F80
1C00
1C00
ENDCHAR
STARTCHAR 03A7
ENCODING 935
SWIDTH 565 0
DWIDTH 11 0
BBX 13 13 1 0
BITMAP
1C78
3CF0
3CE0
3DE0
3FC0
1F80
0F80
1F00
1F80
3B80
7B80
7380
F000
ENDCHAR
STARTCHAR 03A8
ENCODING 936
SWIDTH 720 0
DWIDTH 14 0
BBX 14 13 2 0
BITMAP
739C
739C
739C
E3BC
E738
E738
F7F0
FFF0
7FE0
3F80
0E00
0E00
1E00
ENDCHAR
STARTCHAR 03A9
ENCODING 937
SWIDTH 565 0
DWIDTH 11 0
BBX 13 14 0 0
BITMAP
01C0
07F0
0FF8
1FF8
1E78
3C38
3838
3838
3830
3870
18E0
7CF0
7DF0
F9F0
ENDCHAR
STARTCHAR 03AA
ENCODING 938
SWIDTH 308 0
DWIDTH 6 0
BBX 9 16 1 0
BITMAP
0980
0D80
0000
1F00
1E00
1E00
1E00
3C00
3C00
3C00
7C00
7800
7800
7800
F000
E000
ENDCHAR
STARTCHAR 03AB
ENCODING 939
SWIDTH 565 0
DWIDTH 11 0
BBX 11 16 3 0
BITMAP
0980
1D80
0000
20E0
F1C0
F1C0
F380
7700
7F00
7E00
3C00
3800
3800
3800
3800
3800
ENDCHAR
STARTCHAR 03AC
ENCODING 940
SWIDTH 617 0
DWIDTH 12 0
BBX 11 14 1 0
BITMAP
0600
0D80
0980
0380
07C0
07C0
0FC0
0FC0
1BC0
33C0
3FC0
7BC0
E3E0
E3E0
ENDCHAR
STARTCHAR 03AD
ENCODING 941
SWIDTH 565 0
DWIDTH 11 0
BBX 9 14 3 0
BITMAP
6E00
FF80
BF00
3F00
3E00
3800
3E00
3E00
3800
3F00
3F80
7F80
7F00
7800
ENDCHAR
STARTCHAR 03AE
ENCODING 942
SWIDTH 565 0
DWIDTH 11 0
BBX 13 14 1 0
BITMAP
1800
3F38
2F38
0F78
1E70
1E70
1FF0
3FE0
3FF0
3FE0
3DE0
79E0
79C0
FB00
ENDCHAR
STARTCHAR 03AF
ENCODING 943
SWIDTH 360 0
DWIDTH 7 0
BBX 8 14 2 0
BITMAP
30
7F
5E
1E
3E
3C
3C
3C
7C
78
78
78
F0
E0
ENDCHAR
STARTCHAR 03B0
ENCODING 944
SWIDTH 565 0
DWIDTH 11 0
BBX 11 17 3 0
BITMAP
0300
0300
1D80
0000
20E0
F1C0
F1C0
F380
7700
7F00
7E00
3C00
3800
3800
3800
3800
3800
ENDCHAR
STARTCHAR 03B1
ENCODING 945
SWIDTH 617 0
DWIDTH 12 0
BBX 11 13 1 0
BITMAP
0180
0180
0380
07C0
07C0
0FC0
0FC0
1BC0
33C0
3FC0
7BC0
E3E0
E3E0
ENDCHAR
STARTCHAR 03B2
ENCODING 946
SWIDTH 514 0
DWIDTH 10 0
BBX 9 13 2 0
BITMAP
7F00
7F00
7F00
7300
7700
7E00
7F00
FF00
F380
F780
FF00
FE00
F000
ENDCHAR
STARTCHAR 03B3
ENCODING 947
SWIDTH 462 0
DWIDTH 9 0
BBX 11 14 1 0
BITMAP
01C0
3FE0
3FE0
3C00
7800
7800
7000
7000
F000
F000
E000
E000
E000
F000
ENDCHAR
STARTCHAR 03B4
ENCODING 948
SWIDTH 565 0
DWIDTH 11 0
BBX 12 13 0 0
BITMAP
00E0
01E0
03E0
07E0
07E0
0FE0
1EE0
1CE0
3CE0
39E0
7FF0
7FE0
FFE0
ENDCHAR
STARTCHAR 03B5
ENCODING 949
SWIDTH 462 0
DWIDTH 9 0
BBX 8 14 2 0
BITMAP
0C
7F
7F
7E
7E
70
7C
7C
70
7F
7F
7F
FF
70
ENDCHAR
STARTCHAR 03B6
ENCODING 950
SWIDTH 565 0
DWIDTH 11 0
BBX 9 13 3 0
BITMAP
7F80
FF00
FE00
0E00
1C00
1C00
3800
3800
7000
EF80
FF80
FF00
3E00
ENDCHAR
STARTCHAR 03B7
ENCODING 951
SWIDTH 514 0
DWIDTH 10 0
BBX 12 13 1 0
BITMAP
1E70
1E70
1EF0
1CE0
3CE0
3FE0
3FE0
7FE0
7FC0
7BC0
FBC0
F380
F600
ENDCHAR
STARTCHAR 03B8
ENCODING 952
SWIDTH 514 0
DWIDTH 10 0
BBX 10 14 2 0
BITMAP
0400
1F80
3F80
7FC0
7FC0
F7C0
E7C0
FFC0
E380
FF80
FF00
FF00
7E00
3C00
ENDCHAR
STARTCHAR 03B9
ENCODING 953
SWIDTH 308 0
DWIDTH 6 0
BBX 8 13 1 0
BITMAP
1F
1E
1E
1E
3C
3C
3C
7C
78
78
78
F0
E0
ENDCHAR
STARTCHAR 03BA
ENCODING 954
SWIDTH 514 0
DWIDTH 10 0
BBX 13 13 0 0
BITMAP
1F30
1F78
1FF0
1FE0
3FC0
3F80
3F00
3F80
7F80
7DC0
7DC0
7DE0
F880
ENDCHAR
STARTCHAR 03BB
ENCODING 955
SWIDTH 565 0
DWIDTH 11 0
BBX 10 13 1 0
BITMAP
0E00
0E00
0F00
1F00
1F80
3F80
3B80
7BC0
7BC0
F3C0
F3C0
F7C0
E000
ENDCHAR
STARTCHAR 03BC
ENCODING 956
SWIDTH 617 0
DWIDTH 12 0
BBX 13 13 0 0
BITMAP
0408
0E18
0E38
0E38
1F78
1FF8
1FF8
3FF8
3C78
38F8
78F8
70F8
F060
ENDCHAR
STARTCHAR 03BD
ENCODING 957
SWIDTH 565 0
DWIDTH 11 0
BBX 13 13 0 0
BITMAP
0F38
0F78
0F78
1F70
1F70
3FF0
3FE0
3FE0
3BE0
7BE0
7BC0
7BC0
F380
ENDCHAR
STARTCHAR 03BE
ENCODING 958
SWIDTH 462 0
DWIDTH 9 0
BBX 11 13 1 0
BITMAP
3FE0
3FC0
3FC0
0000
0000
3F80
3F00
3000
0000
4000
FF80
FF00
FF00
ENDCHAR
STARTCHAR 03BF
ENCODING 959
SWIDTH 514 0
DWIDTH 10 0
BBX 10 14 2 0
BITMAP
0800
1E00
3F00
3F80
7F80
FF80
F3C0
E380
F780
FF80
FF80
FF00
FE00
7C00
ENDCHAR
STARTCHAR 03C0
ENCODING 960
SWIDTH 514 0
DWIDTH 10 0
BBX 12 13 1 0
BITMAP
3FF0
3FF0
3FF0
78E0
78E0
71E0
71E0
71C0
71C0
F1C0
F3C0
F3C0
E3C0
ENDCHAR
STARTCHAR 03C1
ENCODING 961
SWIDTH 462 0
DWIDTH 9 0
BBX 11 13 0 0
BITMAP
0FC0
1FE0
1FE0
1C60
1CE0
3DE0
3FC0
3F80
7C00
7C00
7C00
7C00
F800
ENDCHAR
STARTCHAR 03C2
ENCODING 962
SWIDTH 462 0
DWIDTH 9 0
BBX 10 16 2 -3
BITMAP
0F80
3FC0
7FC0
7F80
F000
E000
E000
E000
F000
FE00
FF00
7E00
0E00
3E00
3C00
3000
ENDCHAR
STARTCHAR 03C3
ENCODING 963
SWIDTH 462 0
DWIDTH 9 0
BBX 11 13 1 0
BITMAP
3FE0
3FC0
3FC0
3C00
1E00
0F00
0700
0E00
3C00
7800
FF80
FF00
FF00
ENDCHAR
STARTCHAR 03C4
ENCODING 964
SWIDTH 565 0
DWIDTH 11 0
BBX 11 13 2 0
BITMAP
7FE0
7FE0
7FE0
FFA0
8E00
0E00
0E00
1C00
1C00
1C00
1C00
1800
3800
ENDCHAR
STARTCHAR 03C5
ENCODING 965
SWIDTH 565 0
DWIDTH 11 0
BBX 11 13 3 0
BITMAP
20E0
F1C0
F1C0
F380
7700
7F00
7E00
3C00
3800
3800
3800
3800
3800
ENDCHAR
STARTCHAR 03C6
ENCODING 966
SWIDTH 617 0
DWIDTH 12 0
BBX 13 15 1 -1
BITMAP
01C0
0FD0
1FF8
3FF8
3FF8
7BB8
77B8
7778
7770
FFF0
FFE0
FFC0
6F80
1C00
1C00
ENDCHAR
STARTCHAR 03C7
ENCODING 967
SWIDTH 565 0
DWIDTH 11 0
BBX 13 13 1 0
BITMAP
1C78
3CF0
3CE0
3DE0
3FC0
1F80
0F80
1F00
1F80
3B80
7B80
7380
F000
ENDCHAR
STARTCHAR 03C8
ENCODING 968
SWIDTH 720 0
DWIDTH 14 0
BBX 14 13 2 0
BITMAP
739C
739C
739C
E3BC
E738
E738
F7F0
FFF0
7FE0
3F80
0E00
0E00
1E00
ENDCHAR
STARTCHAR 03C9
ENCODING 969
SWIDTH 565 0
DWIDTH 11 0
BBX 13 14 0 0
BITMAP
01C0
07F0
0FF8
1FF8
1E78
3C38
3838
3838
3830
3870
18E0
7CF0
7DF0
F9F0
ENDCHAR
STARTCHAR 03CA
ENCODING 970
SWIDTH 308 0
DWIDTH 6 0
BBX 9 16 1 0
BITMAP
0980
0D80
0000
1F00
1E00
1E00
1E00
3C00
3C00
3C00
7C00
7800
7800
7800
F000
E000
ENDCHAR
STARTCHAR 03CB
ENCODING 971
SWIDTH 565 0
DWIDTH 11 0
BBX 11 16 3 0
BITMAP
0980
1D80
0000
20E0
F1C0
F1C0
F380
7700
7F00
7E00
3C00
3800
3800
3800
3800
3800
ENDCHAR
STARTCHAR 03CC
ENCODING 972
SWIDTH 514 0
DWIDTH 10 0
BBX 10 14 2 0
BITMAP
3400
7E00
5F80
3F80
7F80
7FC0
F3C0
F3C0
F3C0
FF80
FF80
FF00
FF00
3C00
ENDCHAR
STARTCHAR 03CD
ENCODING 973
SWIDTH 668 0
DWIDTH 13 0
BBX 13 14 3 0
BITMAP
6000
D878
F870
38E0
3DE0
3DC0
3F80
1F00
1F00
1E00
0E00
0E00
1E00
1C00
ENDCHAR
STARTCHAR 03CE
ENCODING 974
SWIDTH 617 0
DWIDTH 12 0
BBX 13 14 1 0
BITMAP
1AC0
3FE0
3FF0
1FF8
3C78
3878
3838
3830
3070
3860
38E0
F9F0
F9F0
F9E0
ENDCHAR
STARTCHAR 03D2
ENCODING 978
SWIDTH 617 0
DWIDTH 12 0
BBX 12 13 3 0
BITMAP
E0E0
F1F0
F3E0
3BE0
3F00
3600
3C00
3C00
3800
3800
3800
7800
7800
ENDCHAR
STARTCHAR 03D3
ENCODING 979
SWIDTH 720 0
DWIDTH 14 0
BBX 13 14 3 0
BITMAP
6000
F838
BC78
3CF8
0CF8
0D80
0D80
0F00
0F00
0E00
0E00
0E00
1E00
1C00
ENDCHAR
STARTCHAR 03D4
ENCODING 980
SWIDTH 617 0
DWIDTH 12 0
BBX 12 16 3 0
BITMAP
0980
1D80
0000
E0E0
F1F0
F3E0
3BE0
3F00
3600
3C00
3C00
3800
3800
3800
7800
7800
ENDCHAR
STARTCHAR 03D5
ENCODING 981
SWIDTH 617 0
DWIDTH 12 0
BBX 13 15 1 -1
BITMAP
01C0
0FD0
1FF8
3FF8
3FF8
7BB8
77B8
7778
7770
FFF0
FFE0
FFC0
6F80
1C00
1C00
ENDCHAR
STARTCHAR 03D8
ENCODING 984
SWIDTH 514 0
DWIDTH 10 0
BBX 11 16 1 -2
BITMAP
0180
07C0
1FE0
1FE0
3FE0
79E0
71E0
71E0
71C0
FFC0
FF80
7F80
7F00
3C00
1C00
3800
ENDCHAR
STARTCHAR 03D9
ENCODING 985
SWIDTH 514 0
DWIDTH 10 0
BBX 11 16 1 -2
BITMAP
0180
07C0
1FE0
1FE0
3FE0
79E0
71E0
71E0
71C0
FFC0
FF80
7F80
7F00
3C00
1C00
3800
ENDCHAR
STARTCHAR 03DA
ENCODING 986
SWIDTH 462 0
DWIDTH 9 0
BBX 11 17 1 -3
BITMAP
01C0
0FE0
1FE0
3FC0
3C00
7000
7000
7000
F000
F800
7E00
7F80
3F00
0700
1F00
1E00
1800
ENDCHAR
STARTCHAR 03DB
ENCODING 987
SWIDTH 462 0
DWIDTH 9 0
BBX 11 17 1 -3
BITMAP
01C0
0FE0
1FE0
3FC0
3C00
7000
7000
7000
F000
F800
7E00
7F80
3F00
0700
1F00
1E00
1800
ENDCHAR
STARTCHAR 03F2
ENCODING 1010
SWIDTH 462 0
DWIDTH 9 0
BBX 10 13 2 0
BITMAP
0F80
3FC0
7F80
7E80
F000
F000
F000
FF00
FF00
FF00
FF00
FE00
3800
ENDCHAR
STARTCHAR 03F3
ENCODING 1011
SWIDTH 411 0
DWIDTH 8 0
BBX 10 13 1 0
BITMAP
03C0
07C0
07C0
0780
0F80
0F80
0F80
0F80
0F00
EF00
FE00
FE00
7800
ENDCHAR
STARTCHAR 03F4
ENCODING 1012
SWIDTH 514 0
DWIDTH 10 0
BBX 10 14 2 0
BITMAP
0C00
1F00
3F80
7F80
7F80
F3C0
FFC0
FFC0
E380
FF80
FF00
FF00
FE00
3C00
ENDCHAR
STARTCHAR 03F7
ENCODING 1015
SWIDTH 462 0
DWIDTH 9 0
BBX 10 13 1 0
BITMAP
3800
3C00
3F80
7F80
79C0
79C0
71C0
7380
7F80
7F00
F000
F000
F000
ENDCHAR
STARTCHAR 03F8
ENCODING 1016
SWIDTH 462 0
DWIDTH 9 0
BBX 10 13 1 0
BITMAP
3800
3C00
3F80
7F80
79C0
79C0
71C0
7380
7F80
7F00
F000
F000
F000
ENDCHAR
STARTCHAR 03F9
ENCODING 1017
SWIDTH 462 0
DWIDTH 9 0
BBX 10 13 2 0
BITMAP
0F80
3FC0
7F80
7E80
F000
F000
F000
FF00
FF00
FF00
FF00
FE00
3800
ENDCHAR
STARTCHAR 03FA
ENCODING 1018
SWIDTH 617 0
DWIDTH 12 0
BBX 13 13 0 0
BITMAP
0818
1C78
1FF8
1FF0
3FF0
3C70
3C70
3C70
7870
7870
7870
7870
F870
ENDCHAR
STARTCHAR 03FB
ENCODING 1019
SWIDTH 617 0
DWIDTH 12 0
BBX 13 13 0 0
BITMAP
0818
1C78
1FF8
1FF0
3FF0
3C70
3C70
3C70
7870
7870
7870
7870
F870
ENDCHAR
STARTCHAR 03FD
ENCODING 1021
SWIDTH 462 0
DWIDTH 9 0
BBX 10 13 1 0
BITMAP
1F00
3F80
3FC0
0FC0
03C0
03C0
03C0
7F80
FF80
FF00
FF00
7E00
3800
ENDCHAR
STARTCHAR 0400
ENCODING 1024
SWIDTH 462 0
DWIDTH 9 0
BBX 8 17 2 0
BITMAP
38
38
18
0C
7F
7F
7E
7E
70
7C
7C
70
7F
7F
7F
FF
70
ENDCHAR
STARTCHAR 0401
ENCODING 1025
SWIDTH 462 0
DWIDTH 9 0
BBX 8 16 2 0
BITMAP
36
36
0C
7F
7F
7E
7E
70
7C
7C
70
7F
7F
7F
FF
70
ENDCHAR
STARTCHAR 0402
ENCODING 1026
SWIDTH 668 0
DWIDTH 13 0
BBX 11 15 3 -2
BITMAP
FFC0
FFC0
FFC0
1C00
1FC0
1FE0
1FE0
3CE0
38E0
38E0
38C0
39C0
71C0
07C0
0780
ENDCHAR
STARTCHAR 0403
ENCODING 1027
SWIDTH 462 0
DWIDTH 9 0
BBX 11 17 1 0
BITMAP
01C0
0180
0300
01C0
3FE0
3FE0
3C00
7800
7800
7000
7000
F000
F000
E000
E000
E000
F000
ENDCHAR
STARTCHAR 0404
ENCODING 1028
SWIDTH 462 0
DWIDTH 9 0
BBX 11 13 1 0
BITMAP
0FC0
1FE0
3FC0
3FC0
78C0
7F00
7F00
FF00
F000
FF80
7F80
7F00
1E00
ENDCHAR
STARTCHAR 0405
ENCODING 1029
SWIDTH 462 0
DWIDTH 9 0
BBX 11 13 1 0
BITMAP
0FE0
1FC0
1FC0
3F80
3B00
3C00
3F00
0F80
0380
D780
FF00
FF00
7C00
ENDCHAR
STARTCHAR 0406
ENCODING 1030
SWIDTH 308 0
DWIDTH 6 0
BBX 8 13 1 0
BITMAP
1F
1E
1E
1E
3C
3C
3C
7C
78
78
78
F0
E0
ENDCHAR
STARTCHAR 0407
ENCODING 1031
SWIDTH 308 0
DWIDTH 6 0
BBX 9 16 1 0
BITMAP
0980
0D80
0000
1F00
1E00
1E00
1E00
3C00
3C00
3C00
7C00
7800
7800
7800
F000
E000
ENDCHAR
STARTCHAR 0408
ENCODING 1032
SWIDTH 411 0
DWIDTH 8 0
BBX 10 13 1 0
BITMAP
03C0
07C0
07C0
0780
0F80
0F80
0F80
0F80
0F00
EF00
FE00
FE00
7800
ENDCHAR
STARTCHAR 0409
ENCODING 1033
SWIDTH 720 0
DWIDTH 14 0
BBX 14 13 1 0
BITMAP
07E0
07E0
0FE0
0FC0
1FE0
1DF8
3DFC
3B9C
7B9C
7398
F3B8
F7F8
E7E0
ENDCHAR
STARTCHAR 040A
ENCODING 1034
SWIDTH 720 0
DWIDTH 14 0
BBX 14 13 1 0
BITMAP
1EE0
1EE0
1CE0
3DC0
3DE0
3FF8
7FFC
7F9C
7F9C
7398
F3B8
F7F8
F7E0
ENDCHAR
STARTCHAR 040B
ENCODING 1035
SWIDTH 668 0
DWIDTH 13 0
BBX 11 13 3 0
BITMAP
FFC0
FFC0
FFC0
1C00
1FC0
1FE0
1FE0
3DE0
39E0
39E0
39C0
39C0
71C0
ENDCHAR
STARTCHAR 040C
ENCODING 1036
SWIDTH 514 0
DWIDTH 10 0
BBX 13 17 0 0
BITMAP
0038
0030
0060
0000
1F30
1F78
1FF0
1FE0
3FC0
3F80
3F00
3F80
7F80
7DC0
7DC0
7DE0
F880
ENDCHAR
STARTCHAR 040D
ENCODING 1037
SWIDTH 514 0
DWIDTH 10 0
BBX 10 17 2 0
BITMAP
1C00
0C00
0C00
0000
73C0
73C0
73C0
73C0
77C0
FFC0
FF80
FF80
FB80
F380
F780
E780
E380
ENDCHAR
STARTCHAR 040E
ENCODING 1038
SWIDTH 514 0
DWIDTH 10 0
BBX 12 17 0 0
BITMAP
0660
07E0
03C0
0000
1EF0
1EF0
1EE0
0FE0
0FC0
0FC0
0FC0
0780
0780
7F80
7F00
7E00
F000
ENDCHAR
STARTCHAR 040F
ENCODING 1039
SWIDTH 514 0
DWIDTH 10 0
BBX 11 15 1 -2
BITMAP
38E0
38E0
38E0
78E0
79E0
71C0
71C0
71C0
E1C0
FFC0
FFC0
FF80
FE00
1C00
3800
ENDCHAR
STARTCHAR 0410
ENCODING 1040
SWIDTH 617 0
DWIDTH 12 0
BBX 11 13 1 0
BITMAP
0180
0180
0380
07C0
07C0
0FC0
0FC0
1BC0
33C0
3FC0
7BC0
E3E0
E3E0
ENDCHAR
STARTCHAR 0411
ENCODING 1041
SWIDTH 462 0
DWIDTH 9 0
BBX 11 13 1 0
BITMAP
3FE0
3FC0
3FC0
38C0
3800
3F80
7FC0
7B80
7980
7380
7F00
FE00
7800
ENDCHAR
STARTCHAR 0412
ENCODING 1042
SWIDTH 514 0
DWIDTH 10 0
BBX 9 13 2 0
BITMAP
7F00
7F00
7F00
7300
7700
7E00
7F00
FF00
F380
F780
FF00
FE00
F000
ENDCHAR
STARTCHAR 0413
ENCODING 1043
SWIDTH 462 0
DWIDTH 9 0
BBX 11 14 1 0
BITMAP
01C0
3FE0
3FE0
3C00
7800
7800
7000
7000
F000
F000
E000
E000
E000
F000
ENDCHAR
STARTCHAR 0414
ENCODING 1044
SWIDTH 565 0
DWIDTH 11 0
BBX 11 16 1 -3
BITMAP
01C0
03C0
07C0
07C0
0FC0
0FC0
1DC0
3DC0
39C0
7BC0
FFC0
FFE0
FFC0
C1C0
E180
C200
ENDCHAR
STARTCHAR 0415
ENCODING 1045
SWIDTH 462 0
DWIDTH 9 0
BBX 8 14 2 0
BITMAP
0C
7F
7F
7E
7E
70
7C
7C
70
7F
7F
7F
FF
70
ENDCHAR
STARTCHAR 0416
ENCODING 1046
SWIDTH 668 0
DWIDTH 13 0
BBX 14 13 1 0
BITMAP
39DC
3F9C
3FBC
3FB8
3FF8
1FF0
1FF0
3FF0
3FF8
7F78
F778
F770
E700
ENDCHAR
STARTCHAR 0417
ENCODING 1047
SWIDTH 462 0
DWIDTH 9 0
BBX 9 14 2 0
BITMAP
0800
7F00
7F80
6780
0780
0700
3F00
3F00
0F00
0700
DF00
FF00
FE00
F800
ENDCHAR
STARTCHAR 0418
ENCODING 1048
SWIDTH 514 0
DWIDTH 10 0
BBX 10 13 2 0
BITMAP
73C0
73C0
73C0
73C0
77C0
FFC0
FF80
FF80
FB80
F380
F780
E780
E380
ENDCHAR
STARTCHAR 0419
ENCODING 1049
SWIDTH 514 0
DWIDTH 10 0
BBX 10 17 2 0
BITMAP
1980
1F80
0F00
0000
73C0
73C0
73C0
73C0
77C0
FFC0
FF80
FF80
FB80
F380
F780
E780
E380
ENDCHAR
STARTCHAR 041A
ENCODING 1050
SWIDTH 514 0
DWIDTH 10 0
BBX 13 13 0 0
BITMAP
1F30
1F78
1FF0
1FE0
3FC0
3F80
3F00
3F80
7F80
7DC0
7DC0
7DE0
F880
ENDCHAR
STARTCHAR 041B
ENCODING 1051
SWIDTH 565 0
DWIDTH 11 0
BBX 10 13 1 0
BITMAP
0E00
0E00
0F00
1F00
1F80
3F80
3B80
7BC0
7BC0
F3C0
F3C0
F7C0
E000
ENDCHAR
STARTCHAR 041C
ENCODING 1052
SWIDTH 617 0
DWIDTH 12 0
BBX 13 13 0 0
BITMAP
0408
0E18
0E38
0E38
1F78
1FF8
1FF8
3FF8
3C78
38F8
78F8
70F8
F060
ENDCHAR
STARTCHAR 041D
ENCODING 1053
SWIDTH 514 0
DWIDTH 10 0
BBX 12 13 1 0
BITMAP
1E70
1E70
1EF0
1CE0
3CE0
3FE0
3FE0
7FE0
7FC0
7BC0
FBC0
F380
F600
ENDCHAR
STARTCHAR 041E
ENCODING 1054
SWIDTH 514 0
DWIDTH 10 0
BBX 10 14 2 0
BITMAP
0800
1E00
3F00
3F80
7F80
FF80
F3C0
E380
F780
FF80
FF80
FF00
FE00
7C00
ENDCHAR
STARTCHAR 041F
ENCODING 1055
SWIDTH 514 0
DWIDTH 10 0
BBX 12 13 1 0
BITMAP
3FF0
3FF0
3FF0
78E0
78E0
71E0
71E0
71C0
71C0
F1C0
F3C0
F3C0
E3C0
ENDCHAR
STARTCHAR 0420
ENCODING 1056
SWIDTH 462 0
DWIDTH 9 0
BBX 11 13 0 0
BITMAP
0FC0
1FE0
1FE0
1C60
1CE0
3DE0
3FC0
3F80
7C00
7C00
7C00
7C00
F800
ENDCHAR
STARTCHAR 0421
ENCODING 1057
SWIDTH 462 0
DWIDTH 9 0
BBX 10 13 2 0
BITMAP
0F80
3FC0
7F80
7E80
F000
F000
F000
FF00
FF00
FF00
FF00
FE00
3800
ENDCHAR
STARTCHAR 0422
ENCODING 1058
SWIDTH 565 0
DWIDTH 11 0
BBX 11 13 2 0
BITMAP
7FE0
7FE0
7FE0
FFA0
8E00
0E00
0E00
1C00
1C00
1C00
1C00
1800
3800
ENDCHAR
STARTCHAR 0423
ENCODING 1059
SWIDTH 514 0
DWIDTH 10 0
BBX 12 13 0 0
BITMAP
1EF0
1EF0
1EE0
0FE0
0FC0
0FC0
0FC0
0780
0780
7F80
7F00
7E00
F000
ENDCHAR
STARTCHAR 0424
ENCODING 1060
SWIDTH 617 0
DWIDTH 12 0
BBX 13 15 1 -1
BITMAP
01C0
0FD0
1FF8
3FF8
3FF8
7BB8
77B8
7778
7770
FFF0
FFE0
FFC0
6F80
1C00
1C00
ENDCHAR
STARTCHAR 0425
ENCODING 1061
SWIDTH 565 0
DWIDTH 11 0
BBX 13 13 1 0
BITMAP
1C78
3CF0
3CE0
3DE0
3FC0
1F80
0F80
1F00
1F80
3B80
7B80
7380
F000
ENDCHAR
STARTCHAR 0426
ENCODING 1062
SWIDTH 514 0
DWIDTH 10 0
BBX 12 15 1 -2
BITMAP
3C70
38E0
38E0
38E0
79E0
71E0
71C0
71C0
F1C0
FFC0
FFC0
FF80
3780
0380
0380
ENDCHAR
STARTCHAR 0427
ENCODING 1063
SWIDTH 514 0
DWIDTH 10 0
BBX 9 13 2 0
BITMAP
7380
7380
7380
F380
F380
F380
FF80
FF00
7F00
0700
0700
0700
0700
ENDCHAR
STARTCHAR 0428
ENCODING 1064
SWIDTH 720 0
DWIDTH 14 0
BBX 15 13 1 0
BITMAP
38CE
39CE
39CE
79CE
79DE
73DC
739C
739C
739C
7FFC
7FF8
7FF8
FFF8
ENDCHAR
STARTCHAR 0429
ENCODING 1065
SWIDTH 720 0
DWIDTH 14 0
BBX 16 16 1 -2
BITMAP
3CCF
38CE
38CE
79CE
79DC
799C
799C
7BBC
7BBC
7FF8
7FF8
FFF8
FFF0
0070
0070
0060
ENDCHAR
STARTCHAR 042A
ENCODING 1066
SWIDTH 617 0
DWIDTH 12 0
BBX 10 13 3 0
BITMAP
F800
F800
F800
3800
3F80
3FC0
3FC0
39C0
79C0
71C0
7F80
7F00
7C00
ENDCHAR
STARTCHAR 042B
ENCODING 1067
SWIDTH 668 0
DWIDTH 13 0
BBX 14 13 1 0
BITMAP
381C
381C
381C
781C
7F1C
7FB8
7FB8
71B8
73B8
73B8
FF30
FE70
FC70
ENDCHAR
STARTCHAR 042C
ENCODING 1068
SWIDTH 462 0
DWIDTH 9 0
BBX 9 13 1 0
BITMAP
3800
3800
3800
7800
7F00
7F80
7F80
7180
7380
7380
F780
FF00
FE00
ENDCHAR
STARTCHAR 042D
ENCODING 1069
SWIDTH 462 0
DWIDTH 9 0
BBX 10 13 1 0
BITMAP
1F80
3F80
3FC0
3FC0
23C0
1FC0
3FC0
3FC0
0380
FF80
FF00
FE00
7800
ENDCHAR
STARTCHAR 042E
ENCODING 1070
SWIDTH 668 0
DWIDTH 13 0
BBX 14 14 1 0
BITMAP
0060
1CF8
1CF8
1DF8
3DF8
3DFC
3F98
7FB8
7FB8
7BB8
FBF0
FBF0
F9E0
00C0
ENDCHAR
STARTCHAR 042F
ENCODING 1071
SWIDTH 514 0
DWIDTH 10 0
BBX 11 13 1 0
BITMAP
0FE0
1FE0
33E0
33E0
73C0
7FC0
3FC0
1FC0
3FC0
37C0
77C0
E780
E780
ENDCHAR
STARTCHAR 0430
ENCODING 1072
SWIDTH 617 0
DWIDTH 12 0
BBX 11 13 1 0
BITMAP
0180
0180
0380
07C0
07C0
0FC0
0FC0
1BC0
33C0
3FC0
7BC0
E3E0
E3E0
ENDCHAR
STARTCHAR 0431
ENCODING 1073
SWIDTH 462 0
DWIDTH 9 0
BBX 11 13 1 0
BITMAP
3FE0
3FC0
3FC0
38C0
3800
3F80
7FC0
7B80
7980
7380
7F00
FE00
7800
ENDCHAR
STARTCHAR 0432
ENCODING 1074
SWIDTH 514 0
DWIDTH 10 0
BBX 9 13 2 0
BITMAP
7F00
7F00
7F00
7300
7700
7E00
7F00
FF00
F380
F780
FF00
FE00
F000
ENDCHAR
STARTCHAR 0433
ENCODING 1075
SWIDTH 462 0
DWIDTH 9 0
BBX 11 14 1 0
BITMAP
01C0
3FE0
3FE0
3C00
7800
7800
7000
7000
F000
F000
E000
E000
E000
F000
ENDCHAR
STARTCHAR 0434
ENCODING 1076
SWIDTH 565 0
DWIDTH 11 0
BBX 11 16 1 -3
BITMAP
01C0
03C0
07C0
07C0
0FC0
0FC0
1DC0
3DC0
39C0
7BC0
FFC0
FFE0
FFC0
C1C0
E180
C200
ENDCHAR
STARTCHAR 0435
ENCODING 1077
SWIDTH 462 0
DWIDTH 9 0
BBX 8 14 2 0
BITMAP
0C
7F
7F
7E
7E
70
7C
7C
70
7F
7F
7F
FF
70
ENDCHAR
STARTCHAR 0436
ENCODING 1078
SWIDTH 668 0
DWIDTH 13 0
BBX 14 13 1 0
BITMAP
39DC
3F9C
3FBC
3FB8
3FF8
1FF0
1FF0
3FF0
3FF8
7F78
F778
F770
E700
ENDCHAR
STARTCHAR 0437
ENCODING 1079
SWIDTH 462 0
DWIDTH 9 0
BBX 9 14 2 0
BITMAP
0800
7F00
7F80
6780
0780
0700
3F00
3F00
0F00
0700
DF00
FF00
FE00
F800
ENDCHAR
STARTCHAR 0438
ENCODING 1080
SWIDTH 514 0
DWIDTH 10 0
BBX 10 13 2 0
BITMAP
73C0
73C0
73C0
73C0
77C0
FFC0
FF80
FF80
FB80
F380
F780
E780
E380
ENDCHAR
STARTCHAR 0439
ENCODING 1081
SWIDTH 514 0
DWIDTH 10 0
BBX 10 17 2 0
BITMAP
1980
1F80
0F00
0000
73C0
73C0
73C0
73C0
77C0
FFC0
FF80
FF80
FB80
F380
F780
E780
E380
ENDCHAR
STARTCHAR 043A
ENCODING 1082
SWIDTH 514 0
DWIDTH 10 0
BBX 13 13 0 0
BITMAP
1F30
1F78
1FF0
1FE0
3FC0
3F80
3F00
3F80
7F80
7DC0
7DC0
7DE0
F880
ENDCHAR
STARTCHAR 043B
ENCODING 1083
SWIDTH 565 0
DWIDTH 11 0
BBX 10 13 1 0
BITMAP
0E00
0E00
0F00
1F00
1F80
3F80
3B80
7BC0
7BC0
F3C0
F3C0
F7C0
E000
ENDCHAR
STARTCHAR 043C
ENCODING 1084
SWIDTH 617 0
DWIDTH 12 0
BBX 13 13 0 0
BITMAP
0408
0E18
0E38
0E38
1F78
1FF8
1FF8
3FF8
3C78
38F8
78F8
70F8
F060
ENDCHAR
STARTCHAR 043D
ENCODING 1085
SWIDTH 514 0
DWIDTH 10 0
BBX 12 13 1 0
BITMAP
1E70
1E70
1EF0
1CE0
3CE0
3FE0
3FE0
7FE0
7FC0
7BC0
FBC0
F380
F600
ENDCHAR
STARTCHAR 043E
ENCODING 1086
SWIDTH 514 0
DWIDTH 10 0
BBX 10 14 2 0
BITMAP
0800
1E00
3F00
3F80
7F80
FF80
F3C0
E380
F780
FF80
FF80
FF00
FE00
7C00
ENDCHAR
STARTCHAR 043F
ENCODING 1087
SWIDTH 514 0
DWIDTH 10 0
BBX 12 13 1 0
BITMAP
3FF0
3FF0
3FF0
78E0
78E0
71E0
71E0
71C0
71C0
F1C0
F3C0
F3C0
E3C0
ENDCHAR
STARTCHAR 0440
ENCODING 1088
SWIDTH 462 0
DWIDTH 9 0
BBX 11 13 0 0
BITMAP
0FC0
1FE0
1FE0
1C60
1CE0
3DE0
3FC0
3F80
7C00
7C00
7C00
7C00
F800
ENDCHAR
STARTCHAR 0441
ENCODING 1089
SWIDTH 462 0
DWIDTH 9 0
BBX 10 13 2 0
BITMAP
0F80
3FC0
7F80
7E80
F000
F000
F000
FF00
FF00
FF00
FF00
FE00
3800
ENDCHAR
STARTCHAR 0442
ENCODING 1090
SWIDTH 565 0
DWIDTH 11 0
BBX 11 13 2 0
BITMAP
7FE0
7FE0
7FE0
FFA0
8E00
0E00
0E00
1C00
1C00
1C00
1C00
1800
3800
ENDCHAR
STARTCHAR 0443
ENCODING 1091
SWIDTH 514 0
DWIDTH 10 0
BBX 12 13 0 0
BITMAP
1EF0
1EF0
1EE0
0FE0
0FC0
0FC0
0FC0
0780
0780
7F80
7F00
7E00
F000
ENDCHAR
STARTCHAR 0444
ENCODING 1092
SWIDTH 617 0
DWIDTH 12 0
BBX 13 15 1 -1
BITMAP
01C0
0FD0
1FF8
3FF8
3FF8
7BB8
77B8
7778
7770
FFF0
FFE0
FFC0
6F80
1C00
1C00
ENDCHAR
STARTCHAR 0445
ENCODING 1093
SWIDTH 565 0
DWIDTH 11 0
BBX 13 13 1 0
BITMAP
1C78
3CF0
3CE0
3DE0
3FC0
1F80
0F80
1F00
1F80
3B80
7B80
7380
F000
ENDCHAR
STARTCHAR 0446
ENCODING 1094
SWIDTH 514 0
DWIDTH 10 0
BBX 12 15 1 -2
BITMAP
3C70
38E0
38E0
38E0
79E0
71E0
71C0
71C0
F1C0
FFC0
FFC0
FF80
3780
0380
0380
ENDCHAR
STARTCHAR 0447
ENCODING 1095
SWIDTH 514 0
DWIDTH 10 0
BBX 9 13 2 0
BITMAP
7380
7380
7380
F380
F380
F380
FF80
FF00
7F00
0700
0700
0700
0700
ENDCHAR
STARTCHAR 0448
ENCODING 1096
SWIDTH 720 0
DWIDTH 14 0
BBX 15 13 1 0
BITMAP
38CE
39CE
39CE
79CE
79DE
73DC
739C
739C
739C
7FFC
7FF8
7FF8
FFF8
ENDCHAR
STARTCHAR 0449
ENCODING 1097
SWIDTH 720 0
DWIDTH 14 0
BBX 16 16 1 -2
BITMAP
3CCF
38CE
38CE
79CE
79DC
799C
799C
7BBC
7BBC
7FF8
7FF8
FFF8
FFF0
0070
0070
0060
ENDCHAR
STARTCHAR 044A
ENCODING 1098
SWIDTH 617 0
DWIDTH 12 0
BBX 10 13 3 0
BITMAP
F800
F800
F800
3800
3F80
3FC0
3FC0
39C0
79C0
71C0
7F80
7F00
7C00
ENDCHAR
STARTCHAR 044B
ENCODING 1099
SWIDTH 668 0
DWIDTH 13 0
BBX 14 13 1 0
BITMAP
381C
381C
381C
781C
7F1C
7FB8
7FB8
71B8
73B8
73B8
FF30
FE70
FC70
ENDCHAR
STARTCHAR 044C
ENCODING 1100
SWIDTH 462 0
DWIDTH 9 0
BBX 9 13 1 0
BITMAP
3800
3800
3800
7800
7F00
7F80
7F80
7180
7380
7380
F780
FF00
FE00
ENDCHAR
STARTCHAR 044D
ENCODING 1101
SWIDTH 462 0
DWIDTH 9 0
BBX 10 13 1 0
BITMAP
1F80
3F80
3FC0
3FC0
23C0
1FC0
3FC0
3FC0
0380
FF80
FF00
FE00
7800
ENDCHAR
STARTCHAR 044E
ENCODING 1102
SWIDTH 668 0
DWIDTH 13 0
BBX 14 14 1 0
BITMAP
0060
1CF8
1CF8
1DF8
3DF8
3DFC
3F98
7FB8
7FB8
7BB8
FBF0
FBF0
F9E0
00C0
ENDCHAR
STARTCHAR 044F
ENCODING 1103
SWIDTH 514 0
DWIDTH 10 0
BBX 11 13 1 0
BITMAP
0FE0
1FE0
33E0
33E0
73C0
7FC0
3FC0
1FC0
3FC0
37C0
77C0
E780
E780
ENDCHAR
STARTCHAR 0450
ENCODING 1104
SWIDTH 462 0
DWIDTH 9 0
BBX 8 17 2 0
BITMAP
38
38
18
0C
7F
7F
7E
7E
70
7C
7C
70
7F
7F
7F
FF
70
ENDCHAR
STARTCHAR 0451
ENCODING 1105
SWIDTH 462 0
DWIDTH 9 0
BBX 8 16 2 0
BITMAP
36
36
0C
7F
7F
7E
7E
70
7C
7C
70
7F
7F
7F
FF
70
ENDCHAR
STARTCHAR 0452
ENCODING 1106
SWIDTH 668 0
DWIDTH 13 0
BBX 11 15 3 -2
BITMAP
FFC0
FFC0
FFC0
1C00
1FC0
1FE0
1FE0
3CE0
38E0
38E0
38C0
39C0
71C0
07C0
0780
ENDCHAR
STARTCHAR 0453
ENCODING 1107
SWIDTH 462 0
DWIDTH 9 0
BBX 11 17 1 0
BITMAP
01C0
0180
0300
01C0
3FE0
3FE0
3C00
7800
7800
7000
7000
F000
F000
E000
E000
E000
F000
ENDCHAR
STARTCHAR 0454
ENCODING 1108
SWIDTH 462 0
DWIDTH 9 0
BBX 11 13 1 0
BITMAP
0FC0
1FE0
3FC0
3FC0
78C0
7F00
7F00
FF00
F000
FF80
7F80
7F00
1E00
ENDCHAR
STARTCHAR 0455
ENCODING 1109
SWIDTH 462 0
DWIDTH 9 0
BBX 11 13 1 0
BITMAP
0FE0
1FC0
1FC0
3F80
3B00
3C00
3F00
0F80
0380
D780
FF00
FF00
7C00
ENDCHAR
STARTCHAR 0456
ENCODING 1110
SWIDTH 308 0
DWIDTH 6 0
BBX 8 13 1 0
BITMAP
1F
1E
1E
1E
3C
3C
3C
7C
78
78
78
F0
E0
ENDCHAR
STARTCHAR 0457
ENCODING 1111
SWIDTH 308 0
DWIDTH 6 0
BBX 9 16 1 0
BITMAP
0980
0D80
0000
1F00
1E00
1E00
1E00
3C00
3C00
3C00
7C00
7800
7800
7800
F000
E000
ENDCHAR
STARTCHAR 0458
ENCODING 1112
SWIDTH 411 0
DWIDTH 8 0
BBX 10 13 1 0
BITMAP
03C0
07C0
07C0
0780
0F80
0F80
0F80
0F80
0F00
EF00
FE00
FE00
7800
ENDCHAR
STARTCHAR 0459
ENCODING 1113
SWIDTH 720 0
DWIDTH 14 0
BBX 14 13 1 0
BITMAP
07E0
07E0
0FE0
0FC0
1FE0
1DF8
3DFC
3B9C
7B9C
7398
F3B8
F7F8
E7E0
ENDCHAR
STARTCHAR 045A
ENCODING 1114
SWIDTH 720 0
DWIDTH 14 0
BBX 14 13 1 0
BITMAP
1EE0
1EE0
1CE0
3DC0
3DE0
3FF8
7FFC
7F9C
7F9C
7398
F3B8
F7F8
F7E0
ENDCHAR
STARTCHAR 045B
ENCODING 1115
SWIDTH 668 0
DWIDTH 13 0
BBX 11 13 3 0
BITMAP
FFC0
FFC0
FFC0
1C00
1FC0
1FE0
1FE0
3DE0
39E0
39E0
39C0
39C0
71C0
ENDCHAR
STARTCHAR 045C
ENCODING 1116
SWIDTH 514 0
DWIDTH 10 0
BBX 13 17 0 0
BITMAP
0038
0030
0060
0000
1F30
1F78
1FF0
1FE0
3FC0
3F80
3F00
3F80
7F80
7DC0
7DC0
7DE0
F880
ENDCHAR
STARTCHAR 045D
ENCODING 1117
SWIDTH 514 0
DWIDTH 10 0
BBX 10 17 2 0
BITMAP
1C00
0C00
0C00
0000
73C0
73C0
73C0
73C0
77C0
FFC0
FF80
FF80
FB80
F380
F780
E780
E380
ENDCHAR
STARTCHAR 045E
ENCODING 1118
SWIDTH 514 0
DWIDTH 10 0
BBX 12 17 0 0
BITMAP
0660
07E0
03C0
0000
1EF0
1EF0
1EE0
0FE0
0FC0
0FC0
0FC0
0780
0780
7F80
7F00
7E00
F000
ENDCHAR
STARTCHAR 045F
ENCODING 1119
SWIDTH 514 0
DWIDTH 10 0
BBX 11 15 1 -2
BITMAP
38E0
38E0
38E0
78E0
79E0
71C0
71C0
71C0
E1C0
FFC0
FFC0
FF80
FE00
1C00
3800
ENDCHAR
STARTCHAR 0462
ENCODING 1122
SWIDTH 617 0
DWIDTH 12 0
BBX 10 13 3 0
BITMAP
1C00
FF80
FF80
3800
3F00
3F80
3FC0
39C0
79C0
79C0
7B80
7F80
7F00
ENDCHAR
STARTCHAR 0463
ENCODING 1123
SWIDTH 617 0
DWIDTH 12 0
BBX 10 13 3 0
BITMAP
1C00
FF80
FF80
3800
3F00
3F80
3FC0
39C0
79C0
79C0
7B80
7F80
7F00
ENDCHAR
STARTCHAR 0474
ENCODING 1140
SWIDTH 565 0
DWIDTH 11 0
BBX 11 13 3 0
BITMAP
E1E0
E3C0
E7C0
E7C0
EE00
EE00
FE00
FC00
F800
7800
7000
7000
6000
ENDCHAR
STARTCHAR 0475
ENCODING 1141
SWIDTH 565 0
DWIDTH 11 0
BBX 11 13 3 0
BITMAP
E1E0
E3C0
E7C0
E7C0
EE00
EE00
FE00
FC00
F800
7800
7000
7000
6000
ENDCHAR
STARTCHAR 0476
ENCODING 1142
SWIDTH 565 0
DWIDTH 11 0
BBX 11 17 3 0
BITMAP
7E00
7600
3700
0000
E1E0
E3C0
E7C0
E7C0
EE00
EE00
FE00
FC00
F800
7800
7000
7000
6000
ENDCHAR
STARTCHAR 0477
ENCODING 1143
SWIDTH 565 0
DWIDTH 11 0
BBX 11 17 3 0
BITMAP
7E00
7600
3700
0000
E1E0
E3C0
E7C0
E7C0
EE00
EE00
FE00
FC00
F800
7800
7000
7000
6000
ENDCHAR
STARTCHAR 0480
ENCODING 1152
SWIDTH 462 0
DWIDTH 9 0
BBX 11 17 1 -3
BITMAP
01C0
0FE0
1FE0
3FC0
3C00
7800
7000
7000
E000
E000
F180
7F80
7F80
3F80
0700
0700
0700
ENDCHAR
STARTCHAR 0481
ENCODING 1153
SWIDTH 462 0
DWIDTH 9 0
BBX 11 17 1 -3
BITMAP
01C0
0FE0
1FE0
3FC0
3C00
7800
7000
7000
E000
E000
F180
7F80
7F80
3F80
0700
0700
0700
ENDCHAR
STARTCHAR 048C
ENCODING 1164
SWIDTH 514 0
DWIDTH 10 0
BBX 9 13 2 0
BITMAP
3800
7E00
7E00
7800
7F00
7F80
7F80
7180
7380
7380
F780
FF00
FE00
ENDCHAR
STARTCHAR 048D
ENCODING 1165
SWIDTH 514 0
DWIDTH 10 0
BBX 9 13 2 0
BITMAP
3800
7E00
7E00
7800
7F00
7F80
7F80
7180
7380
7380
F780
FF00
FE00
ENDCHAR
STARTCHAR 0490
ENCODING 1168
SWIDTH 462 0
DWIDTH 9 0
BBX 12 17 1 0
BITMAP
00F0
00F0
00F0
01E0
3FE0
3FE0
3C00
7800
7800
7000
7000
F000
F000
E000
E000
E000
F000
ENDCHAR
STARTCHAR 0491
ENCODING 1169
SWIDTH 462 0
DWIDTH 9 0
BBX 12 17 1 0
BITMAP
00F0
00F0
00F0
01E0
3FE0
3FE0
3C00
7800
7800
7000
7000
F000
F000
E000
E000
E000
F000
ENDCHAR
STARTCHAR 0492
ENCODING 1170
SWIDTH 514 0
DWIDTH 10 0
BBX 12 14 1 0
BITMAP
00E0
1FF0
1FF0
3E00
3C00
3C00
3800
7F00
FF00
7800
7000
7000
7000
7000
ENDCHAR
STARTCHAR 0493
ENCODING 1171
SWIDTH 514 0
DWIDTH 10 0
BBX 12 14 1 0
BITMAP
00E0
1FF0
1FF0
3E00
3C00
3C00
3800
7F00
FF00
7800
7000
7000
7000
7000
ENDCHAR
STARTCHAR 0496
ENCODING 1174
SWIDTH 668 0
DWIDTH 13 0
BBX 14 15 1 -2
BITMAP
399C
3FBC
3FB8
3FF8
3FF0
1FE0
1FE0
3FF0
3FF0
7778
F778
F778
E638
0030
0070
ENDCHAR
STARTCHAR 0497
ENCODING 1175
SWIDTH 668 0
DWIDTH 13 0
BBX 14 15 1 -2
BITMAP
399C
3FBC
3FB8
3FF8
3FF0
1FE0
1FE0
3FF0
3FF0
7778
F778
F778
E638
0030
0070
ENDCHAR
STARTCHAR 0498
ENCODING 1176
SWIDTH 462 0
DWIDTH 9 0
BBX 9 17 2 -3
BITMAP
0800
7F00
7F80
6780
0780
0700
3F00
3F00
0F00
0700
DF00
FF00
FE00
F800
3800
1C00
F800
ENDCHAR
STARTCHAR 0499
ENCODING 1177
SWIDTH 462 0
DWIDTH 9 0
BBX 9 17 2 -3
BITMAP
0800
7F00
7F80
6780
0780
0700
3F00
3F00
0F00
0700
DF00
FF00
FE00
F800
3800
1C00
F800
ENDCHAR
STARTCHAR 049A
ENCODING 1178
SWIDTH 514 0
DWIDTH 10 0
BBX 12 15 0 -2
BITMAP
1F30
1F70
1FE0
1FC0
3FC0
3F80
3F00
3F00
7F80
7FC0
7DE0
7DE0
F9C0
00C0
01C0
ENDCHAR
STARTCHAR 049B
ENCODING 1179
SWIDTH 514 0
DWIDTH 10 0
BBX 12 15 0 -2
BITMAP
1F30
1F70
1FE0
1FC0
3FC0
3F80
3F00
3F00
7F80
7FC0
7DE0
7DE0
F9C0
00C0
01C0
ENDCHAR
STARTCHAR 04A0
ENCODING 1184
SWIDTH 617 0
DWIDTH 12 0
BBX 12 13 2 0
BITMAP
7F60
7EF0
7EE0
3FC0
3F80
3F80
7F00
7F00
7F80
7F80
FBC0
F9C0
F900
ENDCHAR
STARTCHAR 04A1
ENCODING 1185
SWIDTH 617 0
DWIDTH 12 0
BBX 12 13 2 0
BITMAP
7F60
7EF0
7EE0
3FC0
3F80
3F80
7F00
7F00
7F80
7F80
FBC0
F9C0
F900
ENDCHAR
STARTCHAR 04A2
ENCODING 1186
SWIDTH 514 0
DWIDTH 10 0
BBX 12 15 1 -2
BITMAP
1E70
1EF0
1EE0
3CE0
3DE0
3FC0
3FC0
7FC0
7FC0
7BC0
F3C0
F3C0
F7C0
0180
0380
ENDCHAR
STARTCHAR 04A3
ENCODING 1187
SWIDTH 514 0
DWIDTH 10 0
BBX 12 15 1 -2
BITMAP
1E70
1EF0
1EE0
3CE0
3DE0
3FC0
3FC0
7FC0
7FC0
7BC0
F3C0
F3C0
F7C0
0180
0380
ENDCHAR
STARTCHAR 04A4
ENCODING 1188
SWIDTH 617 0
DWIDTH 12 0
BBX 14 13 1 0
BITMAP
1E7C
1E7C
1EFC
1CF8
3CE0
3FE0
3FE0
7FE0
7FC0
7BC0
FBC0
F380
F600
ENDCHAR
STARTCHAR 04A5
ENCODING 1189
SWIDTH 617 0
DWIDTH 12 0
BBX 14 13 1 0
BITMAP
1E7C
1E7C
1EFC
1CF8
3CE0
3FE0
3FE0
7FE0
7FC0
7BC0
FBC0
F380
F600
ENDCHAR
STARTCHAR 04AA
ENCODING 1194
SWIDTH 462 0
DWIDTH 9 0
BBX 11 16 1 -3
BITMAP
07C0
1FE0
3FC0
3F40
7800
7800
7800
7F80
7F80
7F80
7F80
7F00
3C00
3800
1C00
F800
ENDCHAR
STARTCHAR 04AB
ENCODING 1195
SWIDTH 462 0
DWIDTH 9 0
BBX 11 16 1 -3
BITMAP
07C0
1FE0
3FC0
3F40
7800
7800
7800
7F80
7F80
7F80
7F80
7F00
3C00
3800
1C00
F800
ENDCHAR
STARTCHAR 04AC
ENCODING 1196
SWIDTH 565 0
DWIDTH 11 0
BBX 11 15 2 -2
BITMAP
7FE0
7FE0
7FE0
FFA0
8E00
0E00
0E00
1C00
1C00
1C00
1E00
1E00
3E00
0C00
0C00
ENDCHAR
STARTCHAR 04AD
ENCODING 1197
SWIDTH 565 0
DWIDTH 11 0
BBX 11 15 2 -2
BITMAP
7FE0
7FE0
7FE0
FFA0
8E00
0E00
0E00
1C00
1C00
1C00
1E00
1E00
3E00
0C00
0C00
ENDCHAR
STARTCHAR 04AE
ENCODING 1198
SWIDTH 565 0
DWIDTH 11 0
BBX 11 13 3 0
BITMAP
20E0
F1C0
F1C0
F380
7700
7F00
7E00
3C00
3800
3800
3800
3800
3800
ENDCHAR
STARTCHAR 04AF
ENCODING 1199
SWIDTH 565 0
DWIDTH 11 0
BBX 11 13 3 0
BITMAP
20E0
F1C0
F1C0
F380
7700
7F00
7E00
3C00
3800
3800
3800
3800
3800
ENDCHAR
STARTCHAR 04B0
ENCODING 1200
SWIDTH 565 0
DWIDTH 11 0
BBX 12 13 2 0
BITMAP
1070
78E0
78E0
79C0
3B80
3F80
3F00
1E00
1C00
FF80
FF80
1C00
1C00
ENDCHAR
STARTCHAR 04B1
ENCODING 1201
SWIDTH 565 0
DWIDTH 11 0
BBX 12 13 2 0
BITMAP
1070
78E0
78E0
79C0
3B80
3F80
3F00
1E00
1C00
FF80
FF80
1C00
1C00
ENDCHAR
STARTCHAR 04B2
ENCODING 1202
SWIDTH 565 0
DWIDTH 11 0
BBX 12 15 1 -2
BITMAP
1870
3CF0
3CE0
3DC0
3FC0
1F80
1F00
1F00
3F00
3F00
7BC0
73C0
F1C0
01C0
0180
ENDCHAR
STARTCHAR 04B3
ENCODING 1203
SWIDTH 565 0
DWIDTH 11 0
BBX 12 15 1 -2
BITMAP
1870
3CF0
3CE0
3DC0
3FC0
1F80
1F00
1F00
3F00
3F00
7BC0
73C0
F1C0
01C0
0180
ENDCHAR
STARTCHAR 04B6
ENCODING 1206
SWIDTH 514 0
DWIDTH 10 0
BBX 9 15 2 -2
BITMAP
7380
7380
7380
E380
E380
E700
FF00
FF00
7F00
0700
0700
0F00
0F00
0700
0600
ENDCHAR
STARTCHAR 04B7
ENCODING 1207
SWIDTH 514 0
DWIDTH 10 0
BBX 9 15 2 -2
BITMAP
7380
7380
7380
E380
E380
E700
FF00
FF00
7F00
0700
0700
0F00
0F00
0700
0600
ENDCHAR
STARTCHAR 04B8
ENCODING 1208
SWIDTH 514 0
DWIDTH 10 0
BBX 9 13 2 0
BITMAP
7380
7380
7380
F780
FF80
FB80
FF80
FF00
7F00
1F00
0700
0700
0700
ENDCHAR
STARTCHAR 04B9
ENCODING 1209
SWIDTH 514 0
DWIDTH 10 0
BBX 9 13 2 0
BITMAP
7380
7380
7380
F780
FF80
FB80
FF80
FF00
7F00
1F00
0700
0700
0700
ENDCHAR
STARTCHAR 04BA
ENCODING 1210
SWIDTH 514 0
DWIDTH 10 0
BBX 9 13 2 0
BITMAP
7000
7000
7000
7000
7F00
7F80
FF80
E780
E780
E780
E700
E700
E700
ENDCHAR
STARTCHAR 04BB
ENCODING 1211
SWIDTH 514 0
DWIDTH 10 0
BBX 9 13 2 0
BITMAP
7000
7000
7000
7000
7F00
7F80
FF80
E780
E780
E780
E700
E700
E700
ENDCHAR
STARTCHAR 04BC
ENCODING 1212
SWIDTH 565 0
DWIDTH 11 0
BBX 12 13 1 0
BITMAP
07C0
0FE0
1FF0
1FE0
1CE0
7FE0
7FE0
FFC0
3800
1C00
1FC0
1FC0
0F00
ENDCHAR
STARTCHAR 04BD
ENCODING 1213
SWIDTH 565 0
DWIDTH 11 0
BBX 12 13 1 0
BITMAP
07C0
0FE0
1FF0
1FE0
1CE0
7FE0
7FE0
FFC0
3800
1C00
1FC0
1FC0
0F00
ENDCHAR
STARTCHAR 04BE
ENCODING 1214
SWIDTH 565 0
DWIDTH 11 0
BBX 12 15 1 -2
BITMAP
07C0
0FE0
1FF0
1FE0
1CE0
7FE0
7FE0
FFC0
3800
1C00
1FC0
1FC0
0F00
0C00
1C00
ENDCHAR
STARTCHAR 04BF
ENCODING 1215
SWIDTH 565 0
DWIDTH 11 0
BBX 12 15 1 -2
BITMAP
07C0
0FE0
1FF0
1FE0
1CE0
7FE0
7FE0
FFC0
3800
1C00
1FC0
1FC0
0F00
0C00
1C00
ENDCHAR
STARTCHAR 04C0
ENCODING 1216
SWIDTH 154 0
DWIDTH 3 0
BBX 5 13 1 0
BITMAP
38
38
38
70
70
70
70
70
E0
E0
E0
E0
C0
ENDCHAR
STARTCHAR 04C1
ENCODING 1217
SWIDTH 668 0
DWIDTH 13 0
BBX 14 17 1 0
BITMAP
0220
03E0
03C0
0000
39DC
3F9C
3FBC
3FB8
3FF8
1FF0
1FF0
3FF0
3FF8
7F78
F778
F770
E700
ENDCHAR
STARTCHAR 04C2
ENCODING 1218
SWIDTH 668 0
DWIDTH 13 0
BBX 14 17 1 0
BITMAP
0220
03E0
03C0
0000
39DC
3F9C
3FBC
3FB8
3FF8
1FF0
1FF0
3FF0
3FF8
7F78
F778
F770
E700
ENDCHAR
STARTCHAR 04CB
ENCODING 1227
SWIDTH 514 0
DWIDTH 10 0
BBX 9 15 2 -2
BITMAP
7380
7380
7380
F380
F380
F380
FF80
FF00
7F00
0700
0F00
0F00
1F00
1C00
1C00
ENDCHAR
STARTCHAR 04CC
ENCODING 1228
SWIDTH 514 0
DWIDTH 10 0
BBX 9 15 2 -2
BITMAP
7380
7380
7380
F380
F380
F380
FF80
FF00
7F00
0700
0F00
0F00
1F00
1C00
1C00
ENDCHAR
STARTCHAR 04CF
ENCODING 1231
SWIDTH 154 0
DWIDTH 3 0
BBX 5 13 1 0
BITMAP
38
38
38
70
70
70
70
70
E0
E0
E0
E0
C0
ENDCHAR
STARTCHAR 04D0
ENCODING 1232
SWIDTH 617 0
DWIDTH 12 0
BBX 12 17 1 0
BITMAP
0330
03E0
01C0
0000
0180
0180
0380
07C0
07C0
0FC0
0FC0
1BC0
33C0
3FC0
7BC0
E3E0
E3E0
ENDCHAR
STARTCHAR 04D1
ENCODING 1233
SWIDTH 617 0
DWIDTH 12 0
BBX 12 17 1 0
BITMAP
0330
03E0
01C0
0000
0180
0180
0380
07C0
07C0
0FC0
0FC0
1BC0
33C0
3FC0
7BC0
E3E0
E3E0
ENDCHAR
STARTCHAR 04D2
ENCODING 1234
SWIDTH 617 0
DWIDTH 12 0
BBX 11 16 1 0
BITMAP
0120
0360
0000
0180
0180
0380
07C0
07C0
0FC0
0FC0
1BC0
33C0
3FC0
7BC0
E3E0
E3E0
ENDCHAR
STARTCHAR 04D3
ENCODING 1235
SWIDTH 617 0
DWIDTH 12 0
BBX 11 16 1 0
BITMAP
0120
0360
0000
0180
0180
0380
07C0
07C0
0FC0
0FC0
1BC0
33C0
3FC0
7BC0
E3E0
E3E0
ENDCHAR
STARTCHAR 04D4
ENCODING 1236
SWIDTH 720 0
DWIDTH 14 0
BBX 14 13 1 0
BITMAP
01FC
01F8
03F8
07F0
07C0
0FF0
0FF0
1BC0
33F8
3FF8
73F8
E3F8
E3C0
ENDCHAR
STARTCHAR 04D5
ENCODING 1237
SWIDTH 720 0
DWIDTH 14 0
BBX 14 13 1 0
BITMAP
01FC
01F8
03F8
07F0
07C0
0FF0
0FF0
1BC0
33F8
3FF8
73F8
E3F8
E3C0
ENDCHAR
STARTCHAR 04D6
ENCODING 1238
SWIDTH 462 0
DWIDTH 9 0
BBX 8 17 2 0
BITMAP
23
3E
3C
0C
7F
7F
7E
7E
70
7C
7C
70
7F
7F
7F
FF
70
ENDCHAR
STARTCHAR 04D7
ENCODING 1239
SWIDTH 462 0
DWIDTH 9 0
BBX 8 17 2 0
BITMAP
23
3E
3C
0C
7F
7F
7E
7E
70
7C
7C
70
7F
7F
7F
FF
70
ENDCHAR
STARTCHAR 04D8
ENCODING 1240
SWIDTH 462 0
DWIDTH 9 0
BBX 9 13 1 0
BITMAP
1F00
3F80
3F80
0180
0180
7F80
7F80
7380
7780
FF80
FF80
7F00
1C00
ENDCHAR
STARTCHAR 04D9
ENCODING 1241
SWIDTH 462 0
DWIDTH 9 0
BBX 9 13 1 0
BITMAP
1F00
3F80
3F80
0180
0180
7F80
7F80
7380
7780
FF80
FF80
7F00
1C00
ENDCHAR
STARTCHAR 04DA
ENCODING 1242
SWIDTH 462 0
DWIDTH 9 0
BBX 9 16 1 0
BITMAP
0980
1980
0000
1F00
3F80
3F80
0180
0180
7F80
7F80
7380
7780
FF80
FF80
7F00
1C00
ENDCHAR
STARTCHAR 04DB
ENCODING 1243
SWIDTH 462 0
DWIDTH 9 0
BBX 9 16 1 0
BITMAP
0980
1980
0000
1F00
3F80
3F80
0180
0180
7F80
7F80
7380
7780
FF80
FF80
7F00
1C00
ENDCHAR
STARTCHAR 04DC
ENCODING 1244
SWIDTH 668 0
DWIDTH 13 0
BBX 14 16 1 0
BITMAP
0360
0360
0000
39DC
3F9C
3FBC
3FB8
3FF8
1FF0
1FF0
3FF0
3FF8
7F78
F778
F770
E700
ENDCHAR
STARTCHAR 04DD
ENCODING 1245
SWIDTH 668 0
DWIDTH 13 0
BBX 14 16 1 0
BITMAP
0360
0360
0000
39DC
3F9C
3FBC
3FB8
3FF8
1FF0
1FF0
3FF0
3FF8
7F78
F778
F770
E700
ENDCHAR
STARTCHAR 04DE
ENCODING 1246
SWIDTH 462 0
DWIDTH 9 0
BBX 9 16 2 0
BITMAP
1300
3300
0800
7F00
7F80
6780
0780
0700
3F00
3F00
0F00
0700
DF00
FF00
FE00
F800
ENDCHAR
STARTCHAR 04DF
ENCODING 1247
SWIDTH 462 0
DWIDTH 9 0
BBX 9 16 2 0
BITMAP
1300
3300
0800
7F00
7F80
6780
0780
0700
3F00
3F00
0F00
0700
DF00
FF00
FE00
F800
ENDCHAR
STARTCHAR 04E0
ENCODING 1248
SWIDTH 462 0
DWIDTH 9 0
BBX 10 13 1 0
BITMAP
1FC0
1FC0
0180
0700
0F00
3F80
1F80
0180
0180
E380
FF80
FF00
7E00
ENDCHAR
STARTCHAR 04E1
ENCODING 1249
SWIDTH 462 0
DWIDTH 9 0
BBX 10 13 1 0
BITMAP
1FC0
1FC0
0180
0700
0F00
3F80
1F80
0180
0180
E380
FF80
FF00
7E00
ENDCHAR
STARTCHAR 04E2
ENCODING 1250
SWIDTH 514 0
DWIDTH 10 0
BBX 10 16 2 0
BITMAP
1F80
1F80
0000
73C0
73C0
73C0
73C0
77C0
FFC0
FF80
FF80
FB80
F380
F780
E780
E380
ENDCHAR
STARTCHAR 04E3
ENCODING 1251
SWIDTH 514 0
DWIDTH 10 0
BBX 10 16 2 0
BITMAP
1F80
1F80
0000
73C0
73C0
73C0
73C0
77C0
FFC0
FF80
FF80
FB80
F380
F780
E780
E380
ENDCHAR
STARTCHAR 04E4
ENCODING 1252
SWIDTH 514 0
DWIDTH 10 0
BBX 10 16 2 0
BITMAP
0900
1B00
0000
73C0
73C0
73C0
73C0
77C0
FFC0
FF80
FF80
FB80
F380
F780
E780
E380
ENDCHAR
STARTCHAR 04E5
ENCODING 1253
SWIDTH 514 0
DWIDTH 10 0
BBX 10 16 2 0
BITMAP
0900
1B00
0000
73C0
73C0
73C0
73C0
77C0
FFC0
FF80
FF80
FB80
F380
F780
E780
E380
ENDCHAR
STARTCHAR 04E6
ENCODING 1254
SWIDTH 514 0
DWIDTH 10 0
BBX 10 16 2 0
BITMAP
1200
3600
0800
1E00
3F00
3F80
7F80
FF80
F3C0
E380
F780
FF80
FF80
FF00
FE00
7C00
ENDCHAR
STARTCHAR 04E7
ENCODING 1255
SWIDTH 514 0
DWIDTH 10 0
BBX 10 16 2 0
BITMAP
1200
3600
0800
1E00
3F00
3F80
7F80
FF80
F3C0
E380
F780
FF80
FF80
FF00
FE00
7C00
ENDCHAR
STARTCHAR 04E8
ENCODING 1256
SWIDTH 514 0
DWIDTH 10 0
BBX 10 14 2 0
BITMAP
0400
1F80
3F80
7FC0
7FC0
F7C0
E7C0
FFC0
E380
FF80
FF00
FF00
7E00
3C00
ENDCHAR
STARTCHAR 04E9
ENCODING 1257
SWIDTH 514 0
DWIDTH 10 0
BBX 10 14 2 0
BITMAP
0400
1F80
3F80
7FC0
7FC0
F7C0
E7C0
FFC0
E380
FF80
FF00
FF00
7E00
3C00
ENDCHAR
STARTCHAR 04EA
ENCODING 1258
SWIDTH 514 0
DWIDTH 10 0
BBX 10 16 2 0
BITMAP
0900
1B00
0400
1F80
3F80
7FC0
7FC0
F7C0
E7C0
FFC0
E380
FF80
FF00
FF00
7E00
3C00
ENDCHAR
STARTCHAR 04EB
ENCODING 1259
SWIDTH 514 0
DWIDTH 10 0
BBX 10 16 2 0
BITMAP
0900
1B00
0400
1F80
3F80
7FC0
7FC0
F7C0
E7C0
FFC0
E380
FF80
FF00
FF00
7E00
3C00
ENDCHAR
STARTCHAR 04EC
ENCODING 1260
SWIDTH 462 0
DWIDTH 9 0
BBX 10 16 1 0
BITMAP
0900
1B00
0000
1F80
3F80
3FC0
3FC0
23C0
1FC0
3FC0
3FC0
0380
FF80
FF00
FE00
7800
ENDCHAR
STARTCHAR 04ED
ENCODING 1261
SWIDTH 462 0
DWIDTH 9 0
BBX 10 16 1 0
BITMAP
0900
1B00
0000
1F80
3F80
3FC0
3FC0
23C0
1FC0
3FC0
3FC0
0380
FF80
FF00
FE00
7800
ENDCHAR
STARTCHAR 04EE
ENCODING 1262
SWIDTH 514 0
DWIDTH 10 0
BBX 12 16 0 0
BITMAP
07E0
07E0
0000
1EF0
1EF0
1EE0
0FE0
0FC0
0FC0
0FC0
0780
0780
7F80
7F00
7E00
F000
ENDCHAR
STARTCHAR 04EF
ENCODING 1263
SWIDTH 514 0
DWIDTH 10 0
BBX 12 16 0 0
BITMAP
07E0
07E0
0000
1EF0
1EF0
1EE0
0FE0
0FC0
0FC0
0FC0
0780
0780
7F80
7F00
7E00
F000
ENDCHAR
STARTCHAR 04F0
ENCODING 1264
SWIDTH 514 0
DWIDTH 10 0
BBX 12 16 0 0
BITMAP
0240
06C0
0000
1EF0
1EF0
1EE0
0FE0
0FC0
0FC0
0FC0
0780
0780
7F80
7F00
7E00
F000
ENDCHAR
STARTCHAR 04F1
ENCODING 1265
SWIDTH 514 0
DWIDTH 10 0
BBX 12 16 0 0
BITMAP
0240
06C0
0000
1EF0
1EF0
1EE0
0FE0
0FC0
0FC0
0FC0
0780
0780
7F80
7F00
7E00
F000
ENDCHAR
STARTCHAR 04F2
ENCODING 1266
SWIDTH 514 0
DWIDTH 10 0
BBX 13 17 0 0
BITMAP
01D8
03B0
0360
0000
1EF0
1EF0
1EE0
0FE0
0FC0
0FC0
0FC0
0780
0780
7F80
7F00
7E00
F000
ENDCHAR
STARTCHAR 04F3
ENCODING 1267
SWIDTH 514 0
DWIDTH 10 0
BBX 13 17 0 0
BITMAP
01D8
03B0
0360
0000
1EF0
1EF0
1EE0
0FE0
0FC0
0FC0
0FC0
0780
0780
7F80
7F00
7E00
F000
ENDCHAR
STARTCHAR 04F4
ENCODING 1268
SWIDTH 514 0
DWIDTH 10 0
BBX 9 16 2 0
BITMAP
0900
1B00
0000
7380
7380
7380
F380
F380
F380
FF80
FF00
7F00
0700
0700
0700
0700
ENDCHAR
STARTCHAR 04F5
ENCODING 1269
SWIDTH 514 0
DWIDTH 10 0
BBX 9 16 2 0
BITMAP
0900
1B00
0000
7380
7380
7380
F380
F380
F380
FF80
FF00
7F00
0700
0700
0700
0700
ENDCHAR
STARTCHAR 04F6
ENCODING 1270
SWIDTH 462 0
DWIDTH 9 0
BBX 11 16 1 -2
BITMAP
01C0
3FE0
3FE0
3C00
7800
7800
7000
7000
F000
F000
E000
F800
F800
F000
3000
7000
ENDCHAR
STARTCHAR 04F7
ENCODING 1271
SWIDTH 462 0
DWIDTH 9 0
BBX 11 16 1 -2
BITMAP
01C0
3FE0
3FE0
3C00
7800
7800
7000
7000
F000
F000
E000
F800
F800
F000
3000
7000
ENDCHAR
STARTCHAR 04F8
ENCODING 1272
SWIDTH 668 0
DWIDTH 13 0
BBX 14 16 1 0
BITMAP
0120
0330
0000
381C
381C
381C
781C
7F1C
7FB8
7FB8
71B8
73B8
73B8
FF30
FE70
FC70
ENDCHAR
STARTCHAR 04F9
ENCODING 1273
SWIDTH 668 0
DWIDTH 13 0
BBX 14 16 1 0
BITMAP
0120
0330
0000
381C
381C
381C
781C
7F1C
7FB8
7FB8
71B8
73B8
73B8
FF30
FE70
FC70
ENDCHAR
STARTCHAR 0500
ENCODING 1280
SWIDTH 462 0
DWIDTH 9 0
BBX 11 13 1 0
BITMAP
00E0
01E0
01C0
01C0
0FC0
3FC0
7F80
6380
E380
E780
F700
FF00
7F00
ENDCHAR
STARTCHAR 0501
ENCODING 1281
SWIDTH 462 0
DWIDTH 9 0
BBX 11 13 1 0
BITMAP
00E0
01E0
01C0
01C0
0FC0
3FC0
7F80
6380
E380
E780
F700
FF00
7F00
ENDCHAR
STARTCHAR 0510
ENCODING 1296
SWIDTH 462 0
DWIDTH 9 0
BBX 11 14 1 0
BITMAP
0100
0FE0
1FE0
3CE0
3800
3800
3F00
3F00
7800
F000
FF00
FF00
7E00
7E00
ENDCHAR
STARTCHAR 0511
ENCODING 1297
SWIDTH 462 0
DWIDTH 9 0
BBX 11 14 1 0
BITMAP
0100
0FE0
1FE0
3CE0
3800
3800
3F00
3F00
7800
F000
FF00
FF00
7E00
7E00
ENDCHAR
STARTCHAR 0524
ENCODING 1316
SWIDTH 514 0
DWIDTH 10 0
BBX 11 15 1 -2
BITMAP
3FE0
3FE0
3FE0
78E0
71E0
71C0
71C0
71C0
71C0
F3C0
F3C0
E3C0
E380
0180
0380
ENDCHAR
STARTCHAR 0525
ENCODING 1317
SWIDTH 514 0
DWIDTH 10 0
BBX 11 15 1 -2
BITMAP
3FE0
3FE0
3FE0
78E0
71E0
71C0
71C0
71C0
71C0
F3C0
F3C0
E3C0
E380
0180
0380
ENDCHAR
STARTCHAR 0526
ENCODING 1318
SWIDTH 514 0
DWIDTH 10 0
BBX 8 15 2 -2
BITMAP
70
70
70
70
7F
7F
FF
E7
E7
E7
E7
E7
EF
07
06
ENDCHAR
STARTCHAR 0527
ENCODING 1319
SWIDTH 514 0
DWIDTH 10 0
BBX 8 15 2 -2
BITMAP
70
70
70
70
7F
7F
FF
E7
E7
E7
E7
E7
EF
07
06
ENDCHAR
STARTCHAR 052E
ENCODING 1326
SWIDTH 565 0
DWIDTH 11 0
BBX 11 15 1 -2
BITMAP
0E00
0E00
1E00
1F00
1F00
3F80
3F80
7F80
77C0
F7C0
F7E0
F7E0
C0C0
01C0
01C0
ENDCHAR
STARTCHAR 052F
ENCODING 1327
SWIDTH 565 0
DWIDTH 11 0
BBX 11 15 1 -2
BITMAP
0E00
0E00
1E00
1F00
1F00
3F80
3F80
7F80
77C0
F7C0
F7E0
F7E0
C0C0
01C0
01C0
ENDCHAR
STARTCHAR 058F
ENCODING 1423
SWIDTH 514 0
DWIDTH 10 0
BBX 10 14 2 0
BITMAP
0400
3E00
7F00
7700
E700
E700
E7C0
1FC0
0F00
0F00
3F80
1E00
0E00
1C00
ENDCHAR
STARTCHAR 1E02
ENCODING 7682
SWIDTH 514 0
DWIDTH 10 0
BBX 9 16 2 0
BITMAP
1800
1800
0000
7F00
7F00
7F00
7300
7700
7E00
7F00
FF00
F380
F780
FF00
FE00
F000
ENDCHAR
STARTCHAR 1E03
ENCODING 7683
SWIDTH 514 0
DWIDTH 10 0
BBX 9 16 2 0
BITMAP
1800
1800
0000
7F00
7F00
7F00
7300
7700
7E00
7F00
FF00
F380
F780
FF00
FE00
F000
ENDCHAR
STARTCHAR 1E06
ENCODING 7686
SWIDTH 514 0
DWIDTH 10 0
BBX 9 15 2 -3
BITMAP
7F00
7F00
7F00
7300
7700
7E00
7F00
FF00
F380
F780
FF00
FE00
F000
0000
FC00
ENDCHAR
STARTCHAR 1E07
ENCODING 7687
SWIDTH 514 0
DWIDTH 10 0
BBX 9 15 2 -3
BITMAP
7F00
7F00
7F00
7300
7700
7E00
7F00
FF00
F380
F780
FF00
FE00
F000
0000
FC00
ENDCHAR
STARTCHAR 1E08
ENCODING 7688
SWIDTH 462 0
DWIDTH 9 0
BBX 11 20 1 -3
BITMAP
0060
00E0
0180
0000
07C0
1FE0
3FC0
3F40
7800
7800
7800
7F80
7F80
7F80
7F80
7F00
3C00
3800
1C00
F800
ENDCHAR
STARTCHAR 1E09
ENCODING 7689
SWIDTH 462 0
DWIDTH 9 0
BBX 11 20 1 -3
BITMAP
0060
00E0
0180
0000
07C0
1FE0
3FC0
3F40
7800
7800
7800
7F80
7F80
7F80
7F80
7F00
3C00
3800
1C00
F800
ENDCHAR
STARTCHAR 1E0A
ENCODING 7690
SWIDTH 462 0
DWIDTH 9 0
BBX 8 16 2 0
BITMAP
10
30
00
7C
7E
7F
F7
F3
F3
E7
EE
FC
FC
F8
F0
80
ENDCHAR
STARTCHAR 1E0B
ENCODING 7691
SWIDTH 462 0
DWIDTH 9 0
BBX 8 16 2 0
BITMAP
10
30
00
7C
7E
7F
F7
F3
F3
E7
EE
FC
FC
F8
F0
80
ENDCHAR
STARTCHAR 1E0C
ENCODING 7692
SWIDTH 462 0
DWIDTH 9 0
BBX 8 16 2 -3
BITMAP
7C
7E
7F
F7
F3
F3
E7
EE
FC
FC
F8
F0
80
00
40
C0
ENDCHAR
STARTCHAR 1E0D
ENCODING 7693
SWIDTH 462 0
DWIDTH 9 0
BBX 8 16 2 -3
BITMAP
7C
7E
7F
F7
F3
F3
E7
EE
FC
FC
F8
F0
80
00
40
C0
ENDCHAR
STARTCHAR 1E0E
ENCODING 7694
SWIDTH 462 0
DWIDTH 9 0
BBX 8 15 2 -3
BITMAP
7C
7E
7F
F7
F3
F3
E7
EE
FC
FC
F8
F0
80
00
F8
ENDCHAR
STARTCHAR 1E0F
ENCODING 7695
SWIDTH 462 0
DWIDTH 9 0
BBX 8 15 2 -3
BITMAP
7C
7E
7F
F7
F3
F3
E7
EE
FC
FC
F8
F0
80
00
F8
ENDCHAR
STARTCHAR 1E10
ENCODING 7696
SWIDTH 462 0
DWIDTH 9 0
BBX 9 16 1 -3
BITMAP
3E00
3F00
3F80
7B80
7980
7980
7380
7700
7E00
7E00
7C00
7800
7000
3800
1C00
F800
ENDCHAR
STARTCHAR 1E11
ENCODING 7697
SWIDTH 462 0
DWIDTH 9 0
BBX 9 16 1 -3
BITMAP
3E00
3F00
3F80
7B80
7980
7980
7380
7700
7E00
7E00
7C00
7800
7000
3800
1C00
F800
ENDCHAR
STARTCHAR 1E1C
ENCODING 7708
SWIDTH 462 0
DWIDTH 9 0
BBX 8 20 2 -3
BITMAP
23
3E
3C
0C
7F
7F
7E
7E
70
7C
7C
70
7F
7F
7F
FF
78
18
0C
7C
ENDCHAR
STARTCHAR 1E1D
ENCODING 7709
SWIDTH 462 0
DWIDTH 9 0
BBX 8 20 2 -3
BITMAP
23
3E
3C
0C
7F
7F
7E
7E
70
7C
7C
70
7F
7F
7F
FF
78
18
0C
7C
ENDCHAR
STARTCHAR 1E1E
ENCODING 7710
SWIDTH 462 0
DWIDTH 9 0
BBX 11 16 1 0
BITMAP
0600
0600
01C0
3FE0
3FE0
3C00
7800
7A00
7E00
7C00
F000
F000
E000
E000
E000
F000
ENDCHAR
STARTCHAR 1E1F
ENCODING 7711
SWIDTH 462 0
DWIDTH 9 0
BBX 11 16 1 0
BITMAP
0600
0600
01C0
3FE0
3FE0
3C00
7800
7A00
7E00
7C00
F000
F000
E000
E000
E000
F000
ENDCHAR
STARTCHAR 1E24
ENCODING 7716
SWIDTH 514 0
DWIDTH 10 0
BBX 12 16 1 -3
BITMAP
1E70
1E70
1EF0
1CE0
3CE0
3FE0
3FE0
7FE0
7FC0
7BC0
FBC0
F380
F600
0000
1800
1800
ENDCHAR
STARTCHAR 1E25
ENCODING 7717
SWIDTH 514 0
DWIDTH 10 0
BBX 12 16 1 -3
BITMAP
1E70
1E70
1EF0
1CE0
3CE0
3FE0
3FE0
7FE0
7FC0
7BC0
FBC0
F380
F600
0000
1800
1800
ENDCHAR
STARTCHAR 1E28
ENCODING 7720
SWIDTH 514 0
DWIDTH 10 0
BBX 13 16 0 -3
BITMAP
0F38
0F38
0F78
0E70
1E70
1FF0
1FF0
3FF0
3FE0
3DE0
7DE0
79C0
7B00
3000
1800
F800
ENDCHAR
STARTCHAR 1E29
ENCODING 7721
SWIDTH 514 0
DWIDTH 10 0
BBX 13 16 0 -3
BITMAP
0F38
0F38
0F78
0E70
1E70
1FF0
1FF0
3FF0
3FE0
3DE0
7DE0
79C0
7B00
3000
1800
F800
ENDCHAR
STARTCHAR 1E2A
ENCODING 7722
SWIDTH 514 0
DWIDTH 10 0
BBX 12 16 1 -3
BITMAP
1E70
1E70
1EF0
1CE0
3CE0
3FE0
3FE0
7FE0
7FC0
7BC0
FBC0
F380
F600
2200
3E00
3C00
ENDCHAR
STARTCHAR 1E2B
ENCODING 7723
SWIDTH 514 0
DWIDTH 10 0
BBX 12 16 1 -3
BITMAP
1E70
1E70
1EF0
1CE0
3CE0
3FE0
3FE0
7FE0
7FC0
7BC0
FBC0
F380
F600
2200
3E00
3C00
ENDCHAR
STARTCHAR 1E30
ENCODING 7728
SWIDTH 514 0
DWIDTH 10 0
BBX 13 17 0 0
BITMAP
0038
0030
0060
0000
1F30
1F78
1FF0
1FE0
3FC0
3F80
3F00
3F80
7F80
7DC0
7DC0
7DE0
F880
ENDCHAR
STARTCHAR 1E31
ENCODING 7729
SWIDTH 514 0
DWIDTH 10 0
BBX 13 17 0 0
BITMAP
0038
0030
0060
0000
1F30
1F78
1FF0
1FE0
3FC0
3F80
3F00
3F80
7F80
7DC0
7DC0
7DE0
F880
ENDCHAR
STARTCHAR 1E34
ENCODING 7732
SWIDTH 514 0
DWIDTH 10 0
BBX 13 15 0 -3
BITMAP
1F30
1F78
1FF0
1FE0
3FC0
3F80
3F00
3F80
7F80
7DC0
7DC0
7DE0
F880
0000
3F00
ENDCHAR
STARTCHAR 1E35
ENCODING 7733
SWIDTH 514 0
DWIDTH 10 0
BBX 13 15 0 -3
BITMAP
1F30
1F78
1FF0
1FE0
3FC0
3F80
3F00
3F80
7F80
7DC0
7DC0
7DE0
F880
0000
3F00
ENDCHAR
STARTCHAR 1E36
ENCODING 7734
SWIDTH 514 0
DWIDTH 10 0
BBX 9 16 1 -3
BITMAP
0F80
1F00
1F00
1F00
1E00
3E00
3C00
7C00
7C00
7F80
FF80
FF80
FE00
0000
3000
3000
ENDCHAR
STARTCHAR 1E37
ENCODING 7735
SWIDTH 514 0
DWIDTH 10 0
BBX 9 16 1 -3
BITMAP
0F80
1F00
1F00
1F00
1E00
3E00
3C00
7C00
7C00
7F80
FF80
FF80
FE00
0000
3000
3000
ENDCHAR
STARTCHAR 1E3A
ENCODING 7738
SWIDTH 514 0
DWIDTH 10 0
BBX 9 15 1 -3
BITMAP
0F80
1F00
1F00
1F00
1E00
3E00
3C00
7C00
7C00
7F80
FF80
FF80
FE00
0000
7E00
ENDCHAR
STARTCHAR 1E3B
ENCODING 7739
SWIDTH 514 0
DWIDTH 10 0
BBX 9 15 1 -3
BITMAP
0F80
1F00
1F00
1F00
1E00
3E00
3C00
7C00
7C00
7F80
FF80
FF80
FE00
0000
7E00
ENDCHAR
STARTCHAR 1E3E
ENCODING 7742
SWIDTH 617 0
DWIDTH 12 0
BBX 13 17 0 0
BITMAP
0018
0038
0060
0000
0408
0E18
0E38
0E38
1F78
1FF8
1FF8
3FF8
3C78
38F8
78F8
70F8
F060
ENDCHAR
STARTCHAR 1E3F
ENCODING 7743
SWIDTH 617 0
DWIDTH 12 0
BBX 13 17 0 0
BITMAP
0018
0038
0060
0000
0408
0E18
0E38
0E38
1F78
1FF8
1FF8
3FF8
3C78
38F8
78F8
70F8
F060
ENDCHAR
STARTCHAR 1E40
ENCODING 7744
SWIDTH 617 0
DWIDTH 12 0
BBX 13 16 0 0
BITMAP
0060
0060
0000
0408
0E18
0E38
0E38
1F78
1FF8
1FF8
3FF8
3C78
38F8
78F8
70F8
F060
ENDCHAR
STARTCHAR 1E41
ENCODING 7745
SWIDTH 617 0
DWIDTH 12 0
BBX 13 16 0 0
BITMAP
0060
0060
0000
0408
0E18
0E38
0E38
1F78
1FF8
1FF8
3FF8
3C78
38F8
78F8
70F8
F060
ENDCHAR
STARTCHAR 1E44
ENCODING 7748
SWIDTH 565 0
DWIDTH 11 0
BBX 13 16 0 0
BITMAP
0040
00C0
0000
0F38
0F78
0F78
1F70
1F70
3FF0
3FE0
3FE0
3BE0
7BE0
7BC0
7BC0
F380
ENDCHAR
STARTCHAR 1E45
ENCODING 7749
SWIDTH 565 0
DWIDTH 11 0
BBX 13 16 0 0
BITMAP
0040
00C0
0000
0F38
0F78
0F78
1F70
1F70
3FF0
3FE0
3FE0
3BE0
7BE0
7BC0
7BC0
F380
ENDCHAR
STARTCHAR 1E48
ENCODING 7752
SWIDTH 565 0
DWIDTH 11 0
BBX 13 15 0 -3
BITMAP
0F38
0F78
0F78
1F70
1F70
3FF0
3FE0
3FE0
3BE0
7BE0
7BC0
7BC0
F380
0000
3F00
ENDCHAR
STARTCHAR 1E49
ENCODING 7753
SWIDTH 565 0
DWIDTH 11 0
BBX 13 15 0 -3
BITMAP
0F38
0F78
0F78
1F70
1F70
3FF0
3FE0
3FE0
3BE0
7BE0
7BC0
7BC0
F380
0000
3F00
ENDCHAR
STARTCHAR 1E54
ENCODING 7764
SWIDTH 462 0
DWIDTH 9 0
BBX 11 17 0 0
BITMAP
00E0
01C0
0380
0000
0FC0
1FE0
1FE0
1C60
1CE0
3DE0
3FC0
3F80
7C00
7C00
7C00
7C00
F800
ENDCHAR
STARTCHAR 1E55
ENCODING 7765
SWIDTH 462 0
DWIDTH 9 0
BBX 11 17 0 0
BITMAP
00E0
01C0
0380
0000
0FC0
1FE0
1FE0
1C60
1CE0
3DE0
3FC0
3F80
7C00
7C00
7C00
7C00
F800
ENDCHAR
STARTCHAR 1E56
ENCODING 7766
SWIDTH 462 0
DWIDTH 9 0
BBX 11 16 0 0
BITMAP
0080
0180
0000
0FC0
1FE0
1FE0
1C60
1CE0
3DE0
3FC0
3F80
7C00
7C00
7C00
7C00
F800
ENDCHAR
STARTCHAR 1E57
ENCODING 7767
SWIDTH 462 0
DWIDTH 9 0
BBX 11 16 0 0
BITMAP
0080
0180
0000
0FC0
1FE0
1FE0
1C60
1CE0
3DE0
3FC0
3F80
7C00
7C00
7C00
7C00
F800
ENDCHAR
STARTCHAR 1E5A
ENCODING 7770
SWIDTH 565 0
DWIDTH 11 0
BBX 11 16 1 -3
BITMAP
1F80
3FC0
3CC0
7CE0
7CC0
7FC0
7F00
7F00
7B80
7B80
FBC0
F9C0
F9C0
0000
0400
0C00
ENDCHAR
STARTCHAR 1E5B
ENCODING 7771
SWIDTH 565 0
DWIDTH 11 0
BBX 11 16 1 -3
BITMAP
1F80
3FC0
3CC0
7CE0
7CC0
7FC0
7F00
7F00
7B80
7B80
FBC0
F9C0
F9C0
0000
0400
0C00
ENDCHAR
STARTCHAR 1E5E
ENCODING 7774
SWIDTH 565 0
DWIDTH 11 0
BBX 11 15 1 -3
BITMAP
1F80
3FC0
3CC0
7CE0
7CC0
7FC0
7F00
7F00
7B80
7B80
FBC0
F9C0
F9C0
0000
3F00
ENDCHAR
STARTCHAR 1E5F
ENCODING 7775
SWIDTH 565 0
DWIDTH 11 0
BBX 11 15 1 -3
BITMAP
1F80
3FC0
3CC0
7CE0
7CC0
7FC0
7F00
7F00
7B80
7B80
FBC0
F9C0
F9C0
0000
3F00
ENDCHAR
STARTCHAR 1E60
ENCODING 7776
SWIDTH 462 0
DWIDTH 9 0
BBX 11 16 1 0
BITMAP
0100
0300
0000
0FE0
1FC0
1FC0
3F80
3B00
3C00
3F00
0F80
0380
D780
FF00
FF00
7C00
ENDCHAR
STARTCHAR 1E61
ENCODING 7777
SWIDTH 462 0
DWIDTH 9 0
BBX 11 16 1 0
BITMAP
0100
0300
0000
0FE0
1FC0
1FC0
3F80
3B00
3C00
3F00
0F80
0380
D780
FF00
FF00
7C00
ENDCHAR
STARTCHAR 1E62
ENCODING 7778
SWIDTH 462 0
DWIDTH 9 0
BBX 11 16 1 -3
BITMAP
0FE0
1FC0
1FC0
3F80
3B00
3C00
3F00
0F80
0380
D780
FF00
FF00
7C00
0000
3000
3000
ENDCHAR
STARTCHAR 1E63
ENCODING 7779
SWIDTH 462 0
DWIDTH 9 0
BBX 11 16 1 -3
BITMAP
0FE0
1FC0
1FC0
3F80
3B00
3C00
3F00
0F80
0380
D780
FF00
FF00
7C00
0000
3000
3000
ENDCHAR
STARTCHAR 1E6A
ENCODING 7786
SWIDTH 565 0
DWIDTH 11 0
BBX 11 16 2 0
BITMAP
0100
0300
0000
7FE0
7FE0
7FE0
FFA0
8E00
0E00
0E00
1C00
1C00
1C00
1C00
1800
3800
ENDCHAR
STARTCHAR 1E6B
ENCODING 7787
SWIDTH 565 0
DWIDTH 11 0
BBX 11 16 2 0
BITMAP
0100
0300
0000
7FE0
7FE0
7FE0
FFA0
8E00
0E00
0E00
1C00
1C00
1C00
1C00
1800
3800
ENDCHAR
STARTCHAR 1E6C
ENCODING 7788
SWIDTH 565 0
DWIDTH 11 0
BBX 11 16 2 -3
BITMAP
7FE0
7FE0
7FE0
FFA0
8E00
0E00
0E00
1C00
1C00
1C00
1C00
1800
3800
0000
3000
3000
ENDCHAR
STARTCHAR 1E6D
ENCODING 7789
SWIDTH 565 0
DWIDTH 11 0
BBX 11 16 2 -3
BITMAP
7FE0
7FE0
7FE0
FFA0
8E00
0E00
0E00
1C00
1C00
1C00
1C00
1800
3800
0000
3000
3000
ENDCHAR
STARTCHAR 1E6E
ENCODING 7790
SWIDTH 565 0
DWIDTH 11 0
BBX 11 15 2 -3
BITMAP
7FE0
7FE0
7FE0
FFA0
8E00
0E00
0E00
1C00
1C00
1C00
1C00
1800
3800
0000
7C00
ENDCHAR
STARTCHAR 1E6F
ENCODING 7791
SWIDTH 565 0
DWIDTH 11 0
BBX 11 15 2 -3
BITMAP
7FE0
7FE0
7FE0
FFA0
8E00
0E00
0E00
1C00
1C00
1C00
1C00
1800
3800
0000
7C00
ENDCHAR
STARTCHAR 1E7C
ENCODING 7804
SWIDTH 565 0
DWIDTH 11 0
BBX 11 17 3 0
BITMAP
04C0
0F80
0F80
0000
81E0
F9E0
FBC0
7BC0
7B80
7F80
7F00
3F00
3F00
3E00
1E00
1C00
0800
ENDCHAR
STARTCHAR 1E7D
ENCODING 7805
SWIDTH 565 0
DWIDTH 11 0
BBX 11 17 3 0
BITMAP
04C0
0F80
0F80
0000
81E0
F9E0
FBC0
7BC0
7B80
7F80
7F00
3F00
3F00
3E00
1E00
1C00
0800
ENDCHAR
STARTCHAR 1E80
ENCODING 7808
SWIDTH 720 0
DWIDTH 14 0
BBX 14 17 3 0
BITMAP
0E00
0600
0700
0000
F23C
F338
F370
F7F0
F7F0
FFE0
FFE0
7FC0
7BC0
7BC0
3380
3380
2000
ENDCHAR
STARTCHAR 1E81
ENCODING 7809
SWIDTH 720 0
DWIDTH 14 0
BBX 14 17 3 0
BITMAP
0E00
0600
0700
0000
F23C
F338
F370
F7F0
F7F0
FFE0
FFE0
7FC0
7BC0
7BC0
3380
3380
2000
ENDCHAR
STARTCHAR 1E82
ENCODING 7810
SWIDTH 720 0
DWIDTH 14 0
BBX 14 17 3 0
BITMAP
00E0
01C0
0380
0000
F23C
F338
F370
F7F0
F7F0
FFE0
FFE0
7FC0
7BC0
7BC0
3380
3380
2000
ENDCHAR
STARTCHAR 1E83
ENCODING 7811
SWIDTH 720 0
DWIDTH 14 0
BBX 14 17 3 0
BITMAP
00E0
01C0
0380
0000
F23C
F338
F370
F7F0
F7F0
FFE0
FFE0
7FC0
7BC0
7BC0
3380
3380
2000
ENDCHAR
STARTCHAR 1E84
ENCODING 7812
SWIDTH 720 0
DWIDTH 14 0
BBX 14 16 3 0
BITMAP
04C0
0CC0
0000
F23C
F338
F370
F7F0
F7F0
FFE0
FFE0
7FC0
7BC0
7BC0
3380
3380
2000
ENDCHAR
STARTCHAR 1E85
ENCODING 7813
SWIDTH 720 0
DWIDTH 14 0
BBX 14 16 3 0
BITMAP
04C0
0CC0
0000
F23C
F338
F370
F7F0
F7F0
FFE0
FFE0
7FC0
7BC0
7BC0
3380
3380
2000
ENDCHAR
STARTCHAR 1E90
ENCODING 7824
SWIDTH 565 0
DWIDTH 11 0
BBX 9 17 3 0
BITMAP
0600
1F00
3B00
0000
7F80
FF00
FE00
0E00
1C00
1C00
3800
3800
7000
EF80
FF80
FF00
3E00
ENDCHAR
STARTCHAR 1E91
ENCODING 7825
SWIDTH 565 0
DWIDTH 11 0
BBX 9 17 3 0
BITMAP
0600
1F00
3B00
0000
7F80
FF00
FE00
0E00
1C00
1C00
3800
3800
7000
EF80
FF80
FF00
3E00
ENDCHAR
STARTCHAR 1E92
ENCODING 7826
SWIDTH 565 0
DWIDTH 11 0
BBX 9 16 3 -3
BITMAP
7F80
FF00
FE00
0E00
1C00
1C00
3800
3800
7000
EF80
FF80
FF00
3E00
0000
3000
3000
ENDCHAR
STARTCHAR 1E93
ENCODING 7827
SWIDTH 565 0
DWIDTH 11 0
BBX 9 16 3 -3
BITMAP
7F80
FF00
FE00
0E00
1C00
1C00
3800
3800
7000
EF80
FF80
FF00
3E00
0000
3000
3000
ENDCHAR
STARTCHAR 1E94
ENCODING 7828
SWIDTH 565 0
DWIDTH 11 0
BBX 9 15 3 -3
BITMAP
7F80
FF00
FE00
0E00
1C00
1C00
3800
3800
7000
EF80
FF80
FF00
3E00
0000
FC00
ENDCHAR
STARTCHAR 1E95
ENCODING 7829
SWIDTH 565 0
DWIDTH 11 0
BBX 9 15 3 -3
BITMAP
7F80
FF00
FE00
0E00
1C00
1C00
3800
3800
7000
EF80
FF80
FF00
3E00
0000
FC00
ENDCHAR
STARTCHAR 1E96
ENCODING 7830
SWIDTH 514 0
DWIDTH 10 0
BBX 12 15 1 -3
BITMAP
1E70
1E70
1EF0
1CE0
3CE0
3FE0
3FE0
7FE0
7FC0
7BC0
FBC0
F380
F600
0000
7E00
ENDCHAR
STARTCHAR 1E9B
ENCODING 7835
SWIDTH 411 0
DWIDTH 8 0
BBX 10 19 1 -3
BITMAP
0200
0600
0000
0F80
3FC0
3980
7800
7000
7000
7000
7000
7000
7000
E000
E000
E000
E000
E000
E000
ENDCHAR
STARTCHAR 1E9C
ENCODING 7836
SWIDTH 462 0
DWIDTH 9 0
BBX 10 16 1 -2
BITMAP
0FC0
1FC0
3CC0
3800
3800
3B00
3F00
7F00
FC00
F000
F000
7000
7000
E000
E000
E000
ENDCHAR
STARTCHAR 1E9D
ENCODING 7837
SWIDTH 462 0
DWIDTH 9 0
BBX 10 16 1 -2
BITMAP
0FC0
1FC0
3CC0
3800
7F00
7E00
3800
3800
7000
7000
7000
7000
7000
E000
E000
E000
ENDCHAR
STARTCHAR 1E9E
ENCODING 7838
SWIDTH 514 0
DWIDTH 10 0
BBX 11 15 1 -1
BITMAP
0400
1F80
3F80
3B80
7180
7380
7700
77C0
77C0
71E0
61C0
E3C0
E780
EF00
E000
ENDCHAR
STARTCHAR 1EA0
ENCODING 7840
SWIDTH 617 0
DWIDTH 12 0
BBX 11 16 1 -3
BITMAP
0180
0180
0380
07C0
07C0
0FC0
0FC0
1BC0
33C0
3FC0
7BC0
E3E0
E3E0
0000
1800
1800
ENDCHAR
STARTCHAR 1EA1
ENCODING 7841
SWIDTH 617 0
DWIDTH 12 0
BBX 11 16 1 -3
BITMAP
0180
0180
0380
07C0
07C0
0FC0
0FC0
1BC0
33C0
3FC0
7BC0
E3E0
E3E0
0000
1800
1800
ENDCHAR
STARTCHAR 1EA2
ENCODING 7842
SWIDTH 617 0
DWIDTH 12 0
BBX 11 17 1 0
BITMAP
01E0
0060
01C0
0000
0180
0180
0380
07C0
07C0
0FC0
0FC0
1BC0
33C0
3FC0
7BC0
E3E0
E3E0
ENDCHAR
STARTCHAR 1EA3
ENCODING 7843
SWIDTH 617 0
DWIDTH 12 0
BBX 11 17 1 0
BITMAP
01E0
0060
01C0
0000
0180
0180
0380
07C0
07C0
0FC0
0FC0
1BC0
33C0
3FC0
7BC0
E3E0
E3E0
ENDCHAR
STARTCHAR 1EA4
ENCODING 7844
SWIDTH 617 0
DWIDTH 12 0
BBX 14 18 1 0
BITMAP
001C
0038
0000
03E0
0000
0180
0180
0380
07C0
07C0
0FC0
0FC0
1BC0
33C0
3FC0
7BC0
E3E0
E3E0
ENDCHAR
STARTCHAR 1EA5
ENCODING 7845
SWIDTH 617 0
DWIDTH 12 0
BBX 14 18 1 0
BITMAP
001C
0038
0000
03E0
0000
0180
0180
0380
07C0
07C0
0FC0
0FC0
1BC0
33C0
3FC0
7BC0
E3E0
E3E0
ENDCHAR
STARTCHAR 1EA6
ENCODING 7846
SWIDTH 617 0
DWIDTH 12 0
BBX 11 18 1 0
BITMAP
0E00
0700
0000
03E0
0000
0180
0180
0380
07C0
07C0
0FC0
0FC0
1BC0
33C0
3FC0
7BC0
E3E0
E3E0
ENDCHAR
STARTCHAR 1EA7
ENCODING 7847
SWIDTH 617 0
DWIDTH 12 0
BBX 11 18 1 0
BITMAP
0E00
0700
0000
03E0
0000
0180
0180
0380
07C0
07C0
0FC0
0FC0
1BC0
33C0
3FC0
7BC0
E3E0
E3E0
ENDCHAR
STARTCHAR 1EA8
ENCODING 7848
SWIDTH 617 0
DWIDTH 12 0
BBX 14 18 1 0
BITMAP
003C
0038
0000
03E0
0000
0180
0180
0380
07C0
07C0
0FC0
0FC0
1BC0
33C0
3FC0
7BC0
E3E0
E3E0
ENDCHAR
STARTCHAR 1EA9
ENCODING 7849
SWIDTH 617 0
DWIDTH 12 0
BBX 14 18 1 0
BITMAP
003C
0038
0000
03E0
0000
0180
0180
0380
07C0
07C0
0FC0
0FC0
1BC0
33C0
3FC0
7BC0
E3E0
E3E0
ENDCHAR
STARTCHAR 1EAA
ENCODING 7850
SWIDTH 617 0
DWIDTH 12 0
BBX 12 18 1 0
BITMAP
01B0
03F0
0000
03E0
0000
0180
0180
0380
07C0
07C0
0FC0
0FC0
1BC0
33C0
3FC0
7BC0
E3E0
E3E0
ENDCHAR
STARTCHAR 1EAB
ENCODING 7851
SWIDTH 617 0
DWIDTH 12 0
BBX 12 18 1 0
BITMAP
01B0
03F0
0000
03E0
0000
0180
0180
0380
07C0
07C0
0FC0
0FC0
1BC0
33C0
3FC0
7BC0
E3E0
E3E0
ENDCHAR
STARTCHAR 1EAC
ENCODING 7852
SWIDTH 617 0
DWIDTH 12 0
BBX 11 20 1 -3
BITMAP
00C0
01E0
0360
0000
0180
0180
0380
07C0
07C0
0FC0
0FC0
1BC0
33C0
3FC0
7BC0
E3E0
E3E0
0000
1800
1800
ENDCHAR
STARTCHAR 1EAD
ENCODING 7853
SWIDTH 617 0
DWIDTH 12 0
BBX 11 20 1 -3
BITMAP
00C0
01E0
0360
0000
0180
0180
0380
07C0
07C0
0FC0
0FC0
1BC0
33C0
3FC0
7BC0
E3E0
E3E0
0000
1800
1800
ENDCHAR
STARTCHAR 1EAE
ENCODING 7854
SWIDTH 617 0
DWIDTH 12 0
BBX 12 18 1 0
BITMAP
0070
00E0
0000
03E0
0000
0180
0180
0380
07C0
07C0
0FC0
0FC0
1BC0
33C0
3FC0
7BC0
E3E0
E3E0
ENDCHAR
STARTCHAR 1EAF
ENCODING 7855
SWIDTH 617 0
DWIDTH 12 0
BBX 12 18 1 0
BITMAP
0070
00E0
0000
03E0
0000
0180
0180
0380
07C0
07C0
0FC0
0FC0
1BC0
33C0
3FC0
7BC0
E3E0
E3E0
ENDCHAR
STARTCHAR 1EB0
ENCODING 7856
SWIDTH 617 0
DWIDTH 12 0
BBX 11 18 1 0
BITMAP
0380
01C0
0000
03E0
0000
0180
0180
0380
07C0
07C0
0FC0
0FC0
1BC0
33C0
3FC0
7BC0
E3E0
E3E0
ENDCHAR
STARTCHAR 1EB1
ENCODING 7857
SWIDTH 617 0
DWIDTH 12 0
BBX 11 18 1 0
BITMAP
0380
01C0
0000
03E0
0000
0180
0180
0380
07C0
07C0
0FC0
0FC0
1BC0
33C0
3FC0
7BC0
E3E0
E3E0
ENDCHAR
STARTCHAR 1EB2
ENCODING 7858
SWIDTH 617 0
DWIDTH 12 0
BBX 12 18 1 0
BITMAP
00F0
0070
0080
03E0
0000
0180
0180
0380
07C0
07C0
0FC0
0FC0
1BC0
33C0
3FC0
7BC0
E3E0
E3E0
ENDCHAR
STARTCHAR 1EB3
ENCODING 7859
SWIDTH 617 0
DWIDTH 12 0
BBX 12 18 1 0
BITMAP
00F0
0070
0080
03E0
0000
0180
0180
0380
07C0
07C0
0FC0
0FC0
1BC0
33C0
3FC0
7BC0
E3E0
E3E0
ENDCHAR
STARTCHAR 1EB4
ENCODING 7860
SWIDTH 617 0
DWIDTH 12 0
BBX 12 18 1 0
BITMAP
01B0
03F0
0000
03E0
0000
0180
0180
0380
07C0
07C0
0FC0
0FC0
1BC0
33C0
3FC0
7BC0
E3E0
E3E0
ENDCHAR
STARTCHAR 1EB5
ENCODING 7861
SWIDTH 617 0
DWIDTH 12 0
BBX 12 18 1 0
BITMAP
01B0
03F0
0000
03E0
0000
0180
0180
0380
07C0
07C0
0FC0
0FC0
1BC0
33C0
3FC0
7BC0
E3E0
E3E0
ENDCHAR
STARTCHAR 1EB6
ENCODING 7862
SWIDTH 617 0
DWIDTH 12 0
BBX 12 20 1 -3
BITMAP
0330
03E0
01C0
0000
0180
0180
0380
07C0
07C0
0FC0
0FC0
1BC0
33C0
3FC0
7BC0
E3E0
E3E0
0000
1800
1800
ENDCHAR
STARTCHAR 1EB7
ENCODING 7863
SWIDTH 617 0
DWIDTH 12 0
BBX 12 20 1 -3
BITMAP
0330
03E0
01C0
0000
0180
0180
0380
07C0
07C0
0FC0
0FC0
1BC0
33C0
3FC0
7BC0
E3E0
E3E0
0000
1800
1800
ENDCHAR
STARTCHAR 1EB8
ENCODING 7864
SWIDTH 462 0
DWIDTH 9 0
BBX 8 17 2 -3
BITMAP
0C
7F
7F
7E
7E
70
7C
7C
70
7F
7F
7F
FF
70
00
30
30
ENDCHAR
STARTCHAR 1EB9
ENCODING 7865
SWIDTH 462 0
DWIDTH 9 0
BBX 8 17 2 -3
BITMAP
0C
7F
7F
7E
7E
70
7C
7C
70
7F
7F
7F
FF
70
00
30
30
ENDCHAR
STARTCHAR 1EBA
ENCODING 7866
SWIDTH 462 0
DWIDTH 9 0
BBX 8 17 2 0
BITMAP
1E
06
18
0C
7F
7F
7E
7E
70
7C
7C
70
7F
7F
7F
FF
70
ENDCHAR
STARTCHAR 1EBB
ENCODING 7867
SWIDTH 462 0
DWIDTH 9 0
BBX 8 17 2 0
BITMAP
1E
06
18
0C
7F
7F
7E
7E
70
7C
7C
70
7F
7F
7F
FF
70
ENDCHAR
STARTCHAR 1EBC
ENCODING 7868
SWIDTH 462 0
DWIDTH 9 0
BBX 8 17 2 0
BITMAP
16
3E
6C
0C
7F
7F
7E
7E
70
7C
7C
70
7F
7F
7F
FF
70
ENDCHAR
STARTCHAR 1EBD
ENCODING 7869
SWIDTH 462 0
DWIDTH 9 0
BBX 8 17 2 0
BITMAP
16
3E
6C
0C
7F
7F
7E
7E
70
7C
7C
70
7F
7F
7F
FF
70
ENDCHAR
STARTCHAR 1EBE
ENCODING 7870
SWIDTH 462 0
DWIDTH 9 0
BBX 10 18 2 0
BITMAP
01C0
0380
0800
3E00
0C00
7F00
7F00
7E00
7E00
7000
7C00
7C00
7000
7F00
7F00
7F00
FF00
7000
ENDCHAR
STARTCHAR 1EBF
ENCODING 7871
SWIDTH 462 0
DWIDTH 9 0
BBX 10 18 2 0
BITMAP
01C0
0380
0800
3E00
0C00
7F00
7F00
7E00
7E00
7000
7C00
7C00
7000
7F00
7F00
7F00
FF00
7000
ENDCHAR
STARTCHAR 1EC0
ENCODING 7872
SWIDTH 462 0
DWIDTH 9 0
BBX 8 18 2 0
BITMAP
E0
70
08
3E
0C
7F
7F
7E
7E
70
7C
7C
70
7F
7F
7F
FF
70
ENDCHAR
STARTCHAR 1EC1
ENCODING 7873
SWIDTH 462 0
DWIDTH 9 0
BBX 8 18 2 0
BITMAP
E0
70
08
3E
0C
7F
7F
7E
7E
70
7C
7C
70
7F
7F
7F
FF
70
ENDCHAR
STARTCHAR 1EC2
ENCODING 7874
SWIDTH 462 0
DWIDTH 9 0
BBX 10 18 2 0
BITMAP
03C0
0780
0800
3E00
0C00
7F00
7F00
7E00
7E00
7000
7C00
7C00
7000
7F00
7F00
7F00
FF00
7000
ENDCHAR
STARTCHAR 1EC3
ENCODING 7875
SWIDTH 462 0
DWIDTH 9 0
BBX 10 18 2 0
BITMAP
03C0
0780
0800
3E00
0C00
7F00
7F00
7E00
7E00
7000
7C00
7C00
7000
7F00
7F00
7F00
FF00
7000
ENDCHAR
STARTCHAR 1EC4
ENCODING 7876
SWIDTH 462 0
DWIDTH 9 0
BBX 8 18 2 0
BITMAP
1B
3F
08
3E
0C
7F
7F
7E
7E
70
7C
7C
70
7F
7F
7F
FF
70
ENDCHAR
STARTCHAR 1EC5
ENCODING 7877
SWIDTH 462 0
DWIDTH 9 0
BBX 8 18 2 0
BITMAP
1B
3F
08
3E
0C
7F
7F
7E
7E
70
7C
7C
70
7F
7F
7F
FF
70
ENDCHAR
STARTCHAR 1EC6
ENCODING 7878
SWIDTH 462 0
DWIDTH 9 0
BBX 8 20 2 -3
BITMAP
0C
3E
76
0C
7F
7F
7E
7E
70
7C
7C
70
7F
7F
7F
FF
70
00
30
30
ENDCHAR
STARTCHAR 1EC7
ENCODING 7879
SWIDTH 462 0
DWIDTH 9 0
BBX 8 20 2 -3
BITMAP
0C
3E
76
0C
7F
7F
7E
7E
70
7C
7C
70
7F
7F
7F
FF
70
00
30
30
ENDCHAR
STARTCHAR 1EC8
ENCODING 7880
SWIDTH 308 0
DWIDTH 6 0
BBX 9 17 1 0
BITMAP
0780
0180
0700
0000
1F00
1E00
1E00
1E00
3C00
3C00
3C00
7C00
7800
7800
7800
F000
E000
ENDCHAR
STARTCHAR 1EC9
ENCODING 7881
SWIDTH 308 0
DWIDTH 6 0
BBX 9 17 1 0
BITMAP
0780
0180
0700
0000
1F00
1E00
1E00
1E00
3C00
3C00
3C00
7C00
7800
7800
7800
F000
E000
ENDCHAR
STARTCHAR 1ECA
ENCODING 7882
SWIDTH 308 0
DWIDTH 6 0
BBX 8 16 1 -3
BITMAP
1F
1E
1E
1E
3C
3C
3C
7C
78
78
78
F0
E0
00
60
C0
ENDCHAR
STARTCHAR 1ECB
ENCODING 7883
SWIDTH 308 0
DWIDTH 6 0
BBX 8 16 1 -3
BITMAP
1F
1E
1E
1E
3C
3C
3C
7C
78
78
78
F0
E0
00
60
C0
ENDCHAR
STARTCHAR 1ECC
ENCODING 7884
SWIDTH 514 0
DWIDTH 10 0
BBX 10 17 2 -3
BITMAP
0800
1E00
3F00
3F80
7F80
FF80
F3C0
E380
F780
FF80
FF80
FF00
FE00
7C00
0000
3000
3000
ENDCHAR
STARTCHAR 1ECD
ENCODING 7885
SWIDTH 514 0
DWIDTH 10 0
BBX 10 17 2 -3
BITMAP
0800
1E00
3F00
3F80
7F80
FF80
F3C0
E380
F780
FF80
FF80
FF00
FE00
7C00
0000
3000
3000
ENDCHAR
STARTCHAR 1ECE
ENCODING 7886
SWIDTH 514 0
DWIDTH 10 0
BBX 10 17 2 0
BITMAP
0F00
0300
0C00
0800
1E00
3F00
3F80
7F80
FF80
F3C0
E380
F780
FF80
FF80
FF00
FE00
7C00
ENDCHAR
STARTCHAR 1ECF
ENCODING 7887
SWIDTH 514 0
DWIDTH 10 0
BBX 10 17 2 0
BITMAP
0F00
0300
0C00
0800
1E00
3F00
3F80
7F80
FF80
F3C0
E380
F780
FF80
FF80
FF00
FE00
7C00
ENDCHAR
STARTCHAR 1ED0
ENCODING 7888
SWIDTH 514 0
DWIDTH 10 0
BBX 10 18 2 0
BITMAP
00C0
0180
0400
1E00
2800
1E00
3F00
3F80
7F80
FF80
F3C0
E380
F780
FF80
FF80
FF00
FE00
7C00
ENDCHAR
STARTCHAR 1ED1
ENCODING 7889
SWIDTH 514 0
DWIDTH 10 0
BBX 10 18 2 0
BITMAP
00C0
0180
0400
1E00
2800
1E00
3F00
3F80
7F80
FF80
F3C0
E380
F780
FF80
FF80
FF00
FE00
7C00
ENDCHAR
STARTCHAR 1ED2
ENCODING 7890
SWIDTH 514 0
DWIDTH 10 0
BBX 10 18 2 0
BITMAP
6000
3000
0400
1E00
2800
1E00
3F00
3F80
7F80
FF80
F3C0
E380
F780
FF80
FF80
FF00
FE00
7C00
ENDCHAR
STARTCHAR 1ED3
ENCODING 7891
SWIDTH 514 0
DWIDTH 10 0
BBX 10 18 2 0
BITMAP
6000
3000
0400
1E00
2800
1E00
3F00
3F80
7F80
FF80
F3C0
E380
F780
FF80
FF80
FF00
FE00
7C00
ENDCHAR
STARTCHAR 1ED4
ENCODING 7892
SWIDTH 514 0
DWIDTH 10 0
BBX 10 18 2 0
BITMAP
03C0
01C0
0600
1E00
2800
1E00
3F00
3F80
7F80
FF80
F3C0
E380
F780
FF80
FF80
FF00
FE00
7C00
ENDCHAR
STARTCHAR 1ED5
ENCODING 7893
SWIDTH 514 0
DWIDTH 10 0
BBX 10 18 2 0
BITMAP
03C0
01C0
0600
1E00
2800
1E00
3F00
3F80
7F80
FF80
F3C0
E380
F780
FF80
FF80
FF00
FE00
7C00
ENDCHAR
STARTCHAR 1ED6
ENCODING 7894
SWIDTH 514 0
DWIDTH 10 0
BBX 10 18 2 0
BITMAP
0B00
1F00
0400
1E00
2800
1E00
3F00
3F80
7F80
FF80
F3C0
E380
F780
FF80
FF80
FF00
FE00
7C00
ENDCHAR
STARTCHAR 1ED7
ENCODING 7895
SWIDTH 514 0
DWIDTH 10 0
BBX 10 18 2 0
BITMAP
0B00
1F00
0400
1E00
2800
1E00
3F00
3F80
7F80
FF80
F3C0
E380
F780
FF80
FF80
FF00
FE00
7C00
ENDCHAR
STARTCHAR 1ED8
ENCODING 7896
SWIDTH 514 0
DWIDTH 10 0
BBX 10 20 2 -3
BITMAP
0C00
1E00
3700
0800
1E00
3F00
3F80
7F80
FF80
F3C0
E380
F780
FF80
FF80
FF00
FE00
7C00
0000
3000
3000
ENDCHAR
STARTCHAR 1ED9
ENCODING 7897
SWIDTH 514 0
DWIDTH 10 0
BBX 10 20 2 -3
BITMAP
0C00
1E00
3700
0800
1E00
3F00
3F80
7F80
FF80
F3C0
E380
F780
FF80
FF80
FF00
FE00
7C00
0000
3000
3000
ENDCHAR
STARTCHAR 1EDA
ENCODING 7898
SWIDTH 514 0
DWIDTH 10 0
BBX 11 17 2 0
BITMAP
0300
0700
0C00
0860
1E60
3F60
3FE0
7FC0
FF80
F3C0
E380
F780
FF80
FF80
FF00
FE00
7C00
ENDCHAR
STARTCHAR 1EDB
ENCODING 7899
SWIDTH 514 0
DWIDTH 10 0
BBX 11 17 2 0
BITMAP
0300
0700
0C00
0860
1E60
3F60
3FE0
7FC0
FF80
F3C0
E380
F780
FF80
FF80
FF00
FE00
7C00
ENDCHAR
STARTCHAR 1EDC
ENCODING 7900
SWIDTH 514 0
DWIDTH 10 0
BBX 11 17 2 0
BITMAP
3800
3800
1800
0860
1E60
3F60
3FE0
7FC0
FF80
F3C0
E380
F780
FF80
FF80
FF00
FE00
7C00
ENDCHAR
STARTCHAR 1EDD
ENCODING 7901
SWIDTH 514 0
DWIDTH 10 0
BBX 11 17 2 0
BITMAP
3800
3800
1800
0860
1E60
3F60
3FE0
7FC0
FF80
F3C0
E380
F780
FF80
FF80
FF00
FE00
7C00
ENDCHAR
STARTCHAR 1EDE
ENCODING 7902
SWIDTH 514 0
DWIDTH 10 0
BBX 11 17 2 0
BITMAP
0F00
0300
0C00
0860
1E60
3F60
3FE0
7FC0
FF80
F3C0
E380
F780
FF80
FF80
FF00
FE00
7C00
ENDCHAR
STARTCHAR 1EDF
ENCODING 7903
SWIDTH 514 0
DWIDTH 10 0
BBX 11 17 2 0
BITMAP
0F00
0300
0C00
0860
1E60
3F60
3FE0
7FC0
FF80
F3C0
E380
F780
FF80
FF80
FF00
FE00
7C00
ENDCHAR
STARTCHAR 1EE0
ENCODING 7904
SWIDTH 514 0
DWIDTH 10 0
BBX 11 17 2 0
BITMAP
0300
3F00
3E00
0860
1E60
3F60
3FE0
7FC0
FF80
F3C0
E380
F780
FF80
FF80
FF00
FE00
7C00
ENDCHAR
STARTCHAR 1EE1
ENCODING 7905
SWIDTH 514 0
DWIDTH 10 0
BBX 11 17 2 0
BITMAP
0300
3F00
3E00
0860
1E60
3F60
3FE0
7FC0
FF80
F3C0
E380
F780
FF80
FF80
FF00
FE00
7C00
ENDCHAR
STARTCHAR 1EE2
ENCODING 7906
SWIDTH 514 0
DWIDTH 10 0
BBX 11 17 2 -3
BITMAP
0860
1E60
3F60
3FE0
7FC0
FF80
F3C0
E380
F780
FF80
FF80
FF00
FE00
7C00
0000
3000
3000
ENDCHAR
STARTCHAR 1EE3
ENCODING 7907
SWIDTH 514 0
DWIDTH 10 0
BBX 11 17 2 -3
BITMAP
0860
1E60
3F60
3FE0
7FC0
FF80
F3C0
E380
F780
FF80
FF80
FF00
FE00
7C00
0000
3000
3000
ENDCHAR
STARTCHAR 1EE4
ENCODING 7908
SWIDTH 514 0
DWIDTH 10 0
BBX 11 16 2 -3
BITMAP
38E0
38E0
70C0
71C0
F1C0
F3C0
F3C0
FF80
FF80
FF00
FE00
FC00
3800
0000
6000
6000
ENDCHAR
STARTCHAR 1EE5
ENCODING 7909
SWIDTH 514 0
DWIDTH 10 0
BBX 11 16 2 -3
BITMAP
38E0
38E0
70C0
71C0
F1C0
F3C0
F3C0
FF80
FF80
FF00
FE00
FC00
3800
0000
6000
6000
ENDCHAR
STARTCHAR 1EE6
ENCODING 7910
SWIDTH 514 0
DWIDTH 10 0
BBX 11 17 2 0
BITMAP
0380
00C0
0380
0000
38E0
38E0
70C0
71C0
F1C0
F3C0
F3C0
FF80
FF80
FF00
FE00
FC00
3800
ENDCHAR
STARTCHAR 1EE7
ENCODING 7911
SWIDTH 514 0
DWIDTH 10 0
BBX 11 17 2 0
BITMAP
0380
00C0
0380
0000
38E0
38E0
70C0
71C0
F1C0
F3C0
F3C0
FF80
FF80
FF00
FE00
FC00
3800
ENDCHAR
STARTCHAR 1EE8
ENCODING 7912
SWIDTH 565 0
DWIDTH 11 0
BBX 12 17 2 0
BITMAP
01C0
0380
0700
0030
73B0
71B0
63B0
E3E0
E3C0
E380
E780
EF80
FF00
FF00
FE00
7E00
7800
ENDCHAR
STARTCHAR 1EE9
ENCODING 7913
SWIDTH 565 0
DWIDTH 11 0
BBX 12 17 2 0
BITMAP
01C0
0380
0700
0030
73B0
71B0
63B0
E3E0
E3C0
E380
E780
EF80
FF00
FF00
FE00
7E00
7800
ENDCHAR
STARTCHAR 1EEA
ENCODING 7914
SWIDTH 565 0
DWIDTH 11 0
BBX 12 17 2 0
BITMAP
1C00
1C00
0C00
0030
73B0
71B0
63B0
E3E0
E3C0
E380
E780
EF80
FF00
FF00
FE00
7E00
7800
ENDCHAR
STARTCHAR 1EEB
ENCODING 7915
SWIDTH 565 0
DWIDTH 11 0
BBX 12 17 2 0
BITMAP
1C00
1C00
0C00
0030
73B0
71B0
63B0
E3E0
E3C0
E380
E780
EF80
FF00
FF00
FE00
7E00
7800
ENDCHAR
STARTCHAR 1EEC
ENCODING 7916
SWIDTH 565 0
DWIDTH 11 0
BBX 12 17 2 0
BITMAP
0700
0B80
0F00
0030
73B0
71B0
63B0
E3E0
E3C0
E380
E780
EF80
FF00
FF00
FE00
7E00
7800
ENDCHAR
STARTCHAR 1EED
ENCODING 7917
SWIDTH 565 0
DWIDTH 11 0
BBX 12 17 2 0
BITMAP
0700
0B80
0F00
0030
73B0
71B0
63B0
E3E0
E3C0
E380
E780
EF80
FF00
FF00
FE00
7E00
7800
ENDCHAR
STARTCHAR 1EEE
ENCODING 7918
SWIDTH 565 0
DWIDTH 11 0
BBX 12 17 2 0
BITMAP
0980
1F80
1F00
0030
73B0
71B0
63B0
E3E0
E3C0
E380
E780
EF80
FF00
FF00
FE00
7E00
7800
ENDCHAR
STARTCHAR 1EEF
ENCODING 7919
SWIDTH 565 0
DWIDTH 11 0
BBX 12 17 2 0
BITMAP
0980
1F80
1F00
0030
73B0
71B0
63B0
E3E0
E3C0
E380
E780
EF80
FF00
FF00
FE00
7E00
7800
ENDCHAR
STARTCHAR 1EF0
ENCODING 7920
SWIDTH 565 0
DWIDTH 11 0
BBX 12 17 2 -3
BITMAP
0030
73B0
71B0
63B0
E3E0
E3C0
E380
E780
EF80
FF00
FF00
FE00
7E00
7800
0000
1000
3000
ENDCHAR
STARTCHAR 1EF1
ENCODING 7921
SWIDTH 565 0
DWIDTH 11 0
BBX 12 17 2 -3
BITMAP
0030
73B0
71B0
63B0
E3E0
E3C0
E380
E780
EF80
FF00
FF00
FE00
7E00
7800
0000
1000
3000
ENDCHAR
STARTCHAR 1EF2
ENCODING 7922
SWIDTH 565 0
DWIDTH 11 0
BBX 11 17 3 0
BITMAP
1C00
0C00
0600
0000
20E0
F1C0
F1C0
F380
7700
7F00
7E00
3C00
3800
3800
3800
3800
3800
ENDCHAR
STARTCHAR 1EF3
ENCODING 7923
SWIDTH 565 0
DWIDTH 11 0
BBX 11 17 3 0
BITMAP
1C00
0C00
0600
0000
20E0
F1C0
F1C0
F380
7700
7F00
7E00
3C00
3800
3800
3800
3800
3800
ENDCHAR
STARTCHAR 1EF4
ENCODING 7924
SWIDTH 565 0
DWIDTH 11 0
BBX 11 16 3 -3
BITMAP
20E0
F1C0
F1C0
F380
7700
7F00
7E00
3C00
3800
3800
3800
3800
3800
0000
3000
3000
ENDCHAR
STARTCHAR 1EF5
ENCODING 7925
SWIDTH 565 0
DWIDTH 11 0
BBX 11 16 3 -3
BITMAP
20E0
F1C0
F1C0
F380
7700
7F00
7E00
3C00
3800
3800
3800
3800
3800
0000
3000
3000
ENDCHAR
STARTCHAR 1EF6
ENCODING 7926
SWIDTH 565 0
DWIDTH 11 0
BBX 11 17 3 0
BITMAP
0780
0180
0700
0000
20E0
F1C0
F1C0
F380
7700
7F00
7E00
3C00
3800
3800
3800
3800
3800
ENDCHAR
STARTCHAR 1EF7
ENCODING 7927
SWIDTH 565 0
DWIDTH 11 0
BBX 11 17 3 0
BITMAP
0780
0180
0700
0000
20E0
F1C0
F1C0
F380
7700
7F00
7E00
3C00
3800
3800
3800
3800
3800
ENDCHAR
STARTCHAR 1EF8
ENCODING 7928
SWIDTH 565 0
DWIDTH 11 0
BBX 11 17 3 0
BITMAP
0580
0F80
1F00
0000
20E0
F1C0
F1C0
F380
7700
7F00
7E00
3C00
3800
3800
3800
3800
3800
ENDCHAR
STARTCHAR 1EF9
ENCODING 7929
SWIDTH 565 0
DWIDTH 11 0
BBX 11 17 3 0
BITMAP
0580
0F80
1F00
0000
20E0
F1C0
F1C0
F380
7700
7F00
7E00
3C00
3800
3800
3800
3800
3800
ENDCHAR
STARTCHAR 1F70
ENCODING 8048
SWIDTH 617 0
DWIDTH 12 0
BBX 11 14 1 0
BITMAP
1800
0D80
0D80
0380
07C0
07C0
0FC0
0FC0
1BC0
33C0
3FC0
7BC0
E3E0
E3E0
ENDCHAR
STARTCHAR 1F72
ENCODING 8050
SWIDTH 617 0
DWIDTH 12 0
BBX 9 14 3 0
BITMAP
C600
FF80
5F80
1F80
3F00
3C00
3F00
3F00
3C00
3F80
3F80
3F80
3F80
3800
ENDCHAR
STARTCHAR 1F74
ENCODING 8052
SWIDTH 617 0
DWIDTH 12 0
BBX 13 14 2 0
BITMAP
6000
6F38
2F78
1E70
1EF0
1EF0
3FE0
3FE0
3FE0
7FE0
79E0
7BC0
7BC0
F300
ENDCHAR
STARTCHAR 1F76
ENCODING 8054
SWIDTH 360 0
DWIDTH 7 0
BBX 8 14 2 0
BITMAP
60
6F
3F
1E
1E
3E
3C
3C
3C
7C
78
78
F8
F0
ENDCHAR
STARTCHAR 1F78
ENCODING 8056
SWIDTH 565 0
DWIDTH 11 0
BBX 10 14 2 0
BITMAP
6400
6F00
3F80
1FC0
3FC0
7FC0
79C0
71C0
73C0
FFC0
7F80
7F80
7F00
3E00
ENDCHAR
STARTCHAR 1F7A
ENCODING 8058
SWIDTH 720 0
DWIDTH 14 0
BBX 13 14 3 0
BITMAP
C000
C838
7C78
3C70
1CE0
1DC0
1FC0
1F80
0F00
0F00
0E00
0E00
0E00
0E00
ENDCHAR
STARTCHAR 1F7C
ENCODING 8060
SWIDTH 668 0
DWIDTH 13 0
BBX 12 14 2 0
BITMAP
6380
6FE0
3FF0
3FF0
3CF0
3870
7070
7070
7070
70E0
38C0
F9E0
F9E0
FBE0
ENDCHAR
STARTCHAR 1FBA
ENCODING 8122
SWIDTH 617 0
DWIDTH 12 0
BBX 11 14 1 0
BITMAP
1800
0D80
0D80
0380
07C0
07C0
0FC0
0FC0
1BC0
33C0
3FC0
7BC0
E3E0
E3E0
ENDCHAR
STARTCHAR 1FC0
ENCODING 8128
SWIDTH 308 0
DWIDTH 6 0
BBX 6 3 3 14
BITMAP
24
7C
FC
ENDCHAR
STARTCHAR 1FC6
ENCODING 8134
SWIDTH 514 0
DWIDTH 10 0
BBX 12 17 1 0
BITMAP
0130
03F0
03E0
0000
1E70
1E70
1EF0
1CE0
3CE0
3FE0
3FE0
7FE0
7FC0
7BC0
FBC0
F380
F600
ENDCHAR
STARTCHAR 1FC8
ENCODING 8136
SWIDTH 617 0
DWIDTH 12 0
BBX 9 14 3 0
BITMAP
C600
FF80
5F80
1F80
3F00
3C00
3F00
3F00
3C00
3F80
3F80
3F80
3F80
3800
ENDCHAR
STARTCHAR 1FCA
ENCODING 8138
SWIDTH 617 0
DWIDTH 12 0
BBX 13 14 2 0
BITMAP
6000
6F38
2F78
1E70
1EF0
1EF0
3FE0
3FE0
3FE0
7FE0
79E0
7BC0
7BC0
F300
ENDCHAR
STARTCHAR 1FDA
ENCODING 8154
SWIDTH 360 0
DWIDTH 7 0
BBX 8 14 2 0
BITMAP
60
6F
3F
1E
1E
3E
3C
3C
3C
7C
78
78
F8
F0
ENDCHAR
STARTCHAR 1FEA
ENCODING 8170
SWIDTH 720 0
DWIDTH 14 0
BBX 13 14 3 0
BITMAP
C000
C838
7C78
3C70
1CE0
1DC0
1FC0
1F80
0F00
0F00
0E00
0E00
0E00
0E00
ENDCHAR
STARTCHAR 1FEF
ENCODING 8175
SWIDTH 154 0
DWIDTH 3 0
BBX 2 3 3 11
BITMAP
C0
40
40
ENDCHAR
STARTCHAR 1FF6
ENCODING 8182
SWIDTH 565 0
DWIDTH 11 0
BBX 13 17 0 0
BITMAP
0130
03F0
03E0
01C0
07F0
0FF8
1FF8
1E78
3C38
3838
3838
3830
3870
18E0
7CF0
7DF0
F9F0
ENDCHAR
STARTCHAR 1FF8
ENCODING 8184
SWIDTH 565 0
DWIDTH 11 0
BBX 10 14 2 0
BITMAP
6400
6F00
3F80
1FC0
3FC0
7FC0
79C0
71C0
73C0
FFC0
7F80
7F80
7F00
3E00
ENDCHAR
STARTCHAR 1FFA
ENCODING 8186
SWIDTH 668 0
DWIDTH 13 0
BBX 12 14 2 0
BITMAP
6380
6FE0
3FF0
3FF0
3CF0
3870
7070
7070
7070
70E0
38C0
F9E0
F9E0
FBE0
ENDCHAR
STARTCHAR 200B
ENCODING 8203
SWIDTH 0 0
DWIDTH 0 0
BBX 0 0 0 0
BITMAP
ENDCHAR
STARTCHAR 2010
ENCODING 8208
SWIDTH 257 0
DWIDTH 5 0
BBX 5 3 2 5
BITMAP
F8
F8
F8
ENDCHAR
STARTCHAR 2011
ENCODING 8209
SWIDTH 360 0
DWIDTH 7 0
BBX 8 3 1 5
BITMAP
7F
FF
79
ENDCHAR
STARTCHAR 2012
ENCODING 8210
SWIDTH 462 0
DWIDTH 9 0
BBX 9 3 2 5
BITMAP
FF80
FF00
FF00
ENDCHAR
STARTCHAR 2013
ENCODING 8211
SWIDTH 462 0
DWIDTH 9 0
BBX 9 3 2 5
BITMAP
FF80
FF00
FF00
ENDCHAR
STARTCHAR 2014
ENCODING 8212
SWIDTH 565 0
DWIDTH 11 0
BBX 11 3 2 5
BITMAP
FFE0
FFE0
FFC0
ENDCHAR
STARTCHAR 2015
ENCODING 8213
SWIDTH 668 0
DWIDTH 13 0
BBX 13 3 2 5
BITMAP
FFF8
FFF8
FFF0
ENDCHAR
STARTCHAR 2016
ENCODING 8214
SWIDTH 257 0
DWIDTH 5 0
BBX 8 20 0 -3
BITMAP
08
0B
1B
1B
1A
1E
16
36
36
34
3C
2C
6C
6C
68
58
D8
D8
D0
D0
ENDCHAR
STARTCHAR 2017
ENCODING 8215
SWIDTH 360 0
DWIDTH 7 0
BBX 7 4 0 -3
BITMAP
FE
FE
FE
FE
ENDCHAR
STARTCHAR 2018
ENCODING 8216
SWIDTH 205 0
DWIDTH 4 0
BBX 4 7 2 7
BITMAP
30
30
70
70
E0
E0
E0
ENDCHAR
STARTCHAR 2019
ENCODING 8217
SWIDTH 205 0
DWIDTH 4 0
BBX 5 7 2 7
BITMAP
38
70
70
70
E0
E0
40
ENDCHAR
STARTCHAR 201A
ENCODING 8218
SWIDTH 205 0
DWIDTH 4 0
BBX 4 7 0 -3
BITMAP
30
70
70
70
E0
E0
C0
ENDCHAR
STARTCHAR 201B
ENCODING 8219
SWIDTH 205 0
DWIDTH 4 0
BBX 3 7 3 7
BITMAP
E0
E0
E0
E0
E0
E0
C0
ENDCHAR
STARTCHAR 201C
ENCODING 8220
SWIDTH 360 0
DWIDTH 7 0
BBX 8 7 2 7
BITMAP
33
37
77
7E
EE
EE
EC
ENDCHAR
STARTCHAR 201D
ENCODING 8221
SWIDTH 360 0
DWIDTH 7 0
BBX 8 7 2 7
BITMAP
3F
77
77
7E
EE
EC
4C
ENDCHAR
STARTCHAR 201E
ENCODING 8222
SWIDTH 360 0
DWIDTH 7 0
BBX 8 7 0 -3
BITMAP
37
77
77
7E
EE
EC
CC
ENDCHAR
STARTCHAR 201F
ENCODING 8223
SWIDTH 360 0
DWIDTH 7 0
BBX 7 7 3 7
BITMAP
EE
EE
FE
FC
EC
EC
C8
ENDCHAR
STARTCHAR 2020
ENCODING 8224
SWIDTH 462 0
DWIDTH 9 0
BBX 9 19 3 -3
BITMAP
0C00
1C00
1C00
FF80
FF00
FC00
3800
3800
3800
3800
7000
7000
7000
7000
7000
E000
E000
E000
4000
ENDCHAR
STARTCHAR 2021
ENCODING 8225
SWIDTH 462 0
DWIDTH 9 0
BBX 11 19 1 -3
BITMAP
0300
0700
0700
3FE0
3FE0
3E00
0E00
0E00
0E00
0E00
1C00
1C00
1C00
FF80
FF00
3800
3800
3800
3000
ENDCHAR
STARTCHAR 2022
ENCODING 8226
SWIDTH 257 0
DWIDTH 5 0
BBX 5 6 2 4
BITMAP
10
78
F8
F8
F8
E0
ENDCHAR
STARTCHAR 2023
ENCODING 8227
SWIDTH 257 0
DWIDTH 5 0
BBX 6 5 1 5
BITMAP
70
7C
7C
F0
C0
ENDCHAR
STARTCHAR 2024
ENCODING 8228
SWIDTH 205 0
DWIDTH 4 0
BBX 3 3 1 0
BITMAP
E0
E0
E0
ENDCHAR
STARTCHAR 2025
ENCODING 8229
SWIDTH 360 0
DWIDTH 7 0
BBX 7 4 1 0
BITMAP
44
EE
FE
CC
ENDCHAR
STARTCHAR 2026
ENCODING 8230
SWIDTH 565 0
DWIDTH 11 0
BBX 11 4 1 0
BITMAP
4440
EEE0
FFC0
CDC0
ENDCHAR
STARTCHAR 2027
ENCODING 8231
SWIDTH 205 0
DWIDTH 4 0
BBX 3 4 2 5
BITMAP
40
E0
E0
E0
ENDCHAR
STARTCHAR 202F
ENCODING 8239
SWIDTH 154 0
DWIDTH 3 0
BBX 0 0 0 0
BITMAP
ENDCHAR
STARTCHAR 2030
ENCODING 8240
SWIDTH 617 0
DWIDTH 12 0
BBX 12 13 1 1
BITMAP
1C60
3CE0
24C0
6D80
7B00
3700
07B0
0FF0
1AD0
32D0
73F0
6360
C000
ENDCHAR
STARTCHAR 2031
ENCODING 8241
SWIDTH 720 0
DWIDTH 14 0
BBX 14 13 1 1
BITMAP
1C60
3CE0
24C0
6D80
7B00
3700
07A8
0FFC
1ABC
32AC
73F8
63D0
C000
ENDCHAR
STARTCHAR 2039
ENCODING 8249
SWIDTH 205 0
DWIDTH 4 0
BBX 5 9 1 0
BITMAP
08
18
38
70
C0
F0
70
30
10
ENDCHAR
STARTCHAR 203A
ENCODING 8250
SWIDTH 205 0
DWIDTH 4 0
BBX 6 9 0 0
BITMAP
20
30
38
3C
0C
38
70
60
80
ENDCHAR
STARTCHAR 203C
ENCODING 8252
SWIDTH 462 0
DWIDTH 9 0
BBX 11 15 1 0
BITMAP
0020
3DE0
3DE0
39C0
39C0
3B80
3380
7380
7380
7300
0000
0000
6700
E700
E700
ENDCHAR
STARTCHAR 203E
ENCODING 8254
SWIDTH 360 0
DWIDTH 7 0
BBX 7 2 3 14
BITMAP
7E
FE
ENDCHAR
STARTCHAR 2043
ENCODING 8259
SWIDTH 257 0
DWIDTH 5 0
BBX 5 3 2 5
BITMAP
F8
F8
F8
ENDCHAR
STARTCHAR 2044
ENCODING 8260
SWIDTH 360 0
DWIDTH 7 0
BBX 10 14 0 0
BITMAP
00C0
01C0
03C0
0380
0780
0700
0E00
0E00
1C00
1C00
3800
3000
7000
E000
ENDCHAR
STARTCHAR 2045
ENCODING 8261
SWIDTH 308 0
DWIDTH 6 0
BBX 10 19 0 -3
BITMAP
07C0
1FC0
1F80
1C00
1C00
1C00
3800
3800
3800
3F00
3000
7000
7000
7000
7000
E000
FC00
FC00
FC00
ENDCHAR
STARTCHAR 2046
ENCODING 8262
SWIDTH 308 0
DWIDTH 6 0
BBX 10 19 0 -3
BITMAP
0FC0
1FC0
1F80
0380
0380
0380
0380
0700
0700
3F00
0700
0600
0E00
0E00
0E00
0E00
FC00
FC00
FC00
ENDCHAR
STARTCHAR 2047
ENCODING 8263
SWIDTH 668 0
DWIDTH 13 0
BBX 14 14 2 0
BITMAP
3C78
7EFC
7EFC
4E98
0C18
0C38
3C70
70E0
60C0
60C0
0000
4180
E180
C180
ENDCHAR
STARTCHAR 2048
ENCODING 8264
SWIDTH 565 0
DWIDTH 11 0
BBX 12 14 2 1
BITMAP
3CF0
7EF0
7EE0
4EE0
0DE0
0DC0
3DC0
71C0
6180
6000
0000
4380
E380
C380
ENDCHAR
STARTCHAR 2049
ENCODING 8265
SWIDTH 565 0
DWIDTH 11 0
BBX 13 14 1 0
BITMAP
3CF0
3DF8
39F8
3930
3830
3070
71E0
71C0
7180
0180
0000
6300
E300
E300
ENDCHAR
STARTCHAR 204B
ENCODING 8267
SWIDTH 360 0
DWIDTH 7 0
BBX 10 15 0 -2
BITMAP
1F00
1F80
1FC0
13C0
3780
3780
3780
3700
3C00
6C00
6C00
6C00
7800
5800
D800
ENDCHAR
STARTCHAR 204F
ENCODING 8271
SWIDTH 205 0
DWIDTH 4 0
BBX 5 13 1 -3
BITMAP
20
78
70
70
00
00
00
E0
E0
C0
C0
F0
40
ENDCHAR
STARTCHAR 2052
ENCODING 8274
SWIDTH 462 0
DWIDTH 9 0
BBX 11 14 1 0
BITMAP
0040
0060
10C0
3980
7380
3300
0600
0C00
1900
3B80
7380
6300
C000
8000
ENDCHAR
STARTCHAR 2070
ENCODING 8304
SWIDTH 205 0
DWIDTH 4 0
BBX 4 7 2 7
BITMAP
20
70
70
50
F0
70
60
ENDCHAR
STARTCHAR 2074
ENCODING 8308
SWIDTH 205 0
DWIDTH 4 0
BBX 4 6 2 6
BITMAP
20
60
70
F0
20
60
ENDCHAR
STARTCHAR 2075
ENCODING 8309
SWIDTH 257 0
DWIDTH 5 0
BBX 5 6 2 7
BITMAP
38
20
70
18
18
F0
ENDCHAR
STARTCHAR 2076
ENCODING 8310
SWIDTH 257 0
DWIDTH 5 0
BBX 5 6 2 6
BITMAP
38
60
70
D8
D8
F0
ENDCHAR
STARTCHAR 2077
ENCODING 8311
SWIDTH 205 0
DWIDTH 4 0
BBX 5 6 2 7
BITMAP
78
50
30
70
60
E0
ENDCHAR
STARTCHAR 2078
ENCODING 8312
SWIDTH 257 0
DWIDTH 5 0
BBX 5 7 2 7
BITMAP
10
38
30
70
D8
D8
70
ENDCHAR
STARTCHAR 2079
ENCODING 8313
SWIDTH 205 0
DWIDTH 4 0
BBX 5 6 2 7
BITMAP
78
58
58
70
90
F0
ENDCHAR
STARTCHAR 2080
ENCODING 8320
SWIDTH 205 0
DWIDTH 4 0
BBX 4 7 1 0
BITMAP
60
70
F0
B0
E0
E0
C0
ENDCHAR
STARTCHAR 2081
ENCODING 8321
SWIDTH 205 0
DWIDTH 4 0
BBX 3 6 2 0
BITMAP
60
E0
60
C0
C0
C0
ENDCHAR
STARTCHAR 2082
ENCODING 8322
SWIDTH 257 0
DWIDTH 5 0
BBX 4 7 1 0
BITMAP
20
F0
10
20
70
F0
E0
ENDCHAR
STARTCHAR 2083
ENCODING 8323
SWIDTH 205 0
DWIDTH 4 0
BBX 4 7 1 0
BITMAP
20
60
60
70
10
30
E0
ENDCHAR
STARTCHAR 2084
ENCODING 8324
SWIDTH 205 0
DWIDTH 4 0
BBX 4 6 1 0
BITMAP
60
40
F0
A0
60
60
ENDCHAR
STARTCHAR 2085
ENCODING 8325
SWIDTH 257 0
DWIDTH 5 0
BBX 5 7 1 0
BITMAP
18
60
60
B0
10
30
E0
ENDCHAR
STARTCHAR 2086
ENCODING 8326
SWIDTH 257 0
DWIDTH 5 0
BBX 5 6 1 1
BITMAP
38
40
F0
D0
90
F0
ENDCHAR
STARTCHAR 2087
ENCODING 8327
SWIDTH 205 0
DWIDTH 4 0
BBX 5 7 0 0
BITMAP
38
38
18
30
30
60
80
ENDCHAR
STARTCHAR 2088
ENCODING 8328
SWIDTH 257 0
DWIDTH 5 0
BBX 4 7 1 0
BITMAP
30
50
70
F0
90
F0
E0
ENDCHAR
STARTCHAR 2089
ENCODING 8329
SWIDTH 205 0
DWIDTH 4 0
BBX 5 7 1 0
BITMAP
70
58
D0
F0
10
F0
E0
ENDCHAR
STARTCHAR 20A0
ENCODING 8352
SWIDTH 514 0
DWIDTH 10 0
BBX 10 13 2 1
BITMAP
3F00
7F00
7000
E700
E7C0
EFC0
EC00
FF00
7F00
1C00
1F80
1F80
1E00
ENDCHAR
STARTCHAR 20A4
ENCODING 8356
SWIDTH 514 0
DWIDTH 10 0
BBX 11 13 1 0
BITMAP
03C0
07E0
0EE0
0EE0
1E00
7F80
7F80
7F80
FF80
3C00
FFC0
FF80
7F80
ENDCHAR
STARTCHAR 20A6
ENCODING 8358
SWIDTH 462 0
DWIDTH 9 0
BBX 11 13 1 0
BITMAP
0DC0
1DC0
3FE0
7FE0
1D80
3F80
3F80
3700
7F80
FF80
7700
7700
7600
ENDCHAR
STARTCHAR 20A7
ENCODING 8359
SWIDTH 668 0
DWIDTH 13 0
BBX 15 13 0 0
BITMAP
1E00
1F00
1F00
1B00
3BEE
3FFE
3FF8
3CD8
708C
718C
71BC
71B8
E1B8
ENDCHAR
STARTCHAR 20A8
ENCODING 8360
SWIDTH 617 0
DWIDTH 12 0
BBX 12 14 1 0
BITMAP
0C00
3F00
3F00
3300
7320
77F0
7EF0
7DC0
7CE0
FCE0
FC60
EDE0
EFE0
CFC0
ENDCHAR
STARTCHAR 20A9
ENCODING 8361
SWIDTH 668 0
DWIDTH 13 0
BBX 15 14 1 0
BITMAP
0C80
1C9C
3FFE
3FFC
7FFC
1DF0
7FFC
7FFC
FFE0
1DC0
1DC0
1980
1980
1100
ENDCHAR
STARTCHAR 20AA
ENCODING 8362
SWIDTH 617 0
DWIDTH 12 0
BBX 13 13 1 1
BITMAP
1F98
3FD8
39D8
71F8
71B8
6DB0
6DB0
EC70
EC70
DC60
DFE0
CFE0
C7C0
ENDCHAR
STARTCHAR 20AB
ENCODING 8363
SWIDTH 462 0
DWIDTH 9 0
BBX 12 14 0 0
BITMAP
00E0
07F0
0FE0
01C0
0FC0
1FC0
3BC0
3380
3380
3F80
1F00
0000
7F80
FF80
ENDCHAR
STARTCHAR 20AC
ENCODING 8364
SWIDTH 565 0
DWIDTH 11 0
BBX 12 14 1 0
BITMAP
01E0
07F0
07F0
0FF0
1E00
7FC0
7FC0
7C00
7F80
FF80
7C00
3FC0
1FC0
0FC0
ENDCHAR
STARTCHAR 20AD
ENCODING 8365
SWIDTH 514 0
DWIDTH 10 0
BBX 10 13 2 0
BITMAP
1D80
3BC0
3B80
3F00
3E00
FFC0
FFC0
7F80
FE00
FE00
EF00
E700
E400
ENDCHAR
STARTCHAR 20AE
ENCODING 8366
SWIDTH 462 0
DWIDTH 9 0
BBX 10 13 2 0
BITMAP
7FC0
7F80
7E80
1C00
1F00
7C00
7800
3E00
FE00
F800
3800
7000
7000
ENDCHAR
STARTCHAR 20B2
ENCODING 8370
SWIDTH 462 0
DWIDTH 9 0
BBX 11 18 1 -2
BITMAP
0300
0300
0700
07C0
0FE0
1FC0
3E00
3E00
7FC0
6FC0
6DC0
FD80
FF80
FF00
FE00
7800
1800
3800
ENDCHAR
STARTCHAR 20B4
ENCODING 8372
SWIDTH 462 0
DWIDTH 9 0
BBX 10 14 1 0
BITMAP
0700
0F80
1FC0
1FC0
0180
7FC0
7FC0
1E00
7F80
FF80
3900
3F00
3F00
3F00
ENDCHAR
STARTCHAR 20B5
ENCODING 8373
SWIDTH 462 0
DWIDTH 9 0
BBX 10 17 2 -2
BITMAP
0300
0700
0F80
3FC0
7FC0
7F80
FE00
EE00
EC00
FC00
FF00
FF00
FF00
FE00
7800
3800
3800
ENDCHAR
STARTCHAR 20B8
ENCODING 8376
SWIDTH 411 0
DWIDTH 8 0
BBX 9 14 2 0
BITMAP
7F80
7F00
7F00
0000
7E00
FF00
FE00
3800
3800
3800
7000
7000
7000
7000
ENDCHAR
STARTCHAR 20B9
ENCODING 8377
SWIDTH 514 0
DWIDTH 10 0
BBX 11 14 2 0
BITMAP
7C00
7FE0
3FC0
0300
7FC0
FFC0
7E00
FC00
3800
3800
3800
1C00
1C00
1E00
ENDCHAR
STARTCHAR 20BA
ENCODING 8378
SWIDTH 514 0
DWIDTH 10 0
BBX 10 14 2 0
BITMAP
1C00
1C00
1F00
3F00
FC00
3A00
3E00
F980
79C0
7980
7B80
7F80
3F00
1C00
ENDCHAR
STARTCHAR 20BD
ENCODING 8381
SWIDTH 462 0
DWIDTH 9 0
BBX 10 14 1 0
BITMAP
0600
1F80
1FC0
19C0
38C0
39C0
7FC0
7F80
3800
7000
FF00
FF00
7000
6000
ENDCHAR
STARTCHAR 20BF
ENCODING 8383
SWIDTH 514 0
DWIDTH 10 0
BBX 12 18 0 -2
BITMAP
0370
0770
0760
1FE0
1FE0
0FE0
0E60
0E60
1FC0
1F80
1FE0
1CE0
1DE0
7FE0
7FC0
FF00
3300
3700
ENDCHAR
STARTCHAR 20C0
ENCODING 8384
SWIDTH 462 0
DWIDTH 9 0
BBX 11 13 1 0
BITMAP
0FC0
1FE0
3FC0
3800
7000
7000
7F80
7F80
3F80
1E00
0100
FF80
FF00
ENDCHAR
STARTCHAR 2116
ENCODING 8470
SWIDTH 617 0
DWIDTH 12 0
BBX 14 13 0 0
BITMAP
0CC0
1DC0
1DC0
1D80
1DB8
3DBC
3F6C
3F6C
7778
7730
7760
66F8
E6F0
ENDCHAR
STARTCHAR 2117
ENCODING 8471
SWIDTH 668 0
DWIDTH 13 0
BBX 12 12 2 1
BITMAP
0FC0
3FE0
7070
6730
C5B0
C5B0
CF30
CC30
CC60
CCE0
7FC0
3F80
ENDCHAR
STARTCHAR 2120
ENCODING 8480
SWIDTH 617 0
DWIDTH 12 0
BBX 12 6 2 7
BITMAP
3D10
79B0
61F0
3BF0
9B70
F260
ENDCHAR
STARTCHAR 2122
ENCODING 8482
SWIDTH 617 0
DWIDTH 12 0
BBX 11 6 3 7
BITMAP
FA20
FB60
23E0
67E0
66E0
44C0
ENDCHAR
STARTCHAR 2139
ENCODING 8505
SWIDTH 720 0
DWIDTH 14 0
BBX 17 14 0 0
BITMAP
01FF80
1FFF80
1F1F00
1F1F00
1F1F00
3FFF00
383E00
383E00
3E3E00
7E7E00
7E7C00
701C00
7FFC00
FFFC00
ENDCHAR
STARTCHAR 2150
ENCODING 8528
SWIDTH 565 0
DWIDTH 11 0
BBX 11 13 1 1
BITMAP
1860
38E0
18C0
1980
3B00
3F00
07E0
0DE0
1840
30C0
71C0
6180
C200
ENDCHAR
STARTCHAR 2151
ENCODING 8529
SWIDTH 565 0
DWIDTH 11 0
BBX 11 13 1 1
BITMAP
1860
38E0
18C0
1980
3B00
3F00
06C0
0DE0
1B60
31C0
7040
63C0
C380
ENDCHAR
STARTCHAR 2152
ENCODING 8530
SWIDTH 668 0
DWIDTH 13 0
BBX 13 13 1 1
BITMAP
1860
38E0
18C0
1980
3B00
3F00
06D8
0FD8
18B8
31A8
71B8
61B8
C0B0
ENDCHAR
STARTCHAR 2153
ENCODING 8531
SWIDTH 565 0
DWIDTH 11 0
BBX 11 13 1 1
BITMAP
1860
38E0
18C0
1980
3B00
3F00
0680
0D80
1980
31C0
7040
60C0
C380
ENDCHAR
STARTCHAR 2154
ENCODING 8532
SWIDTH 565 0
DWIDTH 11 0
BBX 11 13 1 1
BITMAP
3C60
28E0
08C0
1580
3F00
7F00
0680
0D80
1980
31C0
7040
60C0
C380
ENDCHAR
STARTCHAR 2155
ENCODING 8533
SWIDTH 565 0
DWIDTH 11 0
BBX 11 13 1 1
BITMAP
1860
38E0
18C0
1980
3B00
3F00
0660
0D80
1980
32C0
7040
60C0
C380
ENDCHAR
STARTCHAR 2156
ENCODING 8534
SWIDTH 565 0
DWIDTH 11 0
BBX 11 13 1 1
BITMAP
3C60
28E0
08C0
1580
3F00
7F00
0660
0D80
1980
32C0
7040
60C0
C380
ENDCHAR
STARTCHAR 2157
ENCODING 8535
SWIDTH 565 0
DWIDTH 11 0
BBX 11 13 1 1
BITMAP
3860
10E0
38C0
0980
0B00
7F00
0660
0D80
1980
32C0
7040
60C0
C380
ENDCHAR
STARTCHAR 2158
ENCODING 8536
SWIDTH 565 0
DWIDTH 11 0
BBX 11 13 1 1
BITMAP
1060
30E0
38C0
7980
1300
3700
0660
0D80
1980
32C0
7040
60C0
C380
ENDCHAR
STARTCHAR 2159
ENCODING 8537
SWIDTH 565 0
DWIDTH 11 0
BBX 11 13 1 1
BITMAP
1860
38E0
18C0
1980
3B00
3F00
0600
0CC0
1900
33C0
73C0
6240
C380
ENDCHAR
STARTCHAR 215A
ENCODING 8538
SWIDTH 565 0
DWIDTH 11 0
BBX 11 13 1 1
BITMAP
1C60
10E0
38C0
0D80
0F00
7F00
0600
0CC0
1900
33C0
73C0
6240
C380
ENDCHAR
STARTCHAR 215B
ENCODING 8539
SWIDTH 565 0
DWIDTH 11 0
BBX 11 13 1 1
BITMAP
1860
38E0
18C0
1980
3B00
3F00
06C0
0D40
1980
33C0
7240
63C0
C380
ENDCHAR
STARTCHAR 215C
ENCODING 8540
SWIDTH 565 0
DWIDTH 11 0
BBX 11 13 1 1
BITMAP
3860
10E0
38C0
0980
0B00
7F00
06C0
0D40
1980
33C0
7240
63C0
C380
ENDCHAR
STARTCHAR 215D
ENCODING 8541
SWIDTH 565 0
DWIDTH 11 0
BBX 11 13 1 1
BITMAP
1C60
10E0
38C0
0D80
0F00
7F00
06C0
0D40
1980
33C0
7240
63C0
C380
ENDCHAR
STARTCHAR 215E
ENCODING 8542
SWIDTH 565 0
DWIDTH 11 0
BBX 11 13 1 1
BITMAP
3C60
28E0
18C0
3980
3300
7700
06C0
0D40
1980
33C0
7240
63C0
C380
ENDCHAR
STARTCHAR 215F
ENCODING 8543
SWIDTH 565 0
DWIDTH 11 0
BBX 11 13 1 1
BITMAP
1860
38E0
18C0
1980
3B00
3F00
0600
0C00
1800
3000
7000
6000
C000
ENDCHAR
STARTCHAR 2189
ENCODING 8585
SWIDTH 565 0
DWIDTH 11 0
BBX 11 14 1 0
BITMAP
1000
3860
38E0
28C0
7980
3B00
3700
0680
0D80
1980
31C0
7040
60C0
C380
ENDCHAR
STARTCHAR 2190
ENCODING 8592
SWIDTH 668 0
DWIDTH 13 0
BBX 13 10 2 1
BITMAP
0400
0C00
3C00
7C00
FFF8
FFF8
FFF0
7800
3800
1000
ENDCHAR
STARTCHAR 2191
ENCODING 8593
SWIDTH 668 0
DWIDTH 13 0
BBX 10 13 4 0
BITMAP
0E00
1F00
3F00
7F80
FFC0
1C00
1C00
3800
3800
3800
3800
3000
3000
ENDCHAR
STARTCHAR 2192
ENCODING 8594
SWIDTH 668 0
DWIDTH 13 0
BBX 13 10 2 1
BITMAP
0080
00C0
00E0
00F0
FFF8
FFF8
47F0
01E0
0380
0300
ENDCHAR
STARTCHAR 2193
ENCODING 8595
SWIDTH 668 0
DWIDTH 13 0
BBX 10 13 3 0
BITMAP
0700
0700
0700
0600
0E00
0E00
0E00
FFC0
FF80
7F00
3E00
3C00
1000
ENDCHAR
STARTCHAR 2194
ENCODING 8596
SWIDTH 668 0
DWIDTH 13 0
BBX 13 10 2 1
BITMAP
0840
1820
3070
7070
FFF8
FFF8
FFF0
60E0
60C0
2080
ENDCHAR
STARTCHAR 2195
ENCODING 8597
SWIDTH 668 0
DWIDTH 13 0
BBX 11 13 3 0
BITMAP
0700
1F80
3FC0
7FE0
0E00
0E00
0E00
1E00
1C00
FFC0
7F00
3C00
1800
ENDCHAR
STARTCHAR 2196
ENCODING 8598
SWIDTH 668 0
DWIDTH 13 0
BBX 9 10 3 1
BITMAP
7F80
7F00
7E00
7C00
FC00
FE00
CF00
8780
0380
0380
ENDCHAR
STARTCHAR 2197
ENCODING 8599
SWIDTH 668 0
DWIDTH 13 0
BBX 11 10 3 1
BITMAP
1FE0
0FE0
07E0
03E0
0FC0
1FC0
3CC0
7840
F000
C000
ENDCHAR
STARTCHAR 2198
ENCODING 8600
SWIDTH 668 0
DWIDTH 13 0
BBX 10 10 4 1
BITMAP
6000
F000
7840
78C0
3D80
1F80
0F80
1F80
3F80
7F00
ENDCHAR
STARTCHAR 2199
ENCODING 8601
SWIDTH 668 0
DWIDTH 13 0
BBX 12 10 2 1
BITMAP
0020
00F0
21E0
23C0
7780
7F00
7C00
7E00
FE00
FF00
ENDCHAR
STARTCHAR 2212
ENCODING 8722
SWIDTH 462 0
DWIDTH 9 0
BBX 9 3 2 5
BITMAP
FF80
FF00
FF00
ENDCHAR
STARTCHAR 2213
ENCODING 8723
SWIDTH 462 0
DWIDTH 9 0
BBX 10 12 1 1
BITMAP
3FC0
3FC0
3F80
0000
0E00
0E00
5F80
FF80
FF80
1C00
1800
1800
ENDCHAR
STARTCHAR 2214
ENCODING 8724
SWIDTH 462 0
DWIDTH 9 0
BBX 9 11 2 3
BITMAP
0400
0C00
0000
1C00
1C00
1C00
FF80
FF00
3F00
3800
3800
ENDCHAR
STARTCHAR 2215
ENCODING 8725
SWIDTH 360 0
DWIDTH 7 0
BBX 10 14 0 0
BITMAP
00C0
01C0
03C0
0380
0780
0700
0E00
0E00
1C00
1C00
3800
3000
7000
E000
ENDCHAR
STARTCHAR 2216
ENCODING 8726
SWIDTH 360 0
DWIDTH 7 0
BBX 5 13 3 1
BITMAP
E0
E0
E0
60
70
70
70
70
70
78
78
78
38
ENDCHAR
STARTCHAR 2219
ENCODING 8729
SWIDTH 205 0
DWIDTH 4 0
BBX 3 4 2 5
BITMAP
40
E0
E0
E0
ENDCHAR
STARTCHAR 221A
ENCODING 8730
SWIDTH 462 0
DWIDTH 9 0
BBX 10 14 2 0
BITMAP
0080
00C0
0180
0300
0300
E600
E600
6C00
6C00
7800
7000
7000
6000
6000
ENDCHAR
STARTCHAR 2248
ENCODING 8776
SWIDTH 462 0
DWIDTH 9 0
BBX 10 10 1 2
BITMAP
19C0
3FC0
7FC0
7F80
6000
0000
7380
FF80
FF80
DE00
ENDCHAR
STARTCHAR 2260
ENCODING 8800
SWIDTH 462 0
DWIDTH 9 0
BBX 10 11 1 1
BITMAP
0380
0300
7FC0
7FC0
7E00
0C00
FF80
FF80
FF00
3000
2000
ENDCHAR
STARTCHAR 2261
ENCODING 8801
SWIDTH 462 0
DWIDTH 9 0
BBX 10 11 1 1
BITMAP
3FC0
3FC0
7E00
0000
7FC0
7F80
4000
0000
FF80
FF00
F000
ENDCHAR
STARTCHAR 2310
ENCODING 8976
SWIDTH 462 0
DWIDTH 9 0
BBX 10 5 1 3
BITMAP
7FC0
7F80
7F80
E000
E000
ENDCHAR
STARTCHAR 2319
ENCODING 8985
SWIDTH 462 0
DWIDTH 9 0
BBX 9 5 1 3
BITMAP
7000
7000
FF80
FF80
FF80
ENDCHAR
STARTCHAR 2609
ENCODING 9737
SWIDTH 668 0
DWIDTH 13 0
BBX 12 12 2 1
BITMAP
07E0
1FF0
3070
6030
C230
CF30
CF30
CE30
C060
C0E0
F7C0
7F80
ENDCHAR
STARTCHAR 2615
ENCODING 9749
SWIDTH 565 0
DWIDTH 11 0
BBX 12 14 1 0
BITMAP
3000
3200
3200
1B00
0400
7FE0
7FF0
7FB0
7FA0
FF20
FFC0
FF80
FF00
FE00
ENDCHAR
STARTCHAR 2621
ENCODING 9761
SWIDTH 565 0
DWIDTH 11 0
BBX 12 13 0 0
BITMAP
01F0
01F0
03E0
0360
0760
07E0
0EC0
0CC0
1CC0
1CF0
39F0
79F0
F1E0
ENDCHAR
STARTCHAR 262E
ENCODING 9774
SWIDTH 668 0
DWIDTH 13 0
BBX 13 14 2 0
BITMAP
0180
0FF0
3F78
6338
6318
C318
CF98
BFD8
F6F0
E670
CE60
EFC0
7F80
1E00
ENDCHAR
STARTCHAR 2647
ENCODING 9799
SWIDTH 462 0
DWIDTH 9 0
BBX 9 14 1 0
BITMAP
0400
3F80
3F80
3980
7980
7180
7F80
7F80
7E00
F000
F000
FF00
FF00
FF00
ENDCHAR
STARTCHAR 29EB
ENCODING 10731
SWIDTH 462 0
DWIDTH 9 0
BBX 8 18 2 -2
BITMAP
04
0E
0E
1E
3F
3F
7F
7F
FF
FF
FF
FE
FC
FC
F8
70
70
60
ENDCHAR
STARTCHAR 2E2E
ENCODING 11822
SWIDTH 462 0
DWIDTH 9 0
BBX 9 14 2 0
BITMAP
1F00
7F80
7F80
7380
F000
F000
7C00
3C00
1C00
1C00
0000
3800
3800
3000
ENDCHAR
STARTCHAR 2E38
ENCODING 11832
SWIDTH 462 0
DWIDTH 9 0
BBX 9 19 1 -3
BITMAP
0300
0700
0700
0700
0700
0E00
0E00
0E00
0E00
0C00
1C00
1C00
1C00
FF80
FF00
3F00
3800
3800
2000
ENDCHAR
STARTCHAR 2E4B
ENCODING 11851
SWIDTH 462 0
DWIDTH 9 0
BBX 11 19 1 -3
BITMAP
0300
0700
0700
3FE0
3FC0
3F00
0E00
0E00
7FC0
7F80
5C00
1C00
1C00
FF80
FF00
F800
3800
3800
1000
ENDCHAR
STARTCHAR 3012
ENCODING 12306
SWIDTH 565 0
DWIDTH 11 0
BBX 12 14 2 0
BITMAP
7FF0
7FE0
7FE0
0000
0000
FFE0
FFC0
FFC0
1C00
1C00
1C00
1C00
3800
3800
ENDCHAR
STARTCHAR 3036
ENCODING 12342
SWIDTH 668 0
DWIDTH 13 0
BBX 12 12 2 1
BITMAP
0FE0
3FF0
7070
6FB0
CFB0
CFB0
DFB0
C430
C460
C4C0
F3C0
7F00
ENDCHAR
STARTCHAR 4E00
ENCODING 19968
SWIDTH 668 0
DWIDTH 13 0
BBX 13 3 2 5
BITMAP
FFF8
FFF8
FFF0
ENDCHAR
STARTCHAR 5186
ENCODING 20870
SWIDTH 668 0
DWIDTH 13 0
BBX 16 13 0 0
BITMAP
1FFF
1FFF
1FFF
1CCE
38CE
39CE
3FFC
3FFC
3FFC
701C
7038
7038
E038
ENDCHAR
STARTCHAR 8336
ENCODING 33590
SWIDTH 668 0
DWIDTH 13 0
BBX 15 14 1 0
BITMAP
0C18
3FFE
3FFE
1818
07E0
1EF0
7B38
0300
3FF0
3FF0
1740
3EE0
76F0
C630
ENDCHAR
STARTCHAR 9F99
ENCODING 40857
SWIDTH 668 0
DWIDTH 13 0
BBX 14 14 1 0
BITMAP
0100
03F0
0378
0700
7FFC
7FFC
0F80
0D90
1DB8
19F0
33C0
67B0
C7F0
81E0
ENDCHAR
STARTCHAR A78B
ENCODING 42891
SWIDTH 205 0
DWIDTH 4 0
BBX 4 10 2 4
BITMAP
70
70
70
70
70
70
70
F0
E0
E0
ENDCHAR
STARTCHAR A78C
ENCODING 42892
SWIDTH 205 0
DWIDTH 4 0
BBX 4 10 2 4
BITMAP
70
70
70
70
70
70
70
F0
E0
E0
ENDCHAR
STARTCHAR FFFD
ENCODING 65533
SWIDTH 462 0
DWIDTH 9 0
BBX 8 18 2 -2
BITMAP
06
06
0E
1E
3F
21
41
C9
F9
F3
E7
CE
FC
CC
48
78
70
30
ENDCHAR
ENDFONT
